<?xml version="1.0" encoding="UTF-8" standalone="no"?>
<svg
   xmlns:dc="http://purl.org/dc/elements/1.1/"
   xmlns:cc="http://creativecommons.org/ns#"
   xmlns:rdf="http://www.w3.org/1999/02/22-rdf-syntax-ns#"
   xmlns:svg="http://www.w3.org/2000/svg"
   xmlns="http://www.w3.org/2000/svg"
   id="svg16535"
   version="1.1"
   viewBox="0 0 33.072918 39.687508"
   height="39.687508mm"
   width="33.072918mm">
  <defs
     id="defs16529" />
  <metadata
     id="metadata16532">
    <rdf:RDF>
      <cc:Work
         rdf:about="">
        <dc:format>image/svg+xml</dc:format>
        <dc:type
           rdf:resource="http://purl.org/dc/dcmitype/StillImage" />
        <dc:title></dc:title>
      </cc:Work>
    </rdf:RDF>
  </metadata>
  <g
     transform="translate(217.24524,107.33565)"
     id="layer1">
    <g
       id="g16383"
       transform="matrix(0.27192174,0,0,-0.25987054,-317.36041,-24.466239)">
      <g
         id="g7028"
         transform="translate(415.586,287.9079)">
        <path
           d="m 0,0 c -26.324,-0.419 -45.979,-40.252 -27.676,-58.724 -1.134,2.994 -1.599,5.057 -1.284,9.268 1.059,-4.001 1.846,-9.196 7.276,-14.214 -0.567,1.982 -1.963,5.672 -1.624,8.717 1.19,-3.456 2.187,-7.902 7.993,-11.298 -1.94,2.374 -2.791,4.665 -3.119,7.803 6.602,-8.757 11.396,-9.285 18.434,-9.486 7.038,0.201 11.832,0.729 18.434,9.486 -0.328,-3.138 -1.179,-5.429 -3.12,-7.803 5.807,3.396 6.804,7.842 7.994,11.298 0.339,-3.045 -1.057,-6.735 -1.624,-8.717 5.43,5.018 6.216,10.213 7.276,14.214 0.315,-4.211 -0.15,-6.274 -1.284,-9.268 C 45.979,-40.252 26.323,-0.419 0,0"
           style="fill:#e7962e;fill-opacity:1;fill-rule:evenodd;stroke:none"
           id="path7030" />
      </g>
      <g
         id="g7032"
         transform="translate(431.7341,218.609)"
         style="stroke:#458098;stroke-opacity:1">
        <path
           d="m 0,0 -2.195,-51.942 h -27.44 L -31.83,0 Z"
           style="fill:#ffffff;fill-opacity:1;fill-rule:evenodd;stroke:#458098;stroke-opacity:1"
           id="path7034" />
      </g>
      <g
         id="g7036"
         transform="translate(415.819,244.6826)">
        <path
           d="m 0,0 v 0 c 4.231,0 7.691,-3.461 7.691,-7.691 v -16.702 c 0,-4.23 -3.46,-7.691 -7.691,-7.691 v 0 c -4.23,0 -7.692,3.461 -7.692,7.691 V -7.691 C -7.692,-3.461 -4.23,0 0,0"
           style="fill:#fcd9bd;fill-opacity:1;fill-rule:evenodd;stroke:none"
           id="path7038" />
      </g>
      <g
         id="g7040"
         transform="translate(434.8272,216.7217)"
         style="stroke:#458098;stroke-opacity:1">
        <path
           d="m 0,0 12.262,-16.483 c 1.964,-2.64 -3.584,-7.139 -5.655,-4.966 L -6.28,-7.936 C -11.674,-2.279 -4.587,5.847 0,0"
           style="fill:#ffffff;fill-opacity:1;fill-rule:evenodd;stroke:#458098;stroke-opacity:1"
           id="path7042" />
      </g>
      <g
         id="g7044"
         transform="translate(423.5105,224.2854)">
        <path
           d="M 0,0 V 0 C 0,-6.422 -15.383,-6.422 -15.383,0 -15.383,6.422 0,6.422 0,0"
           style="fill:#dfb99a;fill-opacity:1;fill-rule:evenodd;stroke:none"
           id="path7046" />
      </g>
      <g
         id="g7048"
         transform="translate(459.6227,207.8317)">
        <path
           d="m 0,0 -15.162,-8.857 c -3.665,-3.684 0.373,-10.011 5.191,-5.908 l 13.912,9.871 z"
           style="fill:#fcd9bd;fill-opacity:1;fill-rule:evenodd;stroke:none"
           id="path7050" />
      </g>
      <g
         id="g7052"
         transform="translate(414.8592,212.6409)">
        <path
           d="m 0,0 c -3.471,0.41 -6.667,2.989 -6.667,7.738 v 2.876 C -5.987,6.748 -3.1,4.562 0,4.16 Z M 8.646,10.614 V 7.738 C 8.646,2.989 5.45,0.41 1.98,0 v 4.145 c 3.072,0.353 5.941,2.476 6.666,6.469"
           style="fill:#ffffff;fill-opacity:1;fill-rule:evenodd;stroke:#cde1f9;stroke-opacity:1"
           id="path7054" />
      </g>
      <g
         id="g7056"
         transform="translate(439.1966,197.6184)">
        <path
           d="M 0,0 5.017,6.486 8.622,3.018 4.008,-3.607 Z"
           style="fill:#cde1f9;fill-opacity:1;fill-rule:evenodd;stroke:none"
           id="path7058" />
      </g>
      <g
         id="g7060"
         transform="translate(439.1124,196.577)"
         style="stroke:#458098;stroke-opacity:1">
        <path
           d="M 0,0 6.013,7.749 9.23,4.317 4.697,-3.482 Z"
           style="fill:#ffffff;fill-opacity:1;fill-rule:evenodd;stroke:#458098;stroke-opacity:1"
           id="path7062" />
      </g>
      <g
         id="g7064"
         transform="translate(404.6247,210.7808)"
         style="stroke:#458098;stroke-opacity:1">
        <path
           d="m 0,0 -14.976,-14.063 c -2.399,-2.253 -7.501,2.745 -5.58,5.051 L -8.601,5.333 C -3.597,11.338 5.285,5.225 0,0"
           style="fill:#ffffff;fill-opacity:1;fill-rule:evenodd;stroke:#458098;stroke-opacity:1"
           id="path7066" />
      </g>
      <g
         id="g7068"
         transform="translate(398.893,185.0088)">
        <path
           d="m 0,0 -10.827,14.062 c -3.986,3.333 -9.941,-1.237 -5.438,-5.682 l 11.73,-12.73 z"
           style="fill:#fcd9bd;fill-opacity:1;fill-rule:evenodd;stroke:none"
           id="path7070" />
      </g>
      <g
         id="g7072"
         transform="translate(386.1448,204.2594)">
        <path
           d="M 0,0 7.016,-4.244 3.982,-8.22 -3.126,-4.393 Z"
           style="fill:#cde1f9;fill-opacity:1;fill-rule:evenodd;stroke:none"
           id="path7074" />
      </g>
      <g
         id="g7076"
         transform="translate(385.1008,204.2243)"
         style="stroke:#458098;stroke-opacity:1">
        <path
           d="M 0,0 8.384,-5.089 5.342,-8.677 -2.923,-5.064 Z"
           style="fill:#ffffff;fill-opacity:1;fill-rule:evenodd;stroke:#458098;stroke-opacity:1"
           id="path7078" />
      </g>
      <g
         id="g7080"
         transform="translate(421.1988,166.6667)">
        <path
           d="M 0,0 4.19,44.539 H 5.113 L 1.618,0 Z"
           style="fill:#cde1f9;fill-opacity:1;fill-rule:evenodd;stroke:none"
           id="path7082" />
      </g>
      <path
         d="m 415.819,212.059 h 10.492 v -0.826 h -10.492 z"
         style="fill:#cde1f9;fill-opacity:1;fill-rule:evenodd;stroke:none"
         id="path7084" />
      <g
         id="g7086"
         transform="translate(421.9713,206.2213)">
        <path
           d="M 0,0 C 0.602,0.007 1.095,-0.475 1.102,-1.077 1.109,-1.678 0.626,-2.172 0.026,-2.179 -0.576,-2.186 -1.07,-1.703 -1.077,-1.102 -1.083,-0.501 -0.602,-0.007 0,0"
           style="fill:#b2b2b2;fill-opacity:1;fill-rule:evenodd;stroke:none"
           id="path7088" />
      </g>
      <g
         id="g7090"
         transform="translate(420.9528,191.6507)">
        <path
           d="M 0,0 C 0.602,0.007 1.095,-0.475 1.102,-1.077 1.109,-1.678 0.627,-2.172 0.026,-2.178 -0.576,-2.186 -1.069,-1.704 -1.076,-1.102 -1.083,-0.5 -0.601,-0.007 0,0"
           style="fill:#b2b2b2;fill-opacity:1;fill-rule:evenodd;stroke:none"
           id="path7092" />
      </g>
      <g
         id="g7094"
         transform="translate(420.2974,179.9563)">
        <path
           d="M 0,0 C 0.602,0.007 1.095,-0.475 1.102,-1.077 1.109,-1.678 0.627,-2.172 0.025,-2.179 -0.576,-2.186 -1.07,-1.704 -1.077,-1.102 -1.083,-0.501 -0.602,-0.007 0,0"
           style="fill:#b2b2b2;fill-opacity:1;fill-rule:evenodd;stroke:none"
           id="path7096" />
      </g>
      <g
         id="g7098"
         transform="translate(419.5428,168.2606)">
        <path
           d="M 0,0 C 0.601,0.007 1.095,-0.475 1.102,-1.076 1.104,-1.263 1.059,-1.439 0.977,-1.594 h -1.93 C -1.03,-1.447 -1.075,-1.279 -1.077,-1.102 -1.084,-0.5 -0.602,-0.007 0,0"
           style="fill:#b2b2b2;fill-opacity:1;fill-rule:evenodd;stroke:none"
           id="path7100" />
      </g>
      <g
         id="g7102"
         transform="translate(401.0456,191.5917)">
        <path
           d="M 0,0 0.278,-6.581 4.785,-4.392 4.046,0.921 Z"
           style="fill:#ffffff;fill-opacity:1;fill-rule:evenodd;stroke:none"
           id="path7104" />
      </g>
      <g
         id="g7106"
         transform="translate(415.6908,284.1517)">
        <path
           d="m 0,0 c -34.213,0 -31.594,-32.073 -25.066,-43.358 8.909,-15.399 20.89,-18.808 25.066,-18.808 4.176,0 16.157,3.408 25.066,18.808 C 31.594,-32.072 34.213,0 0,0"
           style="fill:#fcd9bd;fill-opacity:1;fill-rule:evenodd;stroke:none"
           id="path7108" />
      </g>
      <g
         id="g7110"
         transform="translate(385.3658,256.7795)">
        <path
           d="m 0,0 c 2.225,0.552 4.929,-2.424 6.038,-6.646 1.11,-4.224 0.205,-8.095 -2.02,-8.648 -2.226,-0.552 -4.929,2.424 -6.039,6.647 C -3.131,-4.423 -2.225,-0.552 0,0"
           style="fill:#fcd9bd;fill-opacity:1;fill-rule:evenodd;stroke:none"
           id="path7112" />
      </g>
      <g
         id="g7114"
         transform="translate(446.0303,256.7795)">
        <path
           d="m 0,0 c -2.225,0.552 -4.928,-2.424 -6.038,-6.646 -1.11,-4.224 -0.205,-8.095 2.02,-8.648 2.225,-0.552 4.929,2.424 6.038,6.647 C 3.129,-4.423 2.225,-0.552 0,0"
           style="fill:#fcd9bd;fill-opacity:1;fill-rule:evenodd;stroke:none"
           id="path7116" />
      </g>
      <g
         id="g7118"
         transform="translate(424.8314,254.6334)">
        <path
           d="m 0,0 c 1.172,0 2.123,-1.693 2.123,-3.781 0,-2.087 -0.951,-3.78 -2.123,-3.78 -1.171,0 -2.122,1.693 -2.122,3.78 C -2.122,-1.693 -1.171,0 0,0"
           style="fill:#425156;fill-opacity:1;fill-rule:evenodd;stroke:none"
           id="path7120" />
      </g>
      <g
         id="g7122"
         transform="translate(406.55,254.6334)">
        <path
           d="m 0,0 c 1.172,0 2.122,-1.693 2.122,-3.781 0,-2.087 -0.95,-3.78 -2.122,-3.78 -1.172,0 -2.122,1.693 -2.122,3.78 C -2.122,-1.693 -1.172,0 0,0"
           style="fill:#425156;fill-opacity:1;fill-rule:evenodd;stroke:none"
           id="path7124" />
      </g>
      <g
         id="g7126"
         transform="translate(419.9831,242.7976)">
        <path
           d="M 0,0 C -1.647,-4.083 -6.937,-4.011 -8.585,0 -6.173,-2.23 -2.543,-2.334 0,0"
           style="fill:#dfb99a;fill-opacity:1;fill-rule:evenodd;stroke:none"
           id="path7128" />
      </g>
      <g
         id="g7130"
         transform="translate(427.5986,240.5761)">
        <path
           d="M 0,0 C -3.517,-6.002 -14.137,-7.055 -18.257,-4.549 -12.329,-4.415 -4.633,-3.057 0,0"
           style="fill:#be9370;fill-opacity:1;fill-rule:evenodd;stroke:none"
           id="path7132" />
      </g>
      <g
         id="g7134"
         transform="translate(419.9805,233.6116)">
        <path
           d="M 0,0 C -1.55,-2.045 -6.674,-2.014 -8.318,0 -5.92,-0.948 -2.397,-0.952 0,0"
           style="fill:#dfb99a;fill-opacity:1;fill-rule:evenodd;stroke:none"
           id="path7136" />
      </g>
      <g
         id="g7138"
         transform="translate(392.5426,251.2034)">
        <path
           d="M 0,0 C -1.035,-4.164 -2.491,-3.032 -3.012,-0.407 -3.534,2.218 -4.996,5.119 -6.998,5.612 -3.625,42.334 49.967,37.474 53.488,5.576 51.565,5.267 50.34,2.859 49.325,-0.407 48.31,-3.673 47.295,-5.499 46.635,-0.842 42.888,25.587 8.709,35.041 0,0"
           style="fill:#e7962e;fill-opacity:1;fill-rule:evenodd;stroke:none"
           id="path7140" />
      </g>
      <g
         id="g7142"
         transform="translate(415.586,286.3686)">
        <path
           d="m 0,0 c -20.979,-0.168 -26.02,-13.21 -29.126,-22.423 1.837,-2.448 2.702,-12.346 5.205,-14.996 7.298,16.762 27.843,35.06 49.794,12.967 2.719,2.884 1.564,0.444 3.456,3.096 C 25.654,-10.93 16.225,0.13 0,0"
           style="fill:#e7962e;fill-opacity:1;fill-rule:evenodd;stroke:none"
           id="path7144" />
      </g>
      <g
         id="g7146"
         transform="translate(403.1881,258.4494)">
        <path
           d="M 0,0 C 4.074,12.673 16.556,17.11 26.508,13.34 18.974,12.498 6.055,8.008 0,0"
           style="fill:#e7962e;fill-opacity:1;fill-rule:evenodd;stroke:none"
           id="path7148" />
      </g>
      <g
         id="g7150"
         transform="translate(424.311,240.3402)">
        <path
           d="M 0,0 C 1.505,1.346 5.145,0.673 5.606,-1.161 4.123,-0.187 1.749,0.308 0,0"
           style="fill:#dfb99a;fill-opacity:1;fill-rule:evenodd;stroke:none"
           id="path7152" />
      </g>
      <g
         id="g7154"
         transform="translate(386.8993,268.2252)"
         style="stroke:#458098;stroke-opacity:1">
        <path
           d="M 0,0 C 10.307,6.644 41.496,7.038 57.128,1.489 V 26.446 H 0 Z"
           style="fill:#ffffff;fill-opacity:1;fill-rule:evenodd;stroke:#458098;stroke-opacity:1"
           id="path7156" />
      </g>
      <g
         id="g7158"
         transform="translate(388.1004,310.6627)"
         style="fill:#458098;fill-opacity:1">
        <path
           d="m 0,0 c 11.003,0 19.924,-7.302 19.924,-16.309 0,-9.007 -8.921,-16.309 -19.924,-16.309 -11.004,0 -19.924,7.302 -19.924,16.309 C -19.924,-7.302 -11.004,0 0,0"
           style="fill:#458098;fill-opacity:1;fill-rule:evenodd;stroke:none"
           id="path7160" />
      </g>
      <g
         id="g7162"
         transform="translate(442.5375,311.5769)"
         style="fill:#458098;fill-opacity:1">
        <path
           d="m 0,0 c 10.153,0 18.384,-7.188 18.384,-16.056 0,-8.868 -8.231,-16.056 -18.384,-16.056 -10.153,0 -18.384,7.188 -18.384,16.056 C -18.384,-7.188 -10.153,0 0,0"
           style="fill:#458098;fill-opacity:1;fill-rule:evenodd;stroke:none"
           id="path7164" />
      </g>
      <g
         id="g7166"
         transform="translate(387.5173,310.6627)"
         style="stroke:none">
        <path
           d="m 0,0 c 8.87,0 16.061,-6.674 16.061,-14.908 0,-8.233 -7.191,-14.907 -16.061,-14.907 -8.871,0 -16.062,6.674 -16.062,14.907 C -16.062,-6.674 -8.871,0 0,0"
           style="fill:#ffffff;fill-opacity:1;fill-rule:evenodd;stroke:none;stroke-opacity:1"
           id="path7168" />
      </g>
      <g
         id="g7170"
         transform="translate(440.1578,311.2988)"
         style="stroke:none">
        <path
           d="m 0,0 c 8.838,0 16.004,-6.353 16.004,-14.19 0,-7.838 -7.166,-14.191 -16.004,-14.191 -8.839,0 -16.004,6.353 -16.004,14.191 C -16.004,-6.353 -8.839,0 0,0"
           style="fill:#ffffff;fill-opacity:1;fill-rule:evenodd;stroke:none;stroke-opacity:1"
           id="path7172" />
      </g>
      <g
         id="g7174"
         transform="translate(414.9944,318.719)"
         style="fill:#458098;fill-opacity:1;stroke:none;stroke-opacity:1">
        <path
           d="m 0,0 c 11.498,0 20.819,-8.269 20.819,-18.469 0,-10.201 -9.321,-18.47 -20.819,-18.47 -11.498,0 -20.819,8.269 -20.819,18.47 C -20.819,-8.269 -11.498,0 0,0"
           style="fill:#458098;fill-opacity:1;fill-rule:evenodd;stroke:none;stroke-opacity:1"
           id="path7176" />
      </g>
      <g
         id="g7178"
         transform="translate(412.6096,318.8123)"
         style="stroke:none">
        <path
           d="m 0,0 c 10.409,0 18.848,-7.333 18.848,-16.378 0,-9.045 -8.439,-16.378 -18.848,-16.378 -10.41,0 -18.848,7.333 -18.848,16.378 C -18.848,-7.333 -10.41,0 0,0"
           style="fill:#ffffff;fill-opacity:1;fill-rule:evenodd;stroke:#458098;stroke-width:0.15000001;stroke-miterlimit:4;stroke-dasharray:none;stroke-opacity:1"
           id="path7180" />
      </g>
      <g
         id="g7182"
         transform="translate(422.0796,260.0365)">
        <path
           d="M 0,0 C 2.014,1.258 5.459,0.477 7.223,-1.095 8.107,-1.884 7.363,-1.959 6.767,-1.514 4.841,-0.074 2.435,-0.074 0.442,-0.907 -0.615,-1.349 -1.119,-0.699 0,0"
           style="fill:#e7962e;fill-opacity:1;fill-rule:evenodd;stroke:none"
           id="path7184" />
      </g>
      <g
         id="g7186"
         transform="translate(410.1273,260.0359)">
        <path
           d="m 0,0 c -2.087,1.172 -5.481,0.246 -7.148,-1.398 -0.836,-0.825 -0.089,-0.87 0.48,-0.4 1.837,1.519 4.241,1.621 6.281,0.874 C 0.695,-1.321 1.159,-0.651 0,0"
           style="fill:#e7962e;fill-opacity:1;fill-rule:evenodd;stroke:none"
           id="path7188" />
      </g>
      <g
         id="g7190"
         transform="translate(463.4841,209.1673)">
        <path
           d="m 0,0 c 0,0 1.882,4.388 -0.708,5.723 -2.59,1.334 -1.499,-3.38 -2.838,-5.4 -1.339,-2.021 -1.897,-4.119 -0.95,-5.858 1.591,-2.918 5.929,-0.439 8.716,2.144 3.408,3.159 4.612,7.222 2.749,7.945 C 4.741,5.42 2.205,-0.779 0,0"
           style="fill:#fcd9bd;fill-opacity:1;fill-rule:evenodd;stroke:none"
           id="path7192" />
      </g>
      <g
         id="g7194"
         transform="translate(464.972,225.6185)">
        <path
           d="m 0,0 c 13.714,0 24.831,-4.98 24.831,-11.125 0,-6.143 -11.117,-11.124 -24.831,-11.124 -13.714,0 -24.831,4.981 -24.831,11.124 C -24.831,-4.98 -13.714,0 0,0"
           style="fill:#cde1f9;fill-opacity:1;fill-rule:evenodd;stroke:none"
           id="path7196" />
      </g>
      <g
         id="g7198"
         transform="translate(464.972,224.1944)">
        <path
           d="m 0,0 c 11.079,0 20.06,-4.023 20.06,-8.987 0,-4.964 -8.981,-8.988 -20.06,-8.988 -11.079,0 -20.061,4.024 -20.061,8.988 C -20.061,-4.023 -11.079,0 0,0"
           style="fill:#a9c2df;fill-opacity:1;fill-rule:evenodd;stroke:none"
           id="path7200" />
      </g>
      <g
         id="g7202"
         transform="translate(465.0536,207.8969)">
        <path
           d="m 0,0 c 8.562,0 15.545,3.653 15.545,8.133 0,4.479 -6.983,8.132 -15.545,8.132 -8.562,0 -15.545,-3.653 -15.545,-8.132 C -15.545,3.653 -8.562,0 0,0"
           style="fill:#fec666;fill-opacity:1;fill-rule:evenodd;stroke:none"
           id="path7204" />
      </g>
      <g
         id="g7206"
         transform="translate(445.0739,221.6735)">
        <path
           d="M 0,0 5.386,-8.451 C 17.46,-9.459 22.547,-9.455 34.623,-8.38 L 39.956,0 20.367,3.264 20.344,3.39 19.978,3.33 19.611,3.39 19.587,3.264 Z"
           style="fill:#fec666;fill-opacity:1;fill-rule:evenodd;stroke:none"
           id="path7208" />
      </g>
      <g
         id="g7210"
         transform="translate(465.0534,216.4892)">
        <path
           d="m 0,0 h 0.001 c 0.445,0 0.81,-0.365 0.81,-0.81 v -5.983 c 0,-0.446 -0.365,-0.81 -0.81,-0.81 H 0 c -0.446,0 -0.81,0.364 -0.81,0.81 V -0.81 C -0.81,-0.365 -0.446,0 0,0"
           style="fill:#f8a719;fill-opacity:1;fill-rule:evenodd;stroke:none"
           id="path7212" />
      </g>
      <g
         id="g7214"
         transform="translate(472.0076,216.8946)">
        <path
           d="m 0,0 h 0.001 c 0.445,0 0.72,-0.365 0.609,-0.811 l -1.486,-5.982 c -0.111,-0.446 -0.565,-0.81 -1.011,-0.81 h -10e-4 c -0.446,0 -0.72,0.364 -0.609,0.81 l 1.485,5.982 C -0.901,-0.365 -0.446,0 0,0"
           style="fill:#f8a719;fill-opacity:1;fill-rule:evenodd;stroke:none"
           id="path7216" />
      </g>
      <g
         id="g7218"
         transform="translate(478.2466,219.1238)">
        <path
           d="m 0,0 h 0.001 c 0.446,0 0.697,-0.365 0.56,-0.811 L -1.29,-6.793 c -0.137,-0.446 -0.615,-0.81 -1.061,-0.81 v 0 c -0.446,0 -0.698,0.364 -0.56,0.81 l 1.85,5.982 C -0.923,-0.365 -0.446,0 0,0"
           style="fill:#f8a719;fill-opacity:1;fill-rule:evenodd;stroke:none"
           id="path7220" />
      </g>
      <g
         id="g7222"
         transform="translate(457.9979,216.8946)">
        <path
           d="m 0,0 v 0 c -0.446,0 -0.72,-0.365 -0.61,-0.811 l 1.486,-5.982 c 0.11,-0.446 0.566,-0.81 1.012,-0.81 v 0 c 0.446,0 0.72,0.364 0.609,0.81 L 1.012,-0.811 C 0.901,-0.365 0.446,0 0,0"
           style="fill:#f8a719;fill-opacity:1;fill-rule:evenodd;stroke:none"
           id="path7224" />
      </g>
      <g
         id="g7226"
         transform="translate(451.7592,219.1238)">
        <path
           d="M 0,0 H -0.001 C -0.447,0 -0.698,-0.365 -0.56,-0.811 l 1.85,-5.982 c 0.137,-0.446 0.615,-0.81 1.061,-0.81 v 0 c 0.446,0 0.698,0.364 0.56,0.81 l -1.85,5.982 C 0.923,-0.365 0.446,0 0,0"
           style="fill:#f8a719;fill-opacity:1;fill-rule:evenodd;stroke:none"
           id="path7228" />
      </g>
      <g
         id="g7230"
         transform="translate(442.7169,224.3004)">
        <path
           d="m 0,0 c 0,6.422 10.061,11.023 22.337,11.023 12.275,0 22.336,-4.601 22.336,-11.023 0,-1.462 -1.185,-2.648 -2.647,-2.648 -0.038,0 -0.077,0.002 -0.115,0.003 0.249,-0.403 0.392,-0.878 0.392,-1.386 0,-1.462 -1.186,-2.647 -2.648,-2.647 -0.474,0 -0.919,0.125 -1.305,0.344 10e-4,-0.023 10e-4,-0.045 10e-4,-0.068 0,-1.461 -1.184,-2.647 -2.647,-2.647 -0.643,0 -1.233,0.23 -1.692,0.612 -0.277,-1.167 -1.325,-2.034 -2.575,-2.034 -0.741,0 -1.41,0.304 -1.891,0.794 -0.39,-0.974 -1.343,-1.662 -2.457,-1.662 -0.99,0 -1.852,0.542 -2.306,1.345 -0.398,-0.958 -1.344,-1.633 -2.446,-1.633 -1.103,0 -2.049,0.675 -2.446,1.633 -0.455,-0.803 -1.317,-1.345 -2.306,-1.345 -1.114,0 -2.067,0.688 -2.458,1.662 -0.48,-0.49 -1.15,-0.794 -1.89,-0.794 -1.251,0 -2.299,0.867 -2.576,2.034 -0.459,-0.382 -1.048,-0.612 -1.692,-0.612 -1.462,0 -2.647,1.186 -2.647,2.647 0,0.023 0,0.045 0,0.068 -0.385,-0.219 -0.83,-0.344 -1.304,-0.344 -1.462,0 -2.648,1.185 -2.648,2.647 0,0.508 0.144,0.983 0.392,1.386 C 2.724,-2.646 2.686,-2.648 2.647,-2.648 1.185,-2.648 0,-1.462 0,0"
           style="fill:#f8a719;fill-opacity:1;fill-rule:evenodd;stroke:none"
           id="path7232" />
      </g>
      <g
         id="g7234"
         transform="translate(442.7169,225.6681)">
        <path
           d="m 0,0 c 0.374,4.604 10.301,10.266 22.577,10.266 12.277,0 21.944,-5.591 22.096,-10.266 0.048,-1.462 -1.897,-2.647 -2.647,-2.647 -0.75,0 -0.077,10e-4 -0.115,0.002 0.249,-0.403 0.392,-0.878 0.392,-1.385 0,-1.462 -1.186,-2.648 -2.648,-2.648 -0.474,0 -0.919,0.125 -1.305,0.344 10e-4,-0.022 10e-4,-0.045 10e-4,-0.067 0,-1.462 -1.184,-2.647 -2.647,-2.647 -0.643,0 -1.233,0.229 -1.692,0.611 -0.277,-1.166 -1.325,-2.034 -2.575,-2.034 -0.741,0 -1.41,0.305 -1.891,0.794 -0.39,-0.974 -1.343,-1.662 -2.457,-1.662 -0.99,0 -1.852,0.542 -2.306,1.346 -0.398,-0.959 -1.344,-1.634 -2.446,-1.634 -1.103,0 -2.049,0.675 -2.446,1.634 -0.455,-0.804 -1.317,-1.346 -2.306,-1.346 -1.114,0 -2.067,0.688 -2.458,1.662 -0.48,-0.489 -1.15,-0.794 -1.89,-0.794 -1.251,0 -2.299,0.868 -2.576,2.034 -0.459,-0.382 -1.048,-0.611 -1.692,-0.611 -1.462,0 -2.647,1.185 -2.647,2.647 0,0.022 0,0.045 0,0.067 -0.385,-0.219 -0.83,-0.344 -1.304,-0.344 -1.462,0 -2.648,1.186 -2.648,2.648 0,0.507 0.144,0.982 0.392,1.385 C 2.724,-2.646 3.397,-2.647 2.647,-2.647 1.897,-2.647 -0.118,-1.457 0,0"
           style="fill:#fec666;fill-opacity:1;fill-rule:evenodd;stroke:none"
           id="path7236" />
      </g>
      <g
         id="g7238"
         transform="translate(465.0536,215.829)">
        <path
           d="M 0,0 C -1.653,0 -0.331,2.567 0,3.709 0.331,2.567 1.653,0 0,0"
           style="fill:#f8a719;fill-opacity:1;fill-rule:evenodd;stroke:none"
           id="path7240" />
      </g>
      <g
         id="g7242"
         transform="translate(460.3252,215.8857)">
        <path
           d="M 0,0 C -1.622,0.314 0.164,2.583 0.706,3.641 0.813,2.458 1.622,-0.314 0,0"
           style="fill:#f8a719;fill-opacity:1;fill-rule:evenodd;stroke:none"
           id="path7244" />
      </g>
      <g
         id="g7246"
         transform="translate(455.7991,216.8915)">
        <path
           d="M 0,0 C -1.556,0.555 0.552,2.529 1.247,3.493 1.174,2.307 1.556,-0.555 0,0"
           style="fill:#f8a719;fill-opacity:1;fill-rule:evenodd;stroke:none"
           id="path7248" />
      </g>
      <g
         id="g7250"
         transform="translate(451.2251,218.5514)">
        <path
           d="M 0,0 C -1.389,0.894 1.111,2.338 2.007,3.118 1.668,1.98 1.389,-0.894 0,0"
           style="fill:#f8a719;fill-opacity:1;fill-rule:evenodd;stroke:none"
           id="path7252" />
      </g>
      <g
         id="g7254"
         transform="translate(447.3456,221.4555)">
        <path
           d="M 0,0 C -1.259,1.07 1.411,2.17 2.402,2.825 1.915,1.742 1.259,-1.071 0,0"
           style="fill:#f8a719;fill-opacity:1;fill-rule:evenodd;stroke:none"
           id="path7256" />
      </g>
      <g
         id="g7258"
         transform="translate(444.8874,225.7285)">
        <path
           d="M 0,0 C -1.159,1.178 1.598,2.036 2.643,2.601 2.062,1.565 1.159,-1.178 0,0"
           style="fill:#f8a719;fill-opacity:1;fill-rule:evenodd;stroke:none"
           id="path7260" />
      </g>
      <g
         id="g7262"
         transform="translate(469.7368,215.8857)">
        <path
           d="M 0,0 C 1.622,0.314 -0.164,2.583 -0.705,3.641 -0.813,2.458 -1.622,-0.314 0,0"
           style="fill:#f8a719;fill-opacity:1;fill-rule:evenodd;stroke:none"
           id="path7264" />
      </g>
      <g
         id="g7266"
         transform="translate(474.2628,216.8915)">
        <path
           d="M 0,0 C 1.556,0.555 -0.552,2.529 -1.246,3.493 -1.174,2.307 -1.556,-0.555 0,0"
           style="fill:#f8a719;fill-opacity:1;fill-rule:evenodd;stroke:none"
           id="path7268" />
      </g>
      <g
         id="g7270"
         transform="translate(478.8371,218.5514)">
        <path
           d="M 0,0 C 1.389,0.894 -1.112,2.338 -2.007,3.118 -1.667,1.98 -1.389,-0.894 0,0"
           style="fill:#f8a719;fill-opacity:1;fill-rule:evenodd;stroke:none"
           id="path7272" />
      </g>
      <g
         id="g7274"
         transform="translate(482.7166,221.4555)">
        <path
           d="M 0,0 C 1.259,1.07 -1.411,2.17 -2.402,2.825 -1.915,1.742 -1.259,-1.071 0,0"
           style="fill:#f8a719;fill-opacity:1;fill-rule:evenodd;stroke:none"
           id="path7276" />
      </g>
      <g
         id="g7278"
         transform="translate(485.1748,225.7285)">
        <path
           d="M 0,0 C 1.159,1.178 -1.598,2.036 -2.643,2.601 -2.062,1.565 -1.159,-1.178 0,0"
           style="fill:#f8a719;fill-opacity:1;fill-rule:evenodd;stroke:none"
           id="path7280" />
      </g>
      <g
         id="g7282"
         transform="translate(400.8795,185.457)">
        <path
           d="M 0,0 C 3.186,0.696 4.686,0.427 4.976,-0.514 5.266,-1.454 3.13,-2.641 1.067,-2.488 -0.996,-2.336 -1.633,-0.715 0,0"
           style="fill:#dfb99a;fill-opacity:1;fill-rule:evenodd;stroke:none"
           id="path7284" />
      </g>
      <g
         id="g7286"
         transform="translate(427.3324,213.2305)">
        <path
           d="m 0,0 v 0 c -0.429,0.328 -1.047,0.245 -1.375,-0.183 l -26.34,-34.431 c -0.328,-0.429 -0.246,-1.047 0.182,-1.375 h 0.001 c 0.428,-0.327 1.046,-0.245 1.374,0.183 L 0.183,-1.374 C 0.511,-0.946 0.428,-0.328 0,0"
           style="fill:#458098;fill-opacity:1;fill-rule:evenodd;stroke:none"
           id="path7288" />
      </g>
      <g
         id="g7290"
         transform="translate(423.4399,204.2767)">
        <path
           d="M 0,0 -3.731,2.855 C -4.347,3.326 -5.235,3.207 -5.706,2.592 l -14.238,-18.611 c -0.471,-0.616 -0.353,-1.504 0.263,-1.976 l 3.731,-2.854 c 0.616,-0.471 1.504,-0.353 1.975,0.263 L 0.263,-1.975 C 0.734,-1.359 0.616,-0.471 0,0"
           style="fill:#6fa4bc;fill-opacity:1;fill-rule:evenodd;stroke:none"
           id="path7292" />
      </g>
      <g
         id="g7294"
         transform="translate(395.822,183.596)">
        <path
           d="m 0,0 c -3.726,-4.06 3.011,-10.529 5.457,-8.363 0.853,0.756 0.957,1.678 0.809,1.829 0.274,-0.11 1.112,-0.487 2.059,0.489 0.952,0.98 0.221,1.827 -0.063,2.081 0.386,-0.151 1.318,-0.547 2.225,0.471 C 12.221,-1.546 5.33,5.808 0,0"
           style="fill:#fcd9bd;fill-opacity:1;fill-rule:evenodd;stroke:none"
           id="path7296" />
      </g>
    </g>
  </g>
</svg>
