<?xml version="1.0" encoding="UTF-8" standalone="no"?>
<svg
   xmlns:dc="http://purl.org/dc/elements/1.1/"
   xmlns:cc="http://creativecommons.org/ns#"
   xmlns:rdf="http://www.w3.org/1999/02/22-rdf-syntax-ns#"
   xmlns:svg="http://www.w3.org/2000/svg"
   xmlns="http://www.w3.org/2000/svg"
   id="svg13091"
   version="1.1"
   viewBox="0 0 33.072918 39.68811"
   height="39.68811mm"
   width="33.072918mm">
  <defs
     id="defs13085" />
  <metadata
     id="metadata13088">
    <rdf:RDF>
      <cc:Work
         rdf:about="">
        <dc:format>image/svg+xml</dc:format>
        <dc:type
           rdf:resource="http://purl.org/dc/dcmitype/StillImage" />
        <dc:title></dc:title>
      </cc:Work>
    </rdf:RDF>
  </metadata>
  <g
     transform="translate(186.76936,80.539881)"
     id="layer1">
    <g
       id="g12909"
       transform="matrix(0.24841528,0,0,-0.24976203,-230.05942,42.27735)">
      <g
         id="g4614"
         transform="translate(270.6386,360.5709)">
        <path
           d="M 0,0 -12.301,-7.992 -1.203,-27.238 Z"
           style="fill:#ac462d;fill-opacity:1;fill-rule:nonzero;stroke:none"
           id="path4616" />
      </g>
      <g
         id="g4626"
         transform="translate(240.3079,400.7044)">
        <path
           d="M 0,0 4.1,-1.131 3.96,-1.056 C 3.786,-0.963 3.611,-0.872 3.432,-0.783 L 3.424,-0.779 C 3.248,-0.692 3.07,-0.608 2.89,-0.525 L 2.746,-0.458 C 2.563,-0.376 2.378,-0.295 2.19,-0.216 L 2.108,-0.183 C 1.94,-0.114 1.77,-0.046 1.598,0.02 L 1.448,0.077 C 1.253,0.15 1.056,0.222 0.855,0.29 L 0.75,0.326 C 0.573,0.385 0.395,0.443 0.214,0.499 L 0.065,0.545 0,0.565 C -0.187,0.621 -0.377,0.676 -0.57,0.728 L -0.691,0.76 c -0.19,0.051 -0.383,0.101 -0.578,0.148 l -0.13,0.031 C -1.624,0.992 -1.851,1.042 -2.082,1.09 l -0.136,0.028 c -0.205,0.041 -0.413,0.08 -0.623,0.117 l -0.124,0.022 c -0.238,0.041 -0.481,0.079 -0.726,0.115 l -0.141,0.019 c -0.232,0.033 -0.466,0.063 -0.703,0.09 L -4.613,1.49 c -0.251,0.028 -0.505,0.053 -0.761,0.075 l -0.198,0.016 -0.211,0.016 -0.01,0.001 0.01,-0.003 z"
           style="fill:#ac462d;fill-opacity:1;fill-rule:nonzero;stroke:none"
           id="path4628" />
      </g>
      <g
         id="g4650"
         transform="translate(280.4179,376.5226)">
        <path
           d="M 0,0 V 0.126 2.677 L -3.362,4.58 c -0.962,0.469 -1.893,0.997 -2.79,1.578 l -5.514,3.12 c -0.022,0 -0.043,-0.002 -0.065,-0.002 -3.479,0 -6.516,1.873 -8.171,4.663 l -15.61,8.833 0.046,-0.027 c 0.154,-0.091 0.306,-0.183 0.456,-0.276 l 0.12,-0.074 c 0.16,-0.101 0.318,-0.204 0.473,-0.308 l 0.047,-0.032 c 0.136,-0.092 0.27,-0.186 0.403,-0.281 l 0.136,-0.097 c 0.14,-0.103 0.279,-0.205 0.415,-0.31 l 0.099,-0.077 c 0.115,-0.09 0.229,-0.181 0.341,-0.272 l 0.108,-0.088 c 0.134,-0.111 0.266,-0.223 0.395,-0.336 l 0.097,-0.086 c 0.101,-0.09 0.202,-0.18 0.3,-0.271 l 0.114,-0.105 c 0.118,-0.111 0.233,-0.222 0.347,-0.334 l 0.115,-0.114 c 0.094,-0.095 0.188,-0.191 0.28,-0.287 l 0.08,-0.083 c 0.112,-0.117 0.221,-0.237 0.329,-0.356 l 0.104,-0.116 c 0.086,-0.097 0.17,-0.193 0.253,-0.29 l 0.08,-0.093 c 0.098,-0.117 0.195,-0.235 0.29,-0.352 l 0.108,-0.136 c 0.08,-0.101 0.159,-0.202 0.236,-0.304 l 0.069,-0.089 c 0.088,-0.118 0.175,-0.235 0.26,-0.353 l 0.107,-0.151 c 0.063,-0.089 0.125,-0.178 0.186,-0.266 l 0.137,-0.203 c 0.059,-0.088 0.118,-0.177 0.176,-0.266 l 0.1,-0.157 c 0.061,-0.096 0.122,-0.193 0.181,-0.289 l 0.127,-0.211 0.14,-0.236 0.108,-0.187 0.129,-0.232 c 0.055,-0.099 0.109,-0.197 0.162,-0.296 l 0.083,-0.158 0.121,-0.233 0.003,-0.005 0.149,-0.297 0.1,-0.208 0.079,-0.166 0.097,-0.208 0.004,-0.01 0.133,-0.294 0.008,-0.019 0.075,-0.174 0.083,-0.196 0.083,-0.196 c 0.039,-0.097 0.078,-0.193 0.116,-0.29 5.99,-1.807 9.722,-4.357 9.722,-7.184 0,-3.813 -6.796,-7.121 -16.759,-8.782 l 5.033,-8.727 16.787,10.25 c 1.489,0.91 2.947,1.1 4.251,0.8 H 0.116 C 0.092,-1.223 0.073,-1.077 0.057,-0.929 0.019,-0.624 0,-0.314 0,0"
           style="fill:#ac462d;fill-opacity:1;fill-rule:nonzero;stroke:none"
           id="path4652" />
      </g>
      <g
         id="g5322"
         transform="translate(284.955,362.2413)">
        <path
           d="M 0,0 C 3.676,0.839 7.352,1.677 11.029,2.516 12.141,0.923 6.759,-11.329 9.064,-22.351 5.388,-23.19 1.712,-24.028 -1.964,-24.867 -3.931,-8.049 -0.683,-0.384 0,0"
           style="fill:#285569;fill-opacity:1;fill-rule:evenodd;stroke:none"
           id="path5324" />
      </g>
      <g
         id="g5326"
         transform="translate(274.5107,376.6473)">
        <path
           d="m 0,0 19.995,-19.247 c 2.548,-2.452 6.637,-2.374 9.089,0.173 2.452,2.547 2.374,6.637 -0.173,9.089 L 8.916,9.262 C 3.107,14.854 -5.509,5.303 0,0"
           style="fill:#dda87e;fill-opacity:1;fill-rule:evenodd;stroke:none"
           id="path5328" />
      </g>
      <g
         id="g5330"
         transform="translate(244.7869,388.1126)"
         style="stroke:#458098;stroke-opacity:1">
        <path
           d="M 0,0 H 34.241 L 35.11,-54.779 H -2.419 Z"
           style="fill:#ffffff;fill-opacity:1;fill-rule:evenodd;stroke:#458098;stroke-opacity:1"
           id="path5332" />
      </g>
      <g
         id="g5334"
         transform="translate(261.9076,413.5623)"
         style="fill:#458098;fill-opacity:1">
        <path
           d="M 0,0 V 0 C 4.253,0 7.732,-3.479 7.732,-7.732 V -25.45 c 0,-4.252 -3.479,-7.732 -7.732,-7.732 -4.253,0 -7.733,3.48 -7.733,7.732 V -7.732 C -7.733,-3.479 -4.253,0 0,0"
           style="fill:#458098;fill-opacity:1;fill-rule:evenodd;stroke:none"
           id="path5336" />
      </g>
      <g
         id="g5338"
         transform="translate(261.7815,414.9286)">
        <path
           d="M 0,0 V 0 C 4.322,0 7.859,-3.48 7.859,-7.733 V -25.45 c 0,-4.253 -3.537,-7.733 -7.859,-7.733 -4.322,0 -7.859,3.48 -7.859,7.733 V -7.733 C -7.859,-3.48 -4.322,0 0,0"
           style="fill:#dda87e;fill-opacity:1;fill-rule:evenodd;stroke:none"
           id="path5340" />
      </g>
      <g
         id="g5342"
         transform="translate(269.64,393.8785)">
        <path
           d="M 0,0 V 0 C 0,-6.641 -15.718,-6.641 -15.718,0 -15.718,6.642 0,6.642 0,0"
           style="fill:#b9875f;fill-opacity:1;fill-rule:evenodd;stroke:none"
           id="path5344" />
      </g>
      <g
         id="g5346"
         transform="translate(248.6219,376.437)"
         style="stroke:#458098;stroke-opacity:1">
        <path
           d="m 0,0 -23.956,-15.564 c -2.939,-1.909 -6.456,0.352 -8.283,3.343 -1.826,2.992 -0.874,6.933 2.118,8.76 l 23.48,14.337 C 0.18,15.042 6.356,4.129 0,0"
           style="fill:#ffffff;fill-opacity:1;fill-rule:evenodd;stroke:#458098;stroke-opacity:1"
           id="path5348" />
      </g>
      <g
         id="g5350"
         transform="translate(202.8787,378.885)">
        <path
           d="m 0,0 10.326,-18.642 c 2.309,-2.675 5.741,-4.012 8.387,-1.667 2.645,2.345 3.579,7.55 1.234,10.195 L 6.63,3.424 Z"
           style="fill:#dda87e;fill-opacity:1;fill-rule:evenodd;stroke:none"
           id="path5352" />
      </g>
      <g
         id="g5354"
         transform="translate(226.8932,362.2226)">
        <path
           d="m 0,0 -2.804,13.987 -5.174,-3.076 3.059,-14.04 z"
           style="fill:#cde1f9;fill-opacity:1;fill-rule:evenodd;stroke:none"
           id="path5356" />
      </g>
      <g
         id="g5358"
         transform="translate(226.417,360.9969)"
         style="stroke:#458098;stroke-opacity:1">
        <path
           d="M 0,0 -3.175,16.222 -8.158,13.073 -4.937,-3.1 Z"
           style="fill:#ffffff;fill-opacity:1;fill-rule:evenodd;stroke:#458098;stroke-opacity:1"
           id="path5360" />
      </g>
      <g
         id="g5362"
         transform="translate(274.9901,376.1864)"
         style="stroke:#458098;stroke-opacity:1">
        <path
           d="M 0,0 16.214,-16.057 28.312,-9.017 9.947,9.591 C 3.43,16.194 -7.391,7.968 0,0"
           style="fill:#ffffff;fill-opacity:1;fill-rule:evenodd;stroke:#458098;stroke-opacity:1"
           id="path5364" />
      </g>
      <g
         id="g5366"
         transform="translate(299.2776,371.2966)">
        <path
           d="m 0,0 -13.146,-6.143 3.964,-4.56 13.019,6.439 z"
           style="fill:#e5e5e5;fill-opacity:1;fill-rule:evenodd;stroke:none"
           id="path5368" />
      </g>
      <g
         id="g5370"
         transform="translate(300.34,370.9794)"
         style="stroke:#458098;stroke-opacity:1">
        <path
           d="m 0,0 -14.2,-6.992 4.08,-4.392 14.096,7.12 z"
           style="fill:#ffffff;fill-opacity:1;fill-rule:evenodd;stroke:#458098;stroke-opacity:1"
           id="path5372" />
      </g>
      <g
         id="g5374"
         transform="translate(260.7653,381.8664)"
         style="stroke:#458098;stroke-opacity:1">
        <path
           d="m 0,0 c -3.563,0.41 -6.843,2.99 -6.843,7.739 v 2.875 C -6.146,6.748 -3.182,4.563 0,4.16 Z M 8.875,10.614 V 7.739 C 8.875,2.99 5.595,0.411 2.032,0 v 4.145 c 3.155,0.354 6.099,2.476 6.843,6.469"
           style="fill:#ffffff;fill-opacity:1;fill-rule:evenodd;stroke:#458098;stroke-opacity:1"
           id="path5376" />
      </g>
      <g
         id="g5378"
         transform="translate(267.0006,333.3333)"
         style="stroke:#458098;stroke-opacity:1">
        <path
           d="M 0,0 4.477,47.019 H 5.4 L 1.65,0 Z"
           style="fill:#cde1f9;fill-opacity:1;fill-rule:evenodd;stroke:#458098;stroke-opacity:1"
           id="path5380" />
      </g>
      <path
         d="M 261.908,381.205 H 272.4 v -0.826 h -10.492 z"
         style="fill:#458098;fill-opacity:1;fill-rule:evenodd;stroke:none"
         id="path5382" />
      <g
         id="g5384"
         transform="translate(268.0602,375.3677)">
        <path
           d="M 0,0 C 0.602,0.007 1.095,-0.475 1.102,-1.076 1.109,-1.678 0.627,-2.172 0.026,-2.178 -0.576,-2.185 -1.069,-1.704 -1.077,-1.102 -1.083,-0.5 -0.601,-0.007 0,0"
           style="fill:#b2b2b2;fill-opacity:1;fill-rule:evenodd;stroke:none"
           id="path5386" />
      </g>
      <g
         id="g5388"
         transform="translate(267.042,360.7971)">
        <path
           d="M 0,0 C 0.602,0.007 1.095,-0.475 1.102,-1.077 1.109,-1.678 0.627,-2.171 0.026,-2.178 -0.576,-2.186 -1.069,-1.704 -1.076,-1.102 -1.083,-0.501 -0.602,-0.007 0,0"
           style="fill:#b2b2b2;fill-opacity:1;fill-rule:evenodd;stroke:none"
           id="path5390" />
      </g>
      <g
         id="g5392"
         transform="translate(266.3866,349.1025)">
        <path
           d="M 0,0 C 0.601,0.007 1.095,-0.475 1.102,-1.077 1.109,-1.678 0.627,-2.171 0.025,-2.178 -0.576,-2.185 -1.069,-1.703 -1.077,-1.102 -1.084,-0.5 -0.602,-0.007 0,0"
           style="fill:#b2b2b2;fill-opacity:1;fill-rule:evenodd;stroke:none"
           id="path5394" />
      </g>
      <g
         id="g5396"
         transform="translate(265.6318,337.407)">
        <path
           d="M 0,0 C 0.602,0.007 1.094,-0.475 1.102,-1.076 1.109,-1.678 0.627,-2.171 0.025,-2.178 -0.576,-2.185 -1.07,-1.703 -1.077,-1.102 -1.084,-0.501 -0.602,-0.007 0,0"
           style="fill:#b2b2b2;fill-opacity:1;fill-rule:evenodd;stroke:none"
           id="path5398" />
      </g>
      <g
         id="g5400"
         transform="translate(279.5377,356.0096)">
        <path
           d="m 0,0 0.139,-8.766 -6.158,2.56 0.571,7.117 z"
           style="fill:#ffffff;fill-opacity:1;fill-rule:evenodd;stroke:none"
           id="path5402" />
      </g>
      <g
         id="g5404"
         transform="translate(242.191,417.7556)">
        <path
           d="m 0,0 c -5.247,0 -9.5,-4.253 -9.5,-9.501 0,-5.246 4.253,-9.5 9.5,-9.5 5.247,0 9.501,4.254 9.501,9.5 C 9.501,-4.253 5.247,0 0,0"
           style="fill:#6b503f;fill-opacity:1;fill-rule:evenodd;stroke:none"
           id="path5406" />
      </g>
      <g
         id="g5408"
         transform="translate(279.3736,417.4398)">
        <path
           d="m 0,0 c -5.247,0 -9.5,-4.253 -9.5,-9.5 0,-5.247 4.253,-9.501 9.5,-9.501 5.247,0 9.501,4.254 9.501,9.501 C 9.501,-4.253 5.247,0 0,0"
           style="fill:#6b503f;fill-opacity:1;fill-rule:evenodd;stroke:none"
           id="path5410" />
      </g>
      <g
         id="g5412"
         transform="translate(235.1537,424.9542)">
        <path
           d="m 0,0 c -5.247,0 -9.501,-4.254 -9.501,-9.501 0,-5.246 4.254,-9.5 9.501,-9.5 5.247,0 9.501,4.254 9.501,9.5 C 9.501,-4.254 5.247,0 0,0"
           style="fill:#6b503f;fill-opacity:1;fill-rule:evenodd;stroke:none"
           id="path5414" />
      </g>
      <g
         id="g5416"
         transform="translate(285.4831,425.6226)">
        <path
           d="m 0,0 c -5.247,0 -9.501,-4.253 -9.501,-9.5 0,-5.247 4.254,-9.501 9.501,-9.501 5.247,0 9.501,4.254 9.501,9.501 C 9.501,-4.253 5.247,0 0,0"
           style="fill:#6b503f;fill-opacity:1;fill-rule:evenodd;stroke:none"
           id="path5418" />
      </g>
      <g
         id="g5420"
         transform="translate(233.7902,434.0313)">
        <path
           d="m 0,0 c -5.247,0 -9.501,-4.254 -9.501,-9.501 0,-5.247 4.254,-9.5 9.501,-9.5 5.247,0 9.5,4.253 9.5,9.5 C 9.5,-4.254 5.247,0 0,0"
           style="fill:#6b503f;fill-opacity:1;fill-rule:evenodd;stroke:none"
           id="path5422" />
      </g>
      <g
         id="g5424"
         transform="translate(286.8619,435.505)">
        <path
           d="m 0,0 c -5.247,0 -9.5,-4.254 -9.5,-9.501 0,-5.247 4.253,-9.5 9.5,-9.5 5.247,0 9.501,4.253 9.501,9.5 C 9.501,-4.254 5.247,0 0,0"
           style="fill:#6b503f;fill-opacity:1;fill-rule:evenodd;stroke:none"
           id="path5426" />
      </g>
      <g
         id="g5428"
         transform="translate(261.6993,456.6387)">
        <path
           d="M 0,0 C 44.891,0 34.075,-65.157 0,-65.157 -34.075,-65.157 -44.892,0 0,0"
           style="fill:#dda87e;fill-opacity:1;fill-rule:evenodd;stroke:none"
           id="path5430" />
      </g>
      <g
         id="g5432"
         transform="translate(292.8875,427.9493)">
        <path
           d="m 0,0 c -2.267,0.579 -5.022,-2.54 -6.152,-6.967 -1.13,-4.426 -0.209,-8.484 2.059,-9.063 2.267,-0.579 5.021,2.54 6.151,6.966 C 3.189,-4.637 2.267,-0.579 0,0"
           style="fill:#dda87e;fill-opacity:1;fill-rule:evenodd;stroke:none"
           id="path5434" />
      </g>
      <g
         id="g5436"
         transform="translate(230.4867,427.9493)">
        <path
           d="m 0,0 c 2.267,0.579 5.022,-2.54 6.152,-6.967 1.13,-4.426 0.209,-8.484 -2.059,-9.063 -2.266,-0.579 -5.021,2.54 -6.151,6.966 C -3.189,-4.637 -2.267,-0.579 0,0"
           style="fill:#dda87e;fill-opacity:1;fill-rule:evenodd;stroke:none"
           id="path5438" />
      </g>
      <g
         id="g5440"
         transform="translate(252.3858,425.6997)">
        <path
           d="m 0,0 c -1.194,0 -2.162,-1.774 -2.162,-3.962 0,-2.188 0.968,-3.962 2.162,-3.962 1.194,0 2.162,1.774 2.162,3.962 C 2.162,-1.774 1.194,0 0,0"
           style="fill:#425156;fill-opacity:1;fill-rule:evenodd;stroke:none"
           id="path5442" />
      </g>
      <g
         id="g5444"
         transform="translate(271.0122,425.6997)">
        <path
           d="m 0,0 c -1.194,0 -2.162,-1.774 -2.162,-3.962 0,-2.188 0.968,-3.962 2.162,-3.962 1.194,0 2.162,1.774 2.162,3.962 C 2.162,-1.774 1.194,0 0,0"
           style="fill:#425156;fill-opacity:1;fill-rule:evenodd;stroke:none"
           id="path5446" />
      </g>
      <g
         id="g5448"
         transform="translate(250.452,404.8177)">
        <path
           d="M 0,0 C 5.238,-1.49 16.485,-1.767 22.494,0 Z"
           style="fill:#a07049;fill-opacity:1;fill-rule:evenodd;stroke:none"
           id="path5450" />
      </g>
      <g
         id="g5452"
         transform="translate(257.3257,413.2944)">
        <path
           d="M 0,0 C 1.679,-4.279 7.068,-4.204 8.747,0 6.289,-2.338 2.591,-2.446 0,0"
           style="fill:#b9875f;fill-opacity:1;fill-rule:evenodd;stroke:none"
           id="path5454" />
      </g>
      <g
         id="g5456"
         transform="translate(256.4733,402.535)">
        <path
           d="M 0,0 C 1.947,-2.643 8.386,-2.603 10.451,0 7.439,-1.226 3.012,-1.231 0,0"
           style="fill:#b9875f;fill-opacity:1;fill-rule:evenodd;stroke:none"
           id="path5458" />
      </g>
      <g
         id="g5460"
         transform="translate(270.2043,431.0368)">
        <path
           d="M 0,0 C 2.014,1.258 5.459,0.477 7.223,-1.095 8.107,-1.884 7.363,-1.959 6.767,-1.514 4.841,-0.074 2.435,-0.074 0.442,-0.907 -0.615,-1.349 -1.119,-0.699 0,0"
           style="fill:#6b503f;fill-opacity:1;fill-rule:evenodd;stroke:none"
           id="path5462" />
      </g>
      <g
         id="g5464"
         transform="translate(253.612,431.0362)">
        <path
           d="m 0,0 c -2.087,1.172 -5.481,0.246 -7.148,-1.398 -0.836,-0.825 -0.089,-0.87 0.48,-0.4 1.837,1.519 4.241,1.621 6.281,0.874 C 0.695,-1.321 1.159,-0.651 0,0"
           style="fill:#6b503f;fill-opacity:1;fill-rule:evenodd;stroke:none"
           id="path5466" />
      </g>
      <g
         id="g5468"
         transform="translate(242.3891,455.6055)">
        <path
           d="m 0,0 c -5.247,0 -9.501,-4.253 -9.501,-9.501 0,-5.246 4.254,-9.5 9.501,-9.5 5.247,0 9.5,4.254 9.5,9.5 C 9.5,-4.253 5.247,0 0,0"
           style="fill:#6b503f;fill-opacity:1;fill-rule:evenodd;stroke:none"
           id="path5470" />
      </g>
      <g
         id="g5472"
         transform="translate(251.7261,459.7826)">
        <path
           d="m 0,0 c -5.247,0 -9.501,-4.253 -9.501,-9.501 0,-5.246 4.254,-9.5 9.501,-9.5 5.247,0 9.5,4.254 9.5,9.5 C 9.5,-4.253 5.247,0 0,0"
           style="fill:#6b503f;fill-opacity:1;fill-rule:evenodd;stroke:none"
           id="path5474" />
      </g>
      <g
         id="g5476"
         transform="translate(265.9768,461.2569)">
        <path
           d="m 0,0 c -5.247,0 -9.5,-4.254 -9.5,-9.501 0,-5.246 4.253,-9.5 9.5,-9.5 5.247,0 9.501,4.254 9.501,9.5 C 9.501,-4.254 5.247,0 0,0"
           style="fill:#6b503f;fill-opacity:1;fill-rule:evenodd;stroke:none"
           id="path5478" />
      </g>
      <g
         id="g5480"
         transform="translate(278.7534,456.5883)">
        <path
           d="m 0,0 c -5.247,0 -9.5,-4.253 -9.5,-9.501 0,-5.246 4.253,-9.5 9.5,-9.5 5.247,0 9.501,4.254 9.501,9.5 C 9.501,-4.253 5.247,0 0,0"
           style="fill:#6b503f;fill-opacity:1;fill-rule:evenodd;stroke:none"
           id="path5482" />
      </g>
      <g
         id="g5484"
         transform="translate(286.1246,446.0227)">
        <path
           d="m 0,0 c -5.247,0 -9.5,-4.254 -9.5,-9.5 0,-5.248 4.253,-9.501 9.5,-9.501 5.247,0 9.501,4.253 9.501,9.501 C 9.501,-4.254 5.247,0 0,0"
           style="fill:#6b503f;fill-opacity:1;fill-rule:evenodd;stroke:none"
           id="path5486" />
      </g>
      <g
         id="g5488"
         transform="translate(234.2812,445.7772)">
        <path
           d="m 0,0 c -5.247,0 -9.501,-4.253 -9.501,-9.501 0,-5.247 4.254,-9.5 9.501,-9.5 5.247,0 9.501,4.253 9.501,9.5 C 9.501,-4.253 5.247,0 0,0"
           style="fill:#6b503f;fill-opacity:1;fill-rule:evenodd;stroke:none"
           id="path5490" />
      </g>
      <g
         id="g5492"
         transform="translate(263.2739,455.9907)">
        <path
           d="m 0,0 c -5.247,0 -9.5,-4.253 -9.5,-9.501 0,-5.246 4.253,-9.5 9.5,-9.5 5.247,0 9.501,4.254 9.501,9.5 C 9.501,-4.253 5.247,0 0,0"
           style="fill:#6b503f;fill-opacity:1;fill-rule:evenodd;stroke:none"
           id="path5494" />
      </g>
      <g
         id="g5496"
         transform="translate(250.2516,455.1616)">
        <path
           d="m 0,0 c -5.247,0 -9.501,-4.253 -9.501,-9.501 0,-5.246 4.254,-9.5 9.501,-9.5 5.247,0 9.5,4.254 9.5,9.5 C 9.5,-4.253 5.247,0 0,0"
           style="fill:#6b503f;fill-opacity:1;fill-rule:evenodd;stroke:none"
           id="path5498" />
      </g>
      <g
         id="g5500"
         transform="translate(276.6537,454.3628)">
        <path
           d="m 0,0 c -5.247,0 -9.501,-4.254 -9.501,-9.501 0,-5.246 4.254,-9.5 9.501,-9.5 5.247,0 9.5,4.254 9.5,9.5 C 9.5,-4.254 5.247,0 0,0"
           style="fill:#6b503f;fill-opacity:1;fill-rule:evenodd;stroke:none"
           id="path5502" />
      </g>
      <g
         id="g5504"
         transform="translate(276.6537,454.3628)">
        <path
           d="m 0,0 c -5.247,0 -9.501,-4.254 -9.501,-9.501 0,-5.246 4.254,-9.5 9.501,-9.5 5.247,0 9.5,4.254 9.5,9.5 C 9.5,-4.254 5.247,0 0,0 Z"
           style="fill:none;stroke:#6b503f;stroke-width:0.21600001;stroke-linecap:butt;stroke-linejoin:miter;stroke-miterlimit:22.9260006;stroke-dasharray:none;stroke-opacity:1"
           id="path5506" />
      </g>
      <g
         id="g5508"
         transform="translate(283.3937,447.5599)">
        <path
           d="m 0,0 c -4.464,0 -8.082,-3.618 -8.082,-8.082 0,-4.463 3.618,-8.082 8.082,-8.082 4.463,0 8.081,3.619 8.081,8.082 C 8.081,-3.618 4.463,0 0,0"
           style="fill:#6b503f;fill-opacity:1;fill-rule:evenodd;stroke:none"
           id="path5510" />
      </g>
      <g
         id="g5512"
         transform="translate(240.1585,451.4105)">
        <path
           d="m 0,0 c -5.247,0 -9.5,-4.254 -9.5,-9.501 0,-5.247 4.253,-9.5 9.5,-9.5 5.247,0 9.501,4.253 9.501,9.5 C 9.501,-4.254 5.247,0 0,0"
           style="fill:#6b503f;fill-opacity:1;fill-rule:evenodd;stroke:none"
           id="path5514" />
      </g>
      <g
         id="g5516"
         transform="translate(234.5916,437.72)">
        <path
           d="m 0,0 c -3.701,0 -6.701,-3.001 -6.701,-6.702 0,-3.701 3,-6.701 6.701,-6.701 3.701,0 6.702,3 6.702,6.701 C 6.702,-3.001 3.701,0 0,0"
           style="fill:#6b503f;fill-opacity:1;fill-rule:evenodd;stroke:none"
           id="path5518" />
      </g>
      <g
         id="g5520"
         transform="translate(287.1983,437.3212)">
        <path
           d="m 0,0 c -3.582,0 -6.485,-2.904 -6.485,-6.485 0,-3.581 2.903,-6.485 6.485,-6.485 3.581,0 6.485,2.904 6.485,6.485 C 6.485,-2.904 3.581,0 0,0"
           style="fill:#6b503f;fill-opacity:1;fill-rule:evenodd;stroke:none"
           id="path5522" />
      </g>
      <g
         id="g5524"
         transform="translate(286.0733,427.4045)">
        <path
           d="m 0,0 c -2.292,0 -4.151,-1.858 -4.151,-4.15 0,-2.292 1.859,-4.151 4.151,-4.151 2.293,0 4.15,1.859 4.15,4.151 C 4.15,-1.858 2.293,0 0,0"
           style="fill:#6b503f;fill-opacity:1;fill-rule:evenodd;stroke:none"
           id="path5526" />
      </g>
      <g
         id="g5528"
         transform="translate(233.8993,427.9033)">
        <path
           d="m 0,0 c -2.292,0 -4.15,-1.858 -4.15,-4.15 0,-2.292 1.858,-4.15 4.15,-4.15 2.292,0 4.15,1.858 4.15,4.15 C 4.15,-1.858 2.292,0 0,0"
           style="fill:#6b503f;fill-opacity:1;fill-rule:evenodd;stroke:none"
           id="path5530" />
      </g>
      <g
         id="g5532"
         transform="translate(285.0862,420.2716)">
        <path
           d="m 0,0 c -1.613,0 -2.922,-1.308 -2.922,-2.922 0,-1.614 1.309,-2.922 2.922,-2.922 1.614,0 2.923,1.308 2.923,2.922 C 2.923,-1.308 1.614,0 0,0"
           style="fill:#6b503f;fill-opacity:1;fill-rule:evenodd;stroke:none"
           id="path5534" />
      </g>
      <g
         id="g5536"
         transform="translate(235.6968,421.3222)">
        <path
           d="m 0,0 c -1.614,0 -2.922,-1.309 -2.922,-2.922 0,-1.614 1.308,-2.922 2.922,-2.922 1.613,0 2.922,1.308 2.922,2.922 C 2.922,-1.309 1.613,0 0,0"
           style="fill:#6b503f;fill-opacity:1;fill-rule:evenodd;stroke:none"
           id="path5538" />
      </g>
      <g
         id="g5540"
         transform="translate(282.7134,444.9501)">
        <path
           d="m 0,0 c -6.184,6.794 -27.001,0.879 -39.499,4.1 -9.91,2.553 -10.943,9.691 -6.747,16.507 C -39.541,10.935 -1.198,24.822 0,0"
           style="fill:#6b503f;fill-opacity:1;fill-rule:evenodd;stroke:none"
           id="path5542" />
      </g>
      <g
         id="g5544"
         transform="translate(230.8189,439.6654)"
         style="stroke:#458098;stroke-opacity:1">
        <path
           d="m 0,0 c 10.527,6.786 42.381,7.189 58.347,1.521 v 25.49 H 0 Z"
           style="fill:#ffffff;fill-opacity:1;fill-rule:evenodd;stroke:#458098;stroke-opacity:1"
           id="path5546" />
      </g>
      <g
         id="g5548"
         transform="translate(232.0455,483.008)"
         style="fill:#458098;fill-opacity:1;stroke:none;stroke-opacity:1">
        <path
           d="m 0,0 c 11.238,0 20.349,-7.457 20.349,-16.656 0,-9.2 -9.111,-16.658 -20.349,-16.658 -11.239,0 -20.349,7.458 -20.349,16.658 C -20.349,-7.457 -11.239,0 0,0"
           style="fill:#458098;fill-opacity:1;fill-rule:evenodd;stroke:none;stroke-opacity:1"
           id="path5550" />
      </g>
      <g
         id="g5552"
         transform="translate(287.6439,483.9423)"
         style="fill:#458098;fill-opacity:1;stroke:#458098;stroke-opacity:1">
        <path
           d="m 0,0 c 10.37,0 18.776,-7.342 18.776,-16.399 0,-9.057 -8.406,-16.398 -18.776,-16.398 -10.369,0 -18.776,7.341 -18.776,16.398 C -18.776,-7.342 -10.369,0 0,0"
           style="fill:#458098;fill-opacity:1;fill-rule:evenodd;stroke:#458098;stroke-opacity:1"
           id="path5554" />
      </g>
      <g
         id="g5556"
         transform="translate(229.8421,483.008)"
         style="stroke:#458098;stroke-opacity:1">
        <path
           d="m 0,0 c 9.947,0 18.011,-6.816 18.011,-15.225 0,-8.409 -8.064,-15.226 -18.011,-15.226 -9.947,0 -18.012,6.817 -18.012,15.226 C -18.012,-6.816 -9.947,0 0,0"
           style="fill:#ffffff;fill-opacity:1;fill-rule:evenodd;stroke:#458098;stroke-opacity:1"
           id="path5558" />
      </g>
      <g
         id="g5560"
         transform="translate(285.2135,483.6583)">
        <path
           d="m 0,0 c 9.027,0 16.345,-6.489 16.345,-14.494 0,-8.004 -7.318,-14.493 -16.345,-14.493 -9.027,0 -16.346,6.489 -16.346,14.493 C -16.346,-6.489 -9.027,0 0,0"
           style="fill:#ffffff;fill-opacity:1;fill-rule:evenodd;stroke:none"
           id="path5562" />
      </g>
      <g
         id="g5564"
         transform="translate(259.5135,491.237)"
         style="fill:#458098;fill-opacity:1;stroke:#458098;stroke-opacity:1">
        <path
           d="m 0,0 c 11.743,0 21.263,-8.446 21.263,-18.864 0,-10.418 -9.52,-18.863 -21.263,-18.863 -11.743,0 -21.263,8.445 -21.263,18.863 C -21.263,-8.446 -11.743,0 0,0"
           style="fill:#458098;fill-opacity:1;fill-rule:evenodd;stroke:#458098;stroke-opacity:1"
           id="path5566" />
      </g>
      <g
         id="g5568"
         transform="translate(257.0774,491.3317)"
         style="stroke:none;stroke-opacity:1">
        <path
           d="m 0,0 c 10.632,0 19.25,-7.489 19.25,-16.728 0,-9.238 -8.618,-16.726 -19.25,-16.726 -10.632,0 -19.251,7.488 -19.251,16.726 C -19.251,-7.489 -10.632,0 0,0"
           style="fill:#ffffff;fill-opacity:1;fill-rule:evenodd;stroke:none;stroke-opacity:1"
           id="path5570" />
      </g>
      <g
         id="g5572"
         transform="translate(284.032,359.9002)">
        <path
           d="m 0,0 c 2.4,-3.422 -1.464,-8.568 -4.772,-12.018 -3.103,-3.234 -5.618,-4.387 -6.547,-3.091 -0.93,1.297 -0.145,2.999 1.924,5.513 -2.802,-1.597 -5.372,-3.814 -6.678,-2.122 -1.678,2.174 2.286,4.648 4.538,6.016 -2.369,-1.436 -6.666,-2.175 -7.105,-0.123 -0.707,3.299 8.655,3.811 8.655,3.811 0,0 -4.759,0.373 -4.815,4.036 -0.057,3.663 4.645,-0.199 7.669,0.181 C -4.106,2.583 -1.43,2.04 0,0"
           style="fill:#dda87e;fill-opacity:1;fill-rule:evenodd;stroke:none"
           id="path5574" />
      </g>
      <g
         id="g5576"
         transform="translate(281.8754,361.0808)">
        <path
           d="m 0,0 18.4,4.956 c 3.51,0.415 6.695,-2.208 7.063,-5.724 0.368,-3.516 -0.875,-5.343 -4.39,-5.711 L -0.122,-9.911 Z"
           style="fill:#dda87e;fill-opacity:1;fill-rule:evenodd;stroke:none"
           id="path5578" />
      </g>
      <g
         id="g5580"
         transform="translate(284.955,362.2413)">
        <path
           d="m 0,0 c 3.676,0.839 7.352,1.677 11.029,2.516 3.117,-1.818 2.213,-15.5 1.343,-26.211 C 8.696,-24.534 5.02,-25.372 1.344,-26.211 2.306,-16.182 2.853,-5.041 0,0"
           style="fill:#458098;fill-opacity:1;fill-rule:evenodd;stroke:none"
           id="path5582" />
      </g>
      <g
         id="g5584"
         transform="translate(277.9392,447.8902)">
        <path
           d="m 0,0 c -2.292,0 -4.15,-1.858 -4.15,-4.15 0,-2.292 1.858,-4.151 4.15,-4.151 2.293,0 4.15,1.859 4.15,4.151 C 4.15,-1.858 2.293,0 0,0"
           style="fill:#6b503f;fill-opacity:1;fill-rule:evenodd;stroke:none"
           id="path5586" />
      </g>
      <g
         id="g5588"
         transform="translate(271.4621,447.5888)">
        <path
           d="m 0,0 c -2.292,0 -4.151,-1.858 -4.151,-4.15 0,-2.292 1.859,-4.151 4.151,-4.151 2.293,0 4.15,1.859 4.15,4.151 C 4.15,-1.858 2.293,0 0,0"
           style="fill:#6b503f;fill-opacity:1;fill-rule:evenodd;stroke:none"
           id="path5590" />
      </g>
      <g
         id="g5592"
         transform="translate(238.2967,444.9566)">
        <path
           d="m 0,0 c -2.292,0 -4.15,-1.858 -4.15,-4.15 0,-2.292 1.858,-4.151 4.15,-4.151 2.293,0 4.15,1.859 4.15,4.151 C 4.15,-1.858 2.293,0 0,0"
           style="fill:#6b503f;fill-opacity:1;fill-rule:evenodd;stroke:none"
           id="path5594" />
      </g>
      <g
         id="g5596"
         transform="translate(243.5777,448.2907)">
        <path
           d="m 0,0 c -2.398,0 -4.343,-1.944 -4.343,-4.342 0,-2.398 1.945,-4.343 4.343,-4.343 2.399,0 4.342,1.945 4.342,4.343 C 4.342,-1.944 2.399,0 0,0"
           style="fill:#6b503f;fill-opacity:1;fill-rule:evenodd;stroke:none"
           id="path5598" />
      </g>
      <g
         id="g5600"
         transform="translate(259.4112,450.5128)">
        <path
           d="m 0,0 c -2.398,0 -4.343,-1.944 -4.343,-4.342 0,-2.399 1.945,-4.343 4.343,-4.343 2.399,0 4.342,1.944 4.342,4.343 C 4.342,-1.944 2.399,0 0,0"
           style="fill:#6b503f;fill-opacity:1;fill-rule:evenodd;stroke:none"
           id="path5602" />
      </g>
      <g
         id="g5604"
         transform="translate(266.0462,449.1159)">
        <path
           d="m 0,0 c -2.398,0 -4.343,-1.944 -4.343,-4.342 0,-2.399 1.945,-4.343 4.343,-4.343 2.399,0 4.342,1.944 4.342,4.343 C 4.342,-1.944 2.399,0 0,0"
           style="fill:#6b503f;fill-opacity:1;fill-rule:evenodd;stroke:none"
           id="path5606" />
      </g>
      <g
         id="g5608"
         transform="translate(251.2049,448.592)">
        <path
           d="m 0,0 c -2.398,0 -4.343,-1.944 -4.343,-4.342 0,-2.399 1.945,-4.343 4.343,-4.343 2.399,0 4.342,1.944 4.342,4.343 C 4.342,-1.944 2.399,0 0,0"
           style="fill:#6b503f;fill-opacity:1;fill-rule:evenodd;stroke:none"
           id="path5610" />
      </g>
      <g
         id="g5612"
         transform="translate(195.8791,385.9923)">
        <path
           d="M 0,0 C -0.775,4.807 0.507,8.699 2.75,8.365 4.93,8.04 5.071,3.753 5.933,0.893 Z"
           style="fill:#b9875f;fill-opacity:1;fill-rule:evenodd;stroke:none"
           id="path5614" />
      </g>
      <g
         id="g5616"
         transform="translate(203.5672,386.8954)">
        <path
           d="M 0,0 C 0,0 -2.537,5.918 0.955,7.717 4.447,9.516 2.975,3.16 4.781,0.435 6.587,-2.29 7.339,-5.119 6.062,-7.465 3.918,-11.399 -1.932,-8.055 -5.691,-4.572 -10.288,-0.314 -11.909,5.166 -9.399,6.142 -6.393,7.309 -2.975,-1.051 0,0"
           style="fill:#dda87e;fill-opacity:1;fill-rule:evenodd;stroke:none"
           id="path5618" />
      </g>
      <g
         id="g5620"
         transform="translate(205.5929,384.652)">
        <path
           d="m 0,0 c 17.255,0 31.328,4.457 31.328,9.92 0,5.464 -14.073,9.921 -31.328,9.921 -17.255,0 -31.328,-4.457 -31.328,-9.921 C -31.328,4.457 -17.255,0 0,0"
           style="fill:#cde1f9;fill-opacity:1;fill-rule:evenodd;stroke:none"
           id="path5622" />
      </g>
      <g
         id="g5624"
         transform="translate(205.5929,415.345)">
        <path
           d="m 0,0 c 20.425,0 23.242,-17.4 23.242,-21.066 0,-3.666 -10.406,-6.637 -23.242,-6.637 -12.836,0 -23.242,2.971 -23.242,6.637 C -23.242,-17.4 -20.425,0 0,0"
           style="fill:#a5bedd;fill-opacity:1;fill-rule:evenodd;stroke:none"
           id="path5626" />
      </g>
      <g
         id="g5628"
         transform="translate(205.5929,415.345)">
        <path
           d="m 0,0 c 20.425,0 23.242,-17.4 23.242,-21.066 0,-0.232 -0.042,-0.461 -0.123,-0.687 -4.246,-1.593 -10.954,-2.621 -18.504,-2.621 -12.836,0 -23.242,2.971 -23.242,6.638 0,2.251 1.064,9.684 6.618,15.084 C -8.908,-1.036 -4.979,0 0,0"
           style="fill:#cde1f9;fill-opacity:1;fill-rule:evenodd;stroke:none"
           id="path5630" />
      </g>
      <g
         id="g5632"
         transform="translate(205.5929,413.1323)">
        <path
           d="M 0,0 C 1.348,0 2.447,1.099 2.447,2.447 2.447,3.794 1.348,4.893 0,4.893 -1.348,4.893 -2.447,3.794 -2.447,2.447 -2.447,1.099 -1.348,0 0,0"
           style="fill:#a5bedd;fill-opacity:1;fill-rule:evenodd;stroke:none"
           id="path5634" />
      </g>
      <g
         id="g5636"
         transform="translate(205.5929,418.0252)">
        <path
           d="m 0,0 c 1.351,0 2.447,-1.095 2.447,-2.447 0,-0.241 -0.035,-0.474 -0.1,-0.693 -0.346,-0.187 -0.741,-0.293 -1.16,-0.293 -1.352,0 -2.447,1.096 -2.447,2.447 0,0.241 0.035,0.474 0.1,0.694 C -0.815,-0.106 -0.42,0 0,0"
           style="fill:#cde1f9;fill-opacity:1;fill-rule:evenodd;stroke:none"
           id="path5638" />
      </g>
    </g>
  </g>
</svg>
