<?xml version="1.0" encoding="UTF-8" standalone="no"?>
<svg
   xmlns:dc="http://purl.org/dc/elements/1.1/"
   xmlns:cc="http://creativecommons.org/ns#"
   xmlns:rdf="http://www.w3.org/1999/02/22-rdf-syntax-ns#"
   xmlns:svg="http://www.w3.org/2000/svg"
   xmlns="http://www.w3.org/2000/svg"
   id="svg15125"
   version="1.1"
   viewBox="0 0 33.072918 39.694798"
   height="39.694798mm"
   width="33.072918mm">
  <defs
     id="defs15119" />
  <metadata
     id="metadata15122">
    <rdf:RDF>
      <cc:Work
         rdf:about="">
        <dc:format>image/svg+xml</dc:format>
        <dc:type
           rdf:resource="http://purl.org/dc/dcmitype/StillImage" />
        <dc:title></dc:title>
      </cc:Work>
    </rdf:RDF>
  </metadata>
  <g
     transform="translate(51.299725,-135.94166)"
     id="layer1">
    <g
       id="g14884"
       transform="matrix(0.23483773,0,0,-0.26129404,-134.07601,175.50584)">
      <g
         id="g6120"
         transform="translate(434.8834,121.5941)">
        <path
           d="M 0,0 C -43.633,0 -33.121,-57.835 0,-57.835 33.12,-57.835 43.633,0 0,0"
           style="fill:#a97764;fill-opacity:1;fill-rule:evenodd;stroke:none"
           id="path6122" />
      </g>
      <g
         id="g6124"
         transform="translate(450.4487,39.4727)">
        <path
           d="m 0,0 27.406,-4.376 c 3.492,-0.557 6.804,1.844 7.362,5.335 0.557,3.492 -1.844,6.804 -5.335,7.361 L 2.027,12.695 C -5.936,13.966 -7.551,1.206 0,0"
           style="fill:#fcd9bd;fill-opacity:1;fill-rule:evenodd;stroke:none"
           id="path6126" />
      </g>
      <g
         id="g6128"
         transform="translate(417.7624,53.0861)"
         style="stroke:#458098;stroke-opacity:1">
        <path
           d="m 0,0 h 34.242 l 0.842,-53.086 H -2.344 Z"
           style="fill:#ffffff;fill-opacity:1;fill-rule:evenodd;stroke:#458098;stroke-opacity:1"
           id="path6130" />
      </g>
      <g
         id="g6132"
         transform="translate(434.8834,78.5361)">
        <path
           d="M 0,0 V 0 C 4.253,0 7.732,-3.48 7.732,-7.732 V -25.45 c 0,-4.253 -3.479,-7.732 -7.732,-7.732 -4.253,0 -7.733,3.479 -7.733,7.732 V -7.732 C -7.733,-3.48 -4.253,0 0,0"
           style="fill:#cde1f9;fill-opacity:1;fill-rule:evenodd;stroke:none"
           id="path6134" />
      </g>
      <g
         id="g6136"
         transform="translate(434.7569,79.9018)">
        <path
           d="m 0,0 v 0 c 4.322,0 7.859,-3.48 7.859,-7.732 v -17.717 c 0,-4.254 -3.537,-7.733 -7.859,-7.733 -4.322,0 -7.859,3.479 -7.859,7.733 V -7.732 C -7.859,-3.48 -4.322,0 0,0"
           style="fill:#fcd9bd;fill-opacity:1;fill-rule:evenodd;stroke:none"
           id="path6138" />
      </g>
      <g
         id="g6140"
         transform="translate(442.6157,58.852)">
        <path
           d="M 0,0 V 0 C 0,-6.642 -15.718,-6.642 -15.718,0 -15.718,6.642 0,6.642 0,0"
           style="fill:#dfb99a;fill-opacity:1;fill-rule:evenodd;stroke:none"
           id="path6142" />
      </g>
      <g
         id="g6144"
         transform="translate(434.8834,119.7544)">
        <path
           d="M 0,0 C -43.572,0 -33.073,-63.241 0,-63.241 33.073,-63.241 43.571,0 0,0"
           style="fill:#fcd9bd;fill-opacity:1;fill-rule:evenodd;stroke:none"
           id="path6146" />
      </g>
      <g
         id="g6148"
         transform="translate(423.746,42.8638)"
         style="stroke:#458098;stroke-opacity:1">
        <path
           d="m 0,0 -16.758,-23.136 c -2.056,-2.838 -6.151,-1.993 -8.931,0.142 -2.78,2.134 -3.308,6.154 -1.174,8.934 L -10.107,7.761 C -5.24,14.1 4.446,6.138 0,0"
           style="fill:#ffffff;fill-opacity:1;fill-rule:evenodd;stroke:#458098;stroke-opacity:1"
           id="path6150" />
      </g>
      <g
         id="g6152"
         transform="translate(404.6119,91.9085)">
        <path
           d="m 0,0 c 2.201,0.562 4.874,-2.466 5.971,-6.762 1.097,-4.297 0.202,-8.235 -1.998,-8.797 -2.2,-0.562 -4.874,2.465 -5.971,6.762 C -3.095,-4.501 -2.201,-0.563 0,0"
           style="fill:#fcd9bd;fill-opacity:1;fill-rule:evenodd;stroke:none"
           id="path6154" />
      </g>
      <g
         id="g6156"
         transform="translate(465.1778,91.9085)">
        <path
           d="m 0,0 c -2.201,0.562 -4.874,-2.466 -5.971,-6.762 -1.097,-4.297 -0.203,-8.235 1.998,-8.797 2.201,-0.562 4.874,2.465 5.971,6.762 C 3.095,-4.501 2.2,-0.563 0,0"
           style="fill:#fcd9bd;fill-opacity:1;fill-rule:evenodd;stroke:none"
           id="path6158" />
      </g>
      <g
         id="g6160"
         transform="translate(447.6149,72.3685)">
        <path
           d="M 0,0 C -6.651,-3.992 -19.554,-3.47 -25.463,0 -16.85,-1.761 -8.361,-1.773 0,0"
           style="fill:#be9370;fill-opacity:1;fill-rule:evenodd;stroke:none"
           id="path6162" />
      </g>
      <g
         id="g6164"
         transform="translate(439.128,77.6843)">
        <path
           d="M 0,0 C -1.629,-4.153 -6.86,-4.08 -8.489,0 -6.104,-2.269 -2.515,-2.374 0,0"
           style="fill:#dfb99a;fill-opacity:1;fill-rule:evenodd;stroke:none"
           id="path6166" />
      </g>
      <g
         id="g6168"
         transform="translate(439.9548,67.2415)">
        <path
           d="M 0,0 C -1.89,-2.566 -8.139,-2.527 -10.143,0 -7.22,-1.19 -2.923,-1.195 0,0"
           style="fill:#dfb99a;fill-opacity:1;fill-rule:evenodd;stroke:none"
           id="path6170" />
      </g>
      <g
         id="g6172"
         transform="translate(410.8685,83.6427)">
        <path
           d="m 0,0 c 0.478,-4.627 -0.647,-3.317 -2.309,0.311 -1.661,3.629 -2.872,7.247 -2.581,10.83 2.802,34.595 54.239,35.019 57.918,0 C 53.404,7.566 52.108,3.94 50.446,0.311 48.785,-3.317 47.66,-4.626 48.138,0 c 0.58,5.617 -0.285,11.403 -3.257,16.16 -5.258,8.419 -12.12,3.534 -21.423,3.534 -9.304,0 -13.665,3.796 -19.739,-3.975 C 0.038,11.01 -0.62,5.998 0,0"
           style="fill:#a97764;fill-opacity:1;fill-rule:evenodd;stroke:none"
           id="path6174" />
      </g>
      <g
         id="g6176"
         transform="translate(441.6882,92.4582)">
        <path
           d="M 0,0 C 2.159,1.362 4.881,1.521 6.638,0.14 7.652,-0.791 6.948,-1.052 6.281,-0.545 4.386,0.232 2.548,-0.19 0.609,-1.191 -0.405,-1.714 -1.108,-0.699 0,0"
           style="fill:#a97764;fill-opacity:1;fill-rule:evenodd;stroke:none"
           id="path6178" />
      </g>
      <g
         id="g6180"
         transform="translate(429.0769,92.4582)">
        <path
           d="m 0,0 c -2.159,1.362 -4.881,1.521 -6.639,0.14 -1.014,-0.931 -0.309,-1.192 0.358,-0.685 1.895,0.777 3.733,0.355 5.671,-0.646 C 0.404,-1.714 1.108,-0.699 0,0"
           style="fill:#a97764;fill-opacity:1;fill-rule:evenodd;stroke:none"
           id="path6182" />
      </g>
      <g
         id="g6184"
         transform="translate(408.581,21.7876)">
        <path
           d="M 0,0 -7.519,11.715 -11.367,7.313 -3.465,-4.688 Z"
           style="fill:#cde1f9;fill-opacity:1;fill-rule:evenodd;stroke:none"
           id="path6186" />
      </g>
      <g
         id="g6188"
         transform="translate(408.5773,20.4726)"
         style="stroke:#458098;stroke-opacity:1">
        <path
           d="m 0,0 -8.8,12.635 -3.517,-4.73 8.825,-12.573 z"
           style="fill:#ffffff;fill-opacity:1;fill-rule:evenodd;stroke:#458098;stroke-opacity:1"
           id="path6190" />
      </g>
      <g
         id="g6192"
         transform="translate(380.4106,38.9324)">
        <path
           d="M 0,0 C 0,0 -4.478,5.657 -1.229,8.626 2.021,11.594 2.292,4.289 5.044,1.872 7.795,-0.546 9.437,-3.386 8.743,-6.297 7.577,-11.18 0.271,-9.278 -4.815,-6.612 c -6.219,3.259 -9.578,8.709 -7.149,10.5 C -9.056,6.031 -2.909,-2.008 0,0"
           style="fill:#fcd9bd;fill-opacity:1;fill-rule:evenodd;stroke:none"
           id="path6194" />
      </g>
      <g
         id="g6196"
         transform="translate(383.195,30.2173)">
        <path
           d="m 0,0 13.411,-13.887 c 2.749,-2.22 6.364,-2.922 8.549,-0.142 2.184,2.781 2.172,8.068 -0.607,10.252 L 5.427,7.221 Z"
           style="fill:#fcd9bd;fill-opacity:1;fill-rule:evenodd;stroke:none"
           id="path6198" />
      </g>
      <g
         id="g6200"
         transform="translate(451.1052,39.3687)"
         style="stroke:#458098;stroke-opacity:1">
        <path
           d="M 0,0 22.48,-3.917 28.389,8.772 2.685,13.554 C -6.436,15.251 -10.617,2.317 0,0"
           style="fill:#ffffff;fill-opacity:1;fill-rule:evenodd;stroke:#458098;stroke-opacity:1"
           id="path6202" />
      </g>
      <g
         id="g6204"
         transform="translate(473.8328,49.2293)">
        <path
           d="m 0,0 -7.281,-12.552 5.859,-1.478 7.008,12.723 z"
           style="fill:#cde1f9;fill-opacity:1;fill-rule:evenodd;stroke:none"
           id="path6206" />
      </g>
      <g
         id="g6208"
         transform="translate(474.8862,49.5759)"
         style="stroke:#458098;stroke-opacity:1">
        <path
           d="m 0,0 -7.661,-13.851 5.858,-1.274 7.502,13.896 z"
           style="fill:#ffffff;fill-opacity:1;fill-rule:evenodd;stroke:#458098;stroke-opacity:1"
           id="path6210" />
      </g>
      <g
         id="g6212"
         transform="translate(433.7407,46.8399)">
        <path
           d="m 0,0 c -3.563,0.41 -6.843,2.99 -6.843,7.739 v 2.875 C -6.146,6.749 -3.182,4.563 0,4.16 Z M 8.876,10.614 V 7.739 C 8.876,2.99 5.595,0.411 2.033,0 v 4.146 c 3.154,0.353 6.098,2.475 6.843,6.468"
           style="fill:#ffffff;fill-opacity:1;fill-rule:evenodd;stroke:none"
           id="path6214" />
      </g>
      <g
         id="g6216"
         transform="translate(440.1368)">
        <path
           d="M 0,0 4.317,45.326 H 5.239 L 1.625,0 Z"
           style="fill:#cde1f9;fill-opacity:1;fill-rule:evenodd;stroke:none"
           id="path6218" />
      </g>
      <path
         d="m 434.884,46.179 h 10.492 v -0.825 h -10.492 z"
         style="fill:#cde1f9;fill-opacity:1;fill-rule:evenodd;stroke:none"
         id="path6220" />
      <g
         id="g6222"
         transform="translate(441.0357,40.3412)">
        <path
           d="M 0,0 C 0.602,0.007 1.095,-0.475 1.102,-1.076 1.109,-1.678 0.627,-2.172 0.026,-2.178 -0.576,-2.185 -1.069,-1.704 -1.076,-1.102 -1.083,-0.5 -0.601,-0.007 0,0"
           style="fill:#b2b2b2;fill-opacity:1;fill-rule:evenodd;stroke:none"
           id="path6224" />
      </g>
      <g
         id="g6226"
         transform="translate(440.0172,25.7706)">
        <path
           d="M 0,0 C 0.602,0.007 1.095,-0.475 1.102,-1.077 1.109,-1.678 0.627,-2.172 0.026,-2.178 -0.576,-2.186 -1.069,-1.704 -1.076,-1.102 -1.083,-0.501 -0.601,-0.007 0,0"
           style="fill:#b2b2b2;fill-opacity:1;fill-rule:evenodd;stroke:none"
           id="path6228" />
      </g>
      <g
         id="g6230"
         transform="translate(439.3618,14.0765)">
        <path
           d="M 0,0 C 0.602,0.007 1.095,-0.475 1.102,-1.077 1.109,-1.678 0.627,-2.172 0.026,-2.178 -0.576,-2.186 -1.069,-1.704 -1.076,-1.102 -1.083,-0.501 -0.601,-0.007 0,0"
           style="fill:#b2b2b2;fill-opacity:1;fill-rule:evenodd;stroke:none"
           id="path6232" />
      </g>
      <g
         id="g6234"
         transform="translate(438.6072,2.3808)">
        <path
           d="M 0,0 C 0.602,0.007 1.095,-0.475 1.102,-1.077 1.109,-1.678 0.627,-2.171 0.025,-2.178 -0.576,-2.185 -1.069,-1.703 -1.077,-1.102 -1.083,-0.501 -0.602,-0.007 0,0"
           style="fill:#b2b2b2;fill-opacity:1;fill-rule:evenodd;stroke:none"
           id="path6236" />
      </g>
      <g
         id="g6238"
         transform="translate(456.9576,105.9664)">
        <path
           d="m 0,0 c -6.055,6.652 -26.437,0.861 -38.674,4.014 -9.703,2.501 -10.714,9.489 -6.607,16.163 C -38.715,10.706 -1.173,24.303 0,0"
           style="fill:#6b503f;fill-opacity:1;fill-rule:evenodd;stroke:none"
           id="path6240" />
      </g>
      <g
         id="g6242"
         transform="translate(406.1472,100.792)"
         style="stroke:#458098;stroke-opacity:1">
        <path
           d="M 0,0 C 10.307,6.644 41.495,7.039 57.128,1.489 V 26.446 H 0 Z"
           style="fill:#ffffff;fill-opacity:1;fill-rule:evenodd;stroke:#458098;stroke-opacity:1"
           id="path6244" />
      </g>
      <g
         id="g6246"
         transform="translate(407.3482,143.2295)"
         style="fill:#458098;fill-opacity:1">
        <path
           d="m 0,0 c 11.003,0 19.924,-7.301 19.924,-16.309 0,-9.007 -8.921,-16.309 -19.924,-16.309 -11.003,0 -19.924,7.302 -19.924,16.309 C -19.924,-7.301 -11.003,0 0,0"
           style="fill:#458098;fill-opacity:1;fill-rule:evenodd;stroke:none"
           id="path6248" />
      </g>
      <g
         id="g6250"
         transform="translate(461.785,144.1437)"
         style="fill:#458098;fill-opacity:1">
        <path
           d="m 0,0 c 10.153,0 18.383,-7.189 18.383,-16.056 0,-8.868 -8.23,-16.056 -18.383,-16.056 -10.153,0 -18.384,7.188 -18.384,16.056 C -18.384,-7.189 -10.153,0 0,0"
           style="fill:#458098;fill-opacity:1;fill-rule:evenodd;stroke:none"
           id="path6252" />
      </g>
      <g
         id="g6254"
         transform="translate(405.1907,143.2295)"
         style="stroke:#458098;stroke-width:0.17475;stroke-miterlimit:4;stroke-dasharray:none;stroke-opacity:1">
        <path
           d="m 0,0 c 9.739,0 17.635,-6.674 17.635,-14.907 0,-8.234 -7.896,-14.909 -17.635,-14.909 -9.74,0 -17.635,6.675 -17.635,14.909 C -17.635,-6.674 -9.74,0 0,0"
           style="fill:#ffffff;fill-opacity:1;fill-rule:evenodd;stroke:#458098;stroke-width:0.17475;stroke-miterlimit:4;stroke-dasharray:none;stroke-opacity:1"
           id="path6256" />
      </g>
      <g
         id="g6258"
         transform="translate(459.4053,143.8659)"
         style="stroke:none">
        <path
           d="m 0,0 c 8.838,0 16.004,-6.353 16.004,-14.191 0,-7.837 -7.166,-14.191 -16.004,-14.191 -8.839,0 -16.004,6.354 -16.004,14.191 C -16.004,-6.353 -8.839,0 0,0"
           style="fill:#ffffff;fill-opacity:1;fill-rule:evenodd;stroke:none;stroke-opacity:1"
           id="path6260" />
      </g>
      <g
         id="g6262"
         transform="translate(434.2422,151.2862)"
         style="fill:#458098;fill-opacity:1">
        <path
           d="m 0,0 c 11.498,0 20.819,-8.269 20.819,-18.47 0,-10.2 -9.321,-18.469 -20.819,-18.469 -11.498,0 -20.819,8.269 -20.819,18.469 C -20.819,-8.269 -11.498,0 0,0"
           style="fill:#458098;fill-opacity:1;fill-rule:evenodd;stroke:none"
           id="path6264" />
      </g>
      <g
         id="g6266"
         transform="translate(431.8568,151.3788)"
         style="stroke:#458098;stroke-width:0.075;stroke-miterlimit:4;stroke-dasharray:none;stroke-opacity:1">
        <path
           d="m 0,0 c 10.41,0 18.848,-7.333 18.848,-16.378 0,-9.045 -8.438,-16.377 -18.848,-16.377 -10.409,0 -18.848,7.332 -18.848,16.377 C -18.848,-7.333 -10.409,0 0,0"
           style="fill:#ffffff;fill-opacity:1;fill-rule:evenodd;stroke:#458098;stroke-width:0.075;stroke-miterlimit:4;stroke-dasharray:none;stroke-opacity:1"
           id="path6268" />
      </g>
      <g
         id="g6270"
         transform="translate(452.5135,20.9832)"
         style="stroke:#458098;stroke-opacity:1">
        <path
           d="m 0,0 0.139,-8.766 -6.158,2.561 0.571,7.116 z"
           style="fill:#ffffff;fill-opacity:1;fill-rule:evenodd;stroke:#458098;stroke-opacity:1"
           id="path6272" />
      </g>
      <g
         id="g6274"
         transform="translate(477.3631,59.0819)">
        <path
           d="m 0,0 c 4.449,-2.058 9.587,3.474 12.881,8.012 3.088,4.255 3.896,7.397 2.205,8.201 -1.69,0.804 -3.492,-0.457 -5.964,-3.369 1.262,3.567 3.285,6.996 1.06,8.151 -2.859,1.485 -4.89,-3.607 -6,-6.491 0.532,1.386 0.397,2.621 0.133,4.177 -0.312,1.842 -2.209,2.19 -3.545,2.234 -2.409,0.078 -5.524,-2.681 -0.664,-4.704 0.026,-3.234 -0.799,-5.492 -3.754,-2.286 1.059,0.957 2.703,4.262 0.249,4.378 -5.907,0.28 -3.852,-5.023 -2.256,-9.41 C -4.539,5.823 -2.653,1.227 0,0"
           style="fill:#fcd9bd;fill-opacity:1;fill-rule:evenodd;stroke:none"
           id="path6276" />
      </g>
      <g
         id="g6278"
         transform="translate(487.6339,67.9354)">
        <path
           d="M 0,0 C -2.284,2.504 -5.386,3.615 -8.213,3.516 -4.805,4.632 -1.082,3.221 0,0"
           style="fill:#dfb99a;fill-opacity:1;fill-rule:evenodd;stroke:none"
           id="path6280" />
      </g>
      <g
         id="g6282"
         transform="translate(479.3717,64.7858)">
        <path
           d="M 0,0 C 0.361,3.215 -0.89,5.227 -2.372,6.97 0.293,5.696 1.019,2.85 0,0"
           style="fill:#dfb99a;fill-opacity:1;fill-rule:evenodd;stroke:none"
           id="path6284" />
      </g>
      <g
         id="g14658"
         transform="matrix(0.72138177,0,0,0.72138177,104.7006,10.361676)">
        <g
           transform="translate(377.5589,31.8058)"
           id="g6286">
          <path
             id="path6288"
             style="fill:#be7900;fill-opacity:1;fill-rule:evenodd;stroke:none"
             d="m 0,0 c 18.768,0 34.076,7.787 34.076,17.334 0,9.547 -15.308,17.333 -34.076,17.333 -18.768,0 -34.076,-7.786 -34.076,-17.333 C -34.076,7.787 -18.768,0 0,0" />
        </g>
        <g
           transform="translate(377.5589,33.5273)"
           id="g6290">
          <path
             id="path6292"
             style="fill:#be7900;fill-opacity:1;fill-rule:evenodd;stroke:none"
             d="m 0,0 c 18.768,0 34.076,7.787 34.076,17.334 0,9.547 -15.308,17.333 -34.076,17.333 -18.768,0 -34.076,-7.786 -34.076,-17.333 C -34.076,7.787 -18.768,0 0,0" />
        </g>
        <g
           transform="translate(377.5589,34.2853)"
           id="g6294">
          <path
             id="path6296"
             style="fill:#dd900c;fill-opacity:1;fill-rule:evenodd;stroke:none"
             d="m 0,0 c 17.948,0 32.585,7.446 32.585,16.576 0,9.129 -14.637,16.575 -32.585,16.575 -17.948,0 -32.585,-7.446 -32.585,-16.575 C -32.585,7.446 -17.948,0 0,0" />
        </g>
        <g
           transform="translate(377.577,34.9444)"
           id="g6298">
          <path
             id="path6300"
             style="fill:#c85235;fill-opacity:1;fill-rule:evenodd;stroke:none"
             d="m 0,0 c -2.889,-0.257 -3.416,-0.742 -7.523,0.307 -4.107,1.048 -3.428,-0.066 -7.292,1.021 -3.864,1.087 -3.847,1.496 -5.977,2.585 -2.131,1.089 -4.255,0.415 -5.123,1.839 -0.867,1.424 -1.249,0.956 -1.581,1.718 -0.331,0.762 -1.791,0.532 -1.992,1.518 -0.201,0.986 -0.288,1.786 -0.64,3.02 -0.352,1.234 -2.659,1.956 -2.532,3.061 0.126,1.106 0.433,1.697 0.782,3.313 0.349,1.615 -0.292,2.668 1.815,4.9 2.108,2.232 4.146,0.857 5.909,2.56 1.763,1.703 2.574,2.781 5.063,3.513 2.488,0.731 3.894,0.614 5.044,1.134 1.15,0.521 3.94,0.758 5.119,1.011 1.179,0.254 3.411,-0.344 5.883,-0.022 2.471,0.322 4.192,1.001 7.93,0.776 3.739,-0.225 3.969,-1.478 6.369,-1.913 2.399,-0.436 4.178,-0.292 5.802,-0.985 1.623,-0.694 0.343,-1.439 2.05,-2.052 1.708,-0.613 2.681,-0.459 3.864,-1.087 1.183,-0.627 2.068,-1.641 2.961,-2.45 0.893,-0.809 2.568,-0.274 3.85,-2.378 1.283,-2.105 0.423,-2.444 0.934,-3.721 0.511,-1.276 0.972,-1.814 1.362,-3.11 0.389,-1.296 0.264,-0.433 -1.688,-1.826 C 28.437,11.338 28.609,10.619 28.894,9.714 29.178,8.809 26.686,8.958 26.258,8.348 25.83,7.738 25.888,7.204 24.675,6.131 23.462,5.057 22.841,5.638 21.355,4.793 19.87,3.948 18.35,2.284 16.834,1.705 15.32,1.127 13.36,1.497 10.973,1.256 8.585,1.015 8.366,-0.377 5.303,-0.385 2.24,-0.393 3.076,0.275 0,0" />
        </g>
        <g
           transform="translate(407.0996,50.5885)"
           id="g6302">
          <path
             id="path6304"
             style="fill:#f8a719;fill-opacity:1;fill-rule:evenodd;stroke:none"
             d="M 0,0 C 0.412,-1.407 1.308,-1.675 -0.758,-3.641 -2.824,-5.607 -0.719,-5.305 -2.85,-7.152 -4.982,-9 -5.749,-8.982 -7.842,-9.989 c -2.093,-1.006 -0.882,-2.053 -3.571,-2.439 -2.69,-0.386 -1.823,-0.582 -3.26,-0.724 -1.436,-0.142 -1.04,-0.856 -2.893,-0.93 -1.853,-0.073 -3.356,-0.096 -5.677,-0.236 -2.32,-0.141 -3.73,-1.242 -5.798,-1.154 -2.07,0.088 -3.17,0.252 -6.19,0.46 -3.02,0.209 -5.008,-0.076 -9.14,1.001 -4.133,1.076 -1.506,2.032 -4.655,2.928 -3.149,0.897 -5.149,1.316 -6.46,2.541 -1.31,1.225 -1.056,1.904 -2.003,2.474 -0.948,0.571 -1.323,1.929 -1.77,2.507 -0.447,0.579 0.728,1.646 0.186,2.853 -0.544,1.206 -1.773,2.058 -1.261,3.865 0.512,1.808 2.866,1.889 3.742,3.042 0.875,1.153 0.647,2.02 1.987,2.79 1.341,0.77 2.705,0.131 3.895,0.944 1.191,0.814 0.927,1.289 2.132,1.848 1.205,0.558 3.127,0.962 4.665,1.376 1.538,0.413 0.576,1.239 4.552,1.809 3.976,0.571 4.591,0.145 6.996,0.362 2.405,0.217 3.424,0.428 5.862,0.585 2.438,0.157 0.819,0.117 3.383,-0.864 2.564,-0.98 3.916,-0.915 5.62,-0.798 1.703,0.116 1.361,-1.089 2.495,-1.312 1.133,-0.223 2.135,-0.207 4.117,-0.822 1.982,-0.615 0.879,-0.902 2.426,-1.643 1.548,-0.741 4.63,-1.519 5.677,-2.268 1.047,-0.748 0.307,-1.69 0.7,-2.853 C -1.692,4.189 0.911,4.048 0.851,2.563 0.791,1.077 -0.439,1.499 0,0" />
        </g>
        <g
           transform="translate(398.9004,42.4862)"
           id="g6306">
          <path
             id="path6308"
             style="fill:#fec460;fill-opacity:1;fill-rule:evenodd;stroke:none"
             d="m 0,0 c -1.188,-1.146 -0.814,-1.587 -4.414,-2.464 -3.598,-0.877 -1.733,-1.232 -5.255,-2.003 -3.521,-0.772 -4.065,-0.548 -6.668,-0.713 -2.602,-0.166 -2.822,-1.265 -5.204,-0.812 -2.383,0.454 -1.956,0.072 -3.16,0.362 -1.205,0.29 -1.67,-0.343 -3.108,0.111 -1.437,0.454 -2.565,0.849 -4.416,1.383 -1.853,0.533 -4.053,0.111 -5.478,0.743 -1.425,0.632 -2.06,1.053 -4.055,2.034 -1.995,0.981 -3.756,1.317 -5.648,3.24 -1.892,1.922 1.047,1.903 -0.314,3.425 -1.36,1.521 -2.384,2.377 -2.048,3.635 0.335,1.258 1.241,1.687 1.15,2.365 -0.091,0.678 1.073,1.779 1.358,2.325 0.284,0.547 2.278,1.009 3.158,2.043 0.879,1.034 0.878,1.996 3.169,3.182 2.292,1.186 4.105,0.6 5.969,1.206 1.864,0.607 2.614,1.305 4.414,1.503 1.8,0.198 2.124,-0.645 3.859,-0.375 1.735,0.271 2.045,0.693 3.521,0.772 1.476,0.079 3.315,-0.151 4.882,-0.269 1.567,-0.119 1.735,0.752 5.257,0.08 3.523,-0.671 3.523,-1.152 5.518,-1.652 1.994,-0.5 2.965,-0.625 4.921,-1.178 1.956,-0.553 0.725,-0.138 1.568,-1.561 C -0.181,15.96 0.881,15.637 2.254,15.255 3.626,14.874 2.099,14.083 2.695,13.609 3.291,13.135 4.043,12.871 4.846,11.877 5.65,10.882 4.536,10.975 4.887,10.006 5.237,9.038 6.675,7.623 6.65,6.786 6.625,5.95 5.085,5.462 4.14,4.5 3.195,3.538 4.957,2.721 3.34,1.648 1.722,0.574 1.265,1.22 0,0" />
        </g>
        <g
           transform="translate(392.3076,57.2885)"
           id="g6310">
          <path
             id="path6312"
             style="fill:#6db2ad;fill-opacity:1;fill-rule:evenodd;stroke:none"
             d="M 0,0 C 0.358,1.313 -0.893,1.568 -2.341,1.422 -2.521,-0.085 -0.146,0.521 0,0" />
        </g>
        <g
           transform="translate(390.3236,58.4954)"
           id="g6314">
          <path
             id="path6316"
             style="fill:#469892;fill-opacity:1;fill-rule:evenodd;stroke:none"
             d="M 0,0 V -0.167 C -0.001,-0.186 -0.001,-0.205 0,-0.225 V -0.341 C -0.105,-0.244 -0.107,-0.098 0,0 M -0.118,0.178 C -0.079,0.167 -0.04,0.155 0,0.142 V 0.153 Z M 0,-0.167 V 0 C 0.022,0.02 0.049,0.039 0.08,0.054 0.035,0.005 0.005,-0.081 0,-0.167 m 0,-0.174 v 0.116 C 0.004,-0.283 0.021,-0.338 0.052,-0.38 0.033,-0.368 0.015,-0.355 0,-0.341 m 0.46,0.085 v -0.149 c -0.005,-0.027 -0.006,-0.056 0,-0.084 v -0.046 c -0.156,0.09 -0.109,0.204 0,0.279 m 0,0.436 V 0.141 L 0.316,0.132 C 0.341,0.155 0.394,0.172 0.46,0.18 M 0,0.142 C 0.148,0.094 0.304,0.031 0.46,-0.04 V 0.015 C 0.31,0.071 0.155,0.118 0,0.153 Z m 0.46,-0.547 v 0.149 c 0.03,0.02 0.064,0.037 0.1,0.05 C 0.526,-0.242 0.474,-0.32 0.46,-0.405 m 0,-0.13 v 0.046 c 0.004,-0.02 0.011,-0.04 0.022,-0.059 z m 0.464,0.001 v -0.161 c -0.105,0.064 -0.091,0.109 0,0.161 m 0,0.491 V -0.072 L 0.788,-0.083 c 0.041,0.017 0.088,0.03 0.136,0.04 m 0,0.16 V 0.113 C 0.797,0.153 0.603,0.149 0.46,0.141 V 0.18 c 0.136,0.017 0.329,0 0.464,-0.063 M 0.46,-0.04 C 0.618,-0.112 0.776,-0.193 0.924,-0.276 V -0.19 C 0.779,-0.116 0.622,-0.046 0.46,0.015 Z M 0.924,0.113 V 0.117 L 0.945,0.106 Z m 0,-0.185 v 0.029 c 0.181,0.038 0.394,0.024 0.543,-0.075 -0.136,0.062 -0.349,0.06 -0.543,0.046 m 0,-0.623 v 0.161 c 0.021,0.012 0.046,0.024 0.074,0.037 -0.074,-0.073 -0.097,-0.124 -0.02,-0.227 -0.02,0.01 -0.039,0.02 -0.054,0.029 m 0.58,0.393 v -0.039 c -0.085,0.009 -0.172,0.01 -0.23,0.007 0.054,0.035 0.142,0.045 0.23,0.032 m -0.58,0.026 c 0.225,-0.126 0.428,-0.258 0.58,-0.374 v 0.092 c -0.149,0.121 -0.35,0.25 -0.58,0.368 z m 0.58,-0.065 v 0.039 c 0.089,-0.012 0.178,-0.046 0.229,-0.099 -0.048,0.031 -0.138,0.05 -0.229,0.06 m 0,-0.309 c 0.153,-0.117 0.253,-0.218 0.269,-0.281 0.023,0.084 -0.082,0.222 -0.269,0.373 z" />
        </g>
        <g
           transform="translate(371.586,60.0026)"
           id="g6318">
          <path
             id="path6320"
             style="fill:#6db2ad;fill-opacity:1;fill-rule:evenodd;stroke:none"
             d="M 0,0 C 2.549,-0.277 3.14,0.34 2.958,1.085 0.018,1.285 1.032,0.036 0,0" />
        </g>
        <g
           transform="translate(372.8279,60.535)"
           id="g6322">
          <path
             id="path6324"
             style="fill:#469892;fill-opacity:1;fill-rule:evenodd;stroke:none"
             d="M 0,0 V -0.041 C -0.061,-0.039 -0.131,-0.043 -0.222,-0.057 -0.132,-0.017 -0.062,0.001 0,0 m 0,-0.295 c -0.289,-0.089 -0.541,-0.146 -0.687,-0.15 0.153,-0.017 0.403,0.02 0.687,0.092 z m 0,0.254 V 0 C 0.078,-0.001 0.143,-0.032 0.223,-0.084 0.144,-0.06 0.079,-0.044 0,-0.041 m 0.492,-0.306 v -0.07 C 0.456,-0.436 0.41,-0.452 0.355,-0.464 c 0.068,0.023 0.112,0.069 0.137,0.117 m 0,0.578 V 0.178 C 0.384,0.189 0.266,0.194 0.16,0.182 0.265,0.228 0.383,0.24 0.492,0.231 m 0,-0.358 C 0.325,-0.19 0.157,-0.247 0,-0.295 v -0.058 c 0.158,0.04 0.325,0.092 0.492,0.151 z m 0,0.305 V 0.231 C 0.635,0.219 0.762,0.17 0.825,0.117 0.764,0.135 0.636,0.163 0.492,0.178 m 0,-0.595 v 0.07 c 0.022,0.041 0.03,0.083 0.029,0.111 0.097,-0.044 0.077,-0.125 -0.029,-0.181 m 0.452,0.075 V -0.344 L 0.93,-0.349 Z m 0,0.781 V 0.398 C 0.789,0.407 0.631,0.405 0.52,0.388 0.63,0.429 0.789,0.445 0.944,0.439 m 0,-0.382 C 0.799,-0.007 0.646,-0.07 0.492,-0.127 v -0.075 c 0.155,0.056 0.308,0.118 0.452,0.186 z m 0,0.341 V 0.439 C 1.111,0.432 1.274,0.4 1.369,0.342 1.275,0.368 1.112,0.389 0.944,0.398 m 0,-0.742 v 0.002 c 0.15,0.082 0.127,0.224 0.105,0.335 0.138,-0.105 0.142,-0.25 -0.105,-0.337 M 1.501,0.02 V -0.048 C 1.476,-0.067 1.445,-0.085 1.409,-0.1 c 0.052,0.031 0.079,0.074 0.092,0.12 m 0,0.326 C 1.353,0.251 1.158,0.152 0.944,0.057 v -0.073 c 0.218,0.102 0.414,0.215 0.557,0.332 z m 0,-0.394 V 0.02 C 1.524,0.096 1.507,0.178 1.505,0.217 1.62,0.179 1.63,0.048 1.501,-0.048 M 1.626,0.433 C 1.589,0.405 1.548,0.376 1.501,0.346 v -0.03 c 0.048,0.039 0.09,0.078 0.125,0.117" />
        </g>
        <g
           transform="translate(377.2482,59.779)"
           id="g6326">
          <path
             id="path6328"
             style="fill:#6db2ad;fill-opacity:1;fill-rule:evenodd;stroke:none"
             d="M 0,0 C -0.212,-1.322 1.066,-1.54 2.495,-1.353 2.508,0.156 0.203,-0.516 0,0" />
        </g>
        <g
           transform="translate(377.8208,58.9289)"
           id="g6330">
          <path
             id="path6332"
             style="fill:#469892;fill-opacity:1;fill-rule:evenodd;stroke:none"
             d="M 0,0 V -0.039 C -0.088,-0.029 -0.177,0.003 -0.233,0.053 -0.182,0.023 -0.092,0.007 0,0 M 0,0.286 C -0.183,0.408 -0.307,0.514 -0.331,0.581 -0.345,0.493 -0.216,0.352 0,0.201 Z M 0,-0.039 V 0 C 0.086,-0.007 0.175,-0.006 0.233,-0.001 0.182,-0.039 0.092,-0.051 0,-0.039 M 0.555,-0.258 V -0.294 C 0.392,-0.322 0.206,-0.307 0.064,-0.222 0.194,-0.275 0.379,-0.273 0.555,-0.258 m 0,0.619 V 0.205 C 0.537,0.194 0.515,0.182 0.49,0.169 0.556,0.245 0.573,0.296 0.485,0.397 0.513,0.384 0.536,0.373 0.555,0.361 m 0,-0.393 C 0.345,0.074 0.152,0.186 0,0.286 V 0.201 C 0.149,0.096 0.341,-0.014 0.555,-0.115 Z m 0,0.237 v 0.156 c 0.1,-0.058 0.086,-0.102 0,-0.156 m 0,-0.499 v 0.036 c 0.067,0.006 0.131,0.013 0.191,0.02 C 0.69,-0.263 0.624,-0.282 0.555,-0.294 M 1.049,-0.456 V -0.498 C 0.913,-0.509 0.737,-0.491 0.611,-0.432 0.727,-0.47 0.905,-0.467 1.049,-0.456 m 0,0.665 V -0.06 C 1.023,-0.079 0.992,-0.096 0.96,-0.109 1.007,-0.051 1.086,0.113 1,0.235 1.018,0.226 1.035,0.217 1.049,0.209 m 0,-0.468 C 0.881,-0.19 0.714,-0.113 0.555,-0.032 V -0.115 C 0.71,-0.188 0.877,-0.256 1.049,-0.314 Z m 0,0.199 v 0.269 c 0.138,-0.086 0.099,-0.196 0,-0.269 m 0,-0.438 v 0.042 c 0.08,0.005 0.149,0.013 0.192,0.017 C 1.212,-0.469 1.139,-0.49 1.049,-0.498 M 1.526,0.023 V -0.314 C 1.509,-0.329 1.49,-0.343 1.468,-0.355 1.544,-0.257 1.548,-0.033 1.448,0.08 1.478,0.063 1.504,0.044 1.526,0.023 m 0,-0.454 c -0.153,0.046 -0.315,0.105 -0.477,0.172 v -0.055 c 0.156,-0.053 0.317,-0.098 0.477,-0.131 z m 0,0.117 v 0.337 c 0.101,-0.099 0.106,-0.242 0,-0.337 m 0.153,-0.159 c -0.05,0.013 -0.101,0.027 -0.153,0.042 v -0.014 c 0.051,-0.01 0.102,-0.02 0.153,-0.028" />
        </g>
        <g
           transform="translate(355.6366,53.445)"
           id="g6334">
          <path
             id="path6336"
             style="fill:#6db2ad;fill-opacity:1;fill-rule:evenodd;stroke:none"
             d="M 0,0 C 2.549,-0.277 3.14,0.339 2.958,1.085 0.017,1.285 1.032,0.036 0,0" />
        </g>
        <g
           transform="translate(356.8785,53.9773)"
           id="g6338">
          <path
             id="path6340"
             style="fill:#469892;fill-opacity:1;fill-rule:evenodd;stroke:none"
             d="M 0,0 V -0.041 C -0.062,-0.039 -0.131,-0.043 -0.222,-0.057 -0.132,-0.017 -0.062,0.001 0,0 m 0,-0.295 c -0.289,-0.089 -0.541,-0.146 -0.687,-0.15 0.153,-0.017 0.403,0.02 0.687,0.092 z m 0,0.254 V 0 C 0.078,-0.001 0.143,-0.032 0.223,-0.084 0.144,-0.059 0.079,-0.044 0,-0.041 m 0.492,-0.306 v -0.07 C 0.456,-0.436 0.41,-0.452 0.355,-0.463 c 0.068,0.023 0.112,0.068 0.137,0.116 m 0,0.578 V 0.178 C 0.384,0.189 0.266,0.194 0.16,0.182 0.266,0.229 0.384,0.24 0.492,0.231 m 0,-0.358 C 0.325,-0.19 0.157,-0.247 0,-0.295 v -0.058 c 0.158,0.04 0.325,0.092 0.492,0.152 z m 0,0.305 V 0.231 C 0.635,0.219 0.762,0.17 0.825,0.117 0.764,0.135 0.636,0.163 0.492,0.178 m 0,-0.595 v 0.07 c 0.022,0.041 0.03,0.083 0.029,0.111 0.098,-0.044 0.077,-0.125 -0.029,-0.181 m 0.452,0.075 V -0.344 L 0.93,-0.349 Z m 0,0.781 V 0.399 C 0.789,0.407 0.631,0.405 0.52,0.388 0.63,0.429 0.789,0.445 0.944,0.439 m 0,-0.382 C 0.799,-0.007 0.646,-0.069 0.492,-0.127 v -0.074 c 0.155,0.055 0.308,0.117 0.452,0.185 z m 0,0.342 v 0.04 C 1.111,0.433 1.274,0.4 1.369,0.342 1.275,0.368 1.112,0.39 0.944,0.399 m 0,-0.743 v 0.002 c 0.15,0.082 0.126,0.224 0.105,0.335 0.138,-0.105 0.142,-0.25 -0.105,-0.337 M 1.501,0.02 V -0.048 C 1.476,-0.067 1.445,-0.085 1.409,-0.1 c 0.052,0.031 0.079,0.074 0.092,0.12 m 0,0.326 C 1.353,0.251 1.158,0.152 0.944,0.057 v -0.073 c 0.218,0.102 0.414,0.215 0.557,0.332 z m 0,-0.394 V 0.02 C 1.524,0.096 1.507,0.178 1.505,0.217 1.62,0.179 1.629,0.048 1.501,-0.048 M 1.626,0.433 C 1.589,0.405 1.548,0.376 1.501,0.346 v -0.03 c 0.048,0.039 0.09,0.078 0.125,0.117" />
        </g>
        <g
           transform="translate(388.862,44.8157)"
           id="g6342">
          <path
             id="path6344"
             style="fill:#6db2ad;fill-opacity:1;fill-rule:evenodd;stroke:none"
             d="M 0,0 C 2.549,-0.277 3.14,0.339 2.958,1.085 0.017,1.285 1.032,0.036 0,0" />
        </g>
        <g
           transform="translate(390.1039,45.3481)"
           id="g6346">
          <path
             id="path6348"
             style="fill:#469892;fill-opacity:1;fill-rule:evenodd;stroke:none"
             d="M 0,0 V -0.041 C -0.061,-0.039 -0.131,-0.043 -0.223,-0.057 -0.132,-0.017 -0.062,0.001 0,0 m 0,-0.295 c -0.29,-0.089 -0.542,-0.146 -0.687,-0.15 0.152,-0.017 0.403,0.02 0.687,0.092 z m 0,0.254 V 0 C 0.078,-0.001 0.143,-0.032 0.223,-0.084 0.144,-0.06 0.079,-0.044 0,-0.041 m 0.492,-0.306 v -0.07 C 0.456,-0.436 0.41,-0.452 0.355,-0.464 c 0.068,0.024 0.112,0.069 0.137,0.117 m 0,0.578 V 0.178 C 0.384,0.189 0.266,0.194 0.16,0.182 0.265,0.228 0.383,0.24 0.492,0.231 m 0,-0.358 C 0.325,-0.19 0.157,-0.247 0,-0.295 v -0.058 c 0.158,0.04 0.325,0.092 0.492,0.151 z m 0,0.305 V 0.231 C 0.635,0.219 0.762,0.17 0.824,0.117 0.764,0.135 0.636,0.163 0.492,0.178 m 0,-0.595 v 0.07 c 0.022,0.04 0.03,0.083 0.029,0.111 0.097,-0.044 0.077,-0.125 -0.029,-0.181 m 0.452,0.075 V -0.344 L 0.93,-0.349 Z m 0,0.781 V 0.398 C 0.79,0.407 0.631,0.405 0.52,0.388 0.63,0.429 0.789,0.445 0.944,0.439 m 0,-0.382 C 0.799,-0.007 0.646,-0.07 0.492,-0.127 v -0.075 c 0.155,0.056 0.308,0.118 0.452,0.186 z m 0,0.341 V 0.439 C 1.111,0.433 1.274,0.4 1.369,0.342 1.275,0.368 1.112,0.389 0.944,0.398 m 0,-0.742 v 0.002 c 0.15,0.082 0.126,0.224 0.105,0.335 0.137,-0.105 0.142,-0.25 -0.105,-0.337 M 1.501,0.02 V -0.048 C 1.476,-0.067 1.445,-0.085 1.409,-0.1 c 0.052,0.031 0.079,0.074 0.092,0.12 m 0,0.326 C 1.353,0.251 1.158,0.152 0.944,0.057 v -0.073 c 0.218,0.102 0.414,0.215 0.557,0.332 z m 0,-0.394 V 0.02 C 1.524,0.096 1.507,0.178 1.504,0.217 1.619,0.179 1.629,0.048 1.501,-0.048 M 1.626,0.433 C 1.589,0.405 1.547,0.376 1.501,0.346 v -0.03 c 0.048,0.039 0.09,0.078 0.125,0.117" />
        </g>
        <g
           transform="translate(375.3929,42.3734)"
           id="g6350">
          <path
             id="path6352"
             style="fill:#6db2ad;fill-opacity:1;fill-rule:evenodd;stroke:none"
             d="M 0,0 C 0.358,1.313 -0.893,1.568 -2.341,1.422 -2.521,-0.085 -0.146,0.521 0,0" />
        </g>
        <g
           transform="translate(373.4093,43.5804)"
           id="g6354">
          <path
             id="path6356"
             style="fill:#469892;fill-opacity:1;fill-rule:evenodd;stroke:none"
             d="M 0,0 V -0.163 C -0.002,-0.184 -0.002,-0.206 0,-0.227 V -0.341 C -0.106,-0.244 -0.107,-0.098 0,0 M -0.118,0.178 C -0.079,0.167 -0.04,0.155 0,0.142 V 0.153 C -0.039,0.162 -0.079,0.171 -0.118,0.178 M 0,-0.163 V 0 C 0.022,0.02 0.049,0.039 0.08,0.054 0.035,0.005 0.006,-0.078 0,-0.163 m 0,-0.178 v 0.114 C 0.004,-0.285 0.021,-0.339 0.052,-0.38 0.032,-0.368 0.015,-0.355 0,-0.341 m 0.46,0.085 v -0.148 c -0.005,-0.028 -0.006,-0.057 0,-0.085 v -0.046 c -0.156,0.09 -0.11,0.205 0,0.279 m 0,0.436 V 0.141 L 0.315,0.132 C 0.341,0.155 0.393,0.172 0.46,0.18 M 0,0.142 C 0.148,0.094 0.304,0.031 0.46,-0.04 V 0.015 C 0.309,0.071 0.155,0.118 0,0.153 Z m 0.46,-0.546 v 0.148 c 0.029,0.02 0.064,0.037 0.1,0.05 C 0.526,-0.242 0.474,-0.32 0.46,-0.404 m 0,-0.131 v 0.046 c 0.003,-0.02 0.01,-0.04 0.022,-0.059 z m 0.464,0.001 v -0.161 c -0.105,0.064 -0.091,0.109 0,0.161 m 0,0.491 V -0.072 L 0.787,-0.083 c 0.042,0.017 0.088,0.03 0.137,0.04 m 0,0.16 V 0.113 C 0.797,0.153 0.603,0.148 0.46,0.141 V 0.18 c 0.135,0.017 0.328,0 0.464,-0.063 M 0.46,-0.04 C 0.618,-0.112 0.775,-0.193 0.924,-0.276 V -0.19 C 0.779,-0.116 0.622,-0.046 0.46,0.015 Z m 0.464,0.153 v 0.004 l 0.02,-0.011 z m 0,-0.185 v 0.029 c 0.181,0.038 0.393,0.024 0.542,-0.075 -0.136,0.062 -0.348,0.06 -0.542,0.046 m 0,-0.623 v 0.161 c 0.021,0.012 0.045,0.024 0.074,0.037 -0.075,-0.073 -0.097,-0.124 -0.02,-0.227 -0.021,0.01 -0.039,0.02 -0.054,0.029 m 0.579,0.393 v -0.039 c -0.085,0.009 -0.171,0.01 -0.229,0.007 0.053,0.035 0.142,0.045 0.229,0.032 M 0.924,-0.276 C 1.148,-0.402 1.352,-0.534 1.503,-0.65 v 0.092 c -0.149,0.121 -0.35,0.25 -0.579,0.368 z m 0.579,-0.065 v 0.039 c 0.089,-0.012 0.178,-0.046 0.229,-0.099 -0.048,0.031 -0.137,0.05 -0.229,0.06 m 0,-0.309 c 0.153,-0.117 0.253,-0.218 0.269,-0.282 0.023,0.085 -0.082,0.223 -0.269,0.374 z" />
        </g>
        <g
           transform="translate(363.7392,58.966)"
           id="g6358">
          <path
             id="path6360"
             style="fill:#6db2ad;fill-opacity:1;fill-rule:evenodd;stroke:none"
             d="M 0,0 C -0.212,-1.322 1.065,-1.54 2.495,-1.353 2.508,0.156 0.203,-0.516 0,0" />
        </g>
        <g
           transform="translate(364.3115,58.1159)"
           id="g6362">
          <path
             id="path6364"
             style="fill:#469892;fill-opacity:1;fill-rule:evenodd;stroke:none"
             d="M 0,0 V -0.039 C -0.088,-0.029 -0.177,0.003 -0.233,0.053 -0.181,0.023 -0.092,0.007 0,0 M 0,0.287 C -0.183,0.408 -0.307,0.514 -0.331,0.581 -0.345,0.493 -0.216,0.352 0,0.201 Z M 0,-0.039 V 0 C 0.086,-0.007 0.175,-0.006 0.233,-0.001 0.182,-0.039 0.092,-0.051 0,-0.039 m 0.555,-0.219 v -0.036 c -0.163,-0.028 -0.348,-0.013 -0.49,0.072 0.129,-0.053 0.314,-0.051 0.49,-0.036 m 0,0.619 V 0.205 C 0.537,0.194 0.515,0.182 0.49,0.169 0.556,0.245 0.573,0.296 0.485,0.397 0.513,0.384 0.536,0.373 0.555,0.361 m 0,-0.393 C 0.345,0.075 0.152,0.186 0,0.287 V 0.201 C 0.149,0.096 0.341,-0.014 0.555,-0.115 Z m 0,0.237 v 0.156 c 0.101,-0.058 0.087,-0.102 0,-0.156 m 0,-0.499 v 0.036 c 0.066,0.005 0.131,0.013 0.192,0.02 C 0.69,-0.263 0.624,-0.282 0.555,-0.294 M 1.049,-0.456 V -0.497 C 0.913,-0.509 0.737,-0.491 0.611,-0.431 0.727,-0.47 0.905,-0.467 1.049,-0.456 m 0,0.665 V -0.06 C 1.023,-0.079 0.992,-0.096 0.96,-0.109 1.007,-0.051 1.087,0.113 1,0.235 1.018,0.227 1.035,0.218 1.049,0.209 m 0,-0.468 C 0.881,-0.19 0.713,-0.112 0.555,-0.032 V -0.115 C 0.71,-0.188 0.877,-0.256 1.049,-0.314 Z m 0,0.199 v 0.269 c 0.138,-0.086 0.099,-0.195 0,-0.269 m 0,-0.437 v 0.041 c 0.08,0.006 0.15,0.013 0.192,0.017 C 1.213,-0.469 1.14,-0.49 1.049,-0.497 m 0.477,0.52 V -0.314 C 1.509,-0.329 1.49,-0.342 1.468,-0.355 1.544,-0.257 1.548,-0.033 1.448,0.08 1.478,0.063 1.504,0.044 1.526,0.023 m 0,-0.454 c -0.153,0.046 -0.315,0.105 -0.477,0.172 v -0.055 c 0.156,-0.053 0.317,-0.098 0.477,-0.131 z m 0,0.117 v 0.337 c 0.102,-0.099 0.106,-0.242 0,-0.337 m 0.153,-0.159 c -0.05,0.013 -0.101,0.026 -0.153,0.042 v -0.014 c 0.051,-0.01 0.102,-0.02 0.153,-0.028" />
        </g>
        <g
           transform="translate(370.3561,47.997)"
           id="g6366">
          <path
             id="path6368"
             style="fill:#6db2ad;fill-opacity:1;fill-rule:evenodd;stroke:none"
             d="M 0,0 C -0.212,-1.321 1.066,-1.54 2.495,-1.353 2.508,0.156 0.203,-0.516 0,0" />
        </g>
        <g
           transform="translate(370.9287,47.1469)"
           id="g6370">
          <path
             id="path6372"
             style="fill:#469892;fill-opacity:1;fill-rule:evenodd;stroke:none"
             d="M 0,0 V -0.039 C -0.088,-0.029 -0.177,0.003 -0.233,0.053 -0.182,0.023 -0.092,0.007 0,0 M 0,0.287 C -0.183,0.408 -0.307,0.515 -0.331,0.581 -0.345,0.494 -0.216,0.353 0,0.201 Z M 0,-0.039 V 0 C 0.087,-0.007 0.175,-0.006 0.233,-0.001 0.182,-0.038 0.092,-0.05 0,-0.039 M 0.555,-0.258 V -0.294 C 0.392,-0.321 0.207,-0.307 0.064,-0.222 0.194,-0.275 0.379,-0.273 0.555,-0.258 m 0,0.62 V 0.206 C 0.537,0.194 0.515,0.182 0.49,0.169 0.556,0.245 0.573,0.296 0.485,0.397 0.513,0.384 0.536,0.373 0.555,0.362 m 0,-0.394 C 0.345,0.075 0.152,0.186 0,0.287 V 0.201 C 0.149,0.096 0.341,-0.014 0.555,-0.115 Z m 0,0.238 v 0.156 c 0.1,-0.059 0.086,-0.103 0,-0.156 m 0,-0.5 v 0.036 c 0.066,0.006 0.132,0.013 0.192,0.02 C 0.69,-0.263 0.625,-0.282 0.555,-0.294 M 1.049,-0.456 V -0.497 C 0.913,-0.509 0.737,-0.491 0.611,-0.431 0.727,-0.47 0.905,-0.466 1.049,-0.456 m 0,0.665 V -0.059 C 1.023,-0.078 0.992,-0.095 0.96,-0.108 1.007,-0.051 1.087,0.113 1,0.235 1.019,0.227 1.035,0.218 1.049,0.209 m 0,-0.468 C 0.881,-0.19 0.713,-0.112 0.555,-0.032 V -0.115 C 0.71,-0.188 0.877,-0.256 1.049,-0.314 Z m 0,0.2 v 0.268 c 0.138,-0.086 0.099,-0.195 0,-0.268 m 0,-0.438 v 0.041 c 0.08,0.006 0.15,0.014 0.192,0.017 C 1.212,-0.469 1.139,-0.49 1.049,-0.497 m 0.477,0.52 V -0.313 C 1.509,-0.328 1.49,-0.342 1.468,-0.354 1.544,-0.257 1.548,-0.033 1.448,0.08 1.478,0.064 1.504,0.044 1.526,0.023 m 0,-0.453 c -0.153,0.045 -0.315,0.104 -0.477,0.171 v -0.055 c 0.156,-0.053 0.317,-0.098 0.477,-0.13 z m 0,0.117 v 0.336 c 0.101,-0.099 0.106,-0.241 0,-0.336 M 1.679,-0.472 C 1.629,-0.46 1.578,-0.446 1.526,-0.43 v -0.014 c 0.051,-0.011 0.102,-0.02 0.153,-0.028" />
        </g>
        <g
           transform="translate(364.3188,44.8132)"
           id="g6374">
          <path
             id="path6376"
             style="fill:#6db2ad;fill-opacity:1;fill-rule:evenodd;stroke:none"
             d="M 0,0 C 2.549,-0.277 3.14,0.339 2.958,1.085 0.017,1.285 1.032,0.036 0,0" />
        </g>
        <g
           transform="translate(365.5607,45.3452)"
           id="g6378">
          <path
             id="path6380"
             style="fill:#469892;fill-opacity:1;fill-rule:evenodd;stroke:none"
             d="M 0,0 V -0.041 C -0.062,-0.038 -0.131,-0.043 -0.223,-0.057 -0.132,-0.016 -0.062,0.001 0,0 m 0,-0.295 c -0.29,-0.088 -0.542,-0.146 -0.687,-0.15 0.152,-0.016 0.403,0.02 0.687,0.092 z m 0,0.254 V 0 C 0.078,-0.001 0.143,-0.032 0.223,-0.084 0.144,-0.059 0.079,-0.044 0,-0.041 M 0.492,-0.347 V -0.416 C 0.456,-0.436 0.41,-0.452 0.355,-0.463 c 0.068,0.023 0.112,0.069 0.137,0.116 m 0,0.578 V 0.178 C 0.384,0.19 0.266,0.194 0.16,0.182 0.265,0.229 0.383,0.24 0.492,0.231 m 0,-0.358 C 0.325,-0.19 0.157,-0.247 0,-0.295 v -0.058 c 0.158,0.041 0.325,0.092 0.492,0.152 z m 0,0.305 V 0.231 C 0.635,0.219 0.762,0.17 0.825,0.117 0.764,0.135 0.636,0.163 0.492,0.178 m 0,-0.594 v 0.069 c 0.022,0.041 0.03,0.083 0.029,0.111 0.097,-0.044 0.077,-0.124 -0.029,-0.18 m 0.452,0.075 V -0.344 L 0.93,-0.349 Z m 0,0.78 V 0.399 C 0.789,0.407 0.631,0.405 0.52,0.388 0.63,0.429 0.789,0.446 0.944,0.439 m 0,-0.382 C 0.799,-0.007 0.646,-0.069 0.492,-0.127 v -0.074 c 0.155,0.055 0.308,0.118 0.452,0.185 z m 0,0.342 v 0.04 C 1.111,0.433 1.274,0.4 1.369,0.342 1.275,0.369 1.112,0.39 0.944,0.399 m 0,-0.743 v 0.003 c 0.15,0.081 0.126,0.223 0.105,0.334 0.137,-0.105 0.142,-0.25 -0.105,-0.337 M 1.501,0.02 V -0.048 C 1.476,-0.067 1.445,-0.085 1.408,-0.1 c 0.053,0.031 0.08,0.075 0.093,0.12 m 0,0.326 C 1.353,0.251 1.158,0.152 0.944,0.057 v -0.073 c 0.218,0.102 0.413,0.215 0.557,0.332 z m 0,-0.394 V 0.02 C 1.524,0.096 1.507,0.178 1.504,0.217 1.619,0.179 1.629,0.048 1.501,-0.048 M 1.626,0.434 C 1.589,0.405 1.548,0.376 1.501,0.346 v -0.03 c 0.048,0.039 0.09,0.078 0.125,0.118" />
        </g>
        <g
           transform="translate(362.122,49.185)"
           id="g6382">
          <path
             id="path6384"
             style="fill:#6db2ad;fill-opacity:1;fill-rule:evenodd;stroke:none"
             d="M 0,0 C 0.358,1.313 -0.894,1.569 -2.341,1.422 -2.521,-0.084 -0.146,0.521 0,0" />
        </g>
        <g
           transform="translate(360.1383,50.392)"
           id="g6386">
          <path
             id="path6388"
             style="fill:#469892;fill-opacity:1;fill-rule:evenodd;stroke:none"
             d="M 0,0 V -0.163 C -0.001,-0.185 -0.001,-0.206 0,-0.227 V -0.341 C -0.106,-0.244 -0.107,-0.098 0,0 M -0.118,0.178 C -0.079,0.167 -0.04,0.155 0,0.142 V 0.153 C -0.039,0.162 -0.079,0.17 -0.118,0.178 M 0,-0.163 V 0 C 0.022,0.02 0.049,0.039 0.08,0.054 0.035,0.005 0.006,-0.078 0,-0.163 m 0,-0.178 v 0.114 C 0.004,-0.285 0.021,-0.339 0.052,-0.38 0.032,-0.368 0.015,-0.355 0,-0.341 m 0.459,0.085 v -0.149 c -0.004,-0.028 -0.005,-0.056 0,-0.084 v -0.046 c -0.155,0.09 -0.109,0.205 0,0.279 m 0,0.436 V 0.141 L 0.315,0.132 C 0.341,0.155 0.393,0.172 0.459,0.18 M 0,0.142 C 0.148,0.094 0.304,0.031 0.459,-0.04 V 0.015 C 0.309,0.07 0.155,0.118 0,0.153 Z m 0.459,-0.547 v 0.149 c 0.03,0.02 0.065,0.037 0.101,0.05 C 0.526,-0.242 0.474,-0.321 0.459,-0.405 m 0,-0.13 v 0.046 c 0.004,-0.02 0.012,-0.04 0.023,-0.059 z m 0.465,0.001 v -0.161 c -0.105,0.064 -0.091,0.109 0,0.161 m 0,0.491 V -0.072 L 0.787,-0.083 c 0.042,0.017 0.088,0.03 0.137,0.04 m 0,0.16 V 0.113 C 0.797,0.153 0.603,0.149 0.459,0.141 V 0.18 c 0.136,0.017 0.329,0 0.465,-0.063 M 0.459,-0.04 C 0.618,-0.112 0.775,-0.193 0.924,-0.276 V -0.19 C 0.779,-0.116 0.622,-0.046 0.459,0.015 Z m 0.465,0.153 v 0.004 l 0.02,-0.011 z m 0,-0.185 v 0.029 c 0.181,0.038 0.393,0.024 0.542,-0.075 -0.136,0.062 -0.348,0.06 -0.542,0.046 m 0,-0.623 v 0.161 c 0.021,0.012 0.045,0.024 0.074,0.037 -0.075,-0.074 -0.097,-0.124 -0.02,-0.227 -0.021,0.01 -0.039,0.02 -0.054,0.029 m 0.579,0.393 v -0.039 c -0.085,0.008 -0.171,0.01 -0.229,0.007 0.053,0.035 0.142,0.045 0.229,0.032 M 0.924,-0.276 C 1.148,-0.402 1.352,-0.534 1.503,-0.65 v 0.092 c -0.149,0.121 -0.35,0.25 -0.579,0.368 z m 0.579,-0.065 v 0.039 c 0.089,-0.012 0.178,-0.046 0.229,-0.1 -0.048,0.032 -0.137,0.051 -0.229,0.061 m 0,-0.309 C 1.656,-0.767 1.756,-0.868 1.772,-0.932 1.795,-0.847 1.69,-0.71 1.503,-0.558 Z" />
        </g>
        <g
           transform="translate(395.0592,45.7276)"
           id="g6390">
          <path
             id="path6392"
             style="fill:#6db2ad;fill-opacity:1;fill-rule:evenodd;stroke:none"
             d="M 0,0 C 0.358,1.313 -0.894,1.568 -2.342,1.422 -2.521,-0.084 -0.146,0.521 0,0" />
        </g>
        <g
           transform="translate(393.0755,46.9346)"
           id="g6394">
          <path
             id="path6396"
             style="fill:#469892;fill-opacity:1;fill-rule:evenodd;stroke:none"
             d="M 0,0 V -0.163 C -0.001,-0.184 -0.001,-0.204 0,-0.225 V -0.342 C -0.106,-0.244 -0.107,-0.098 0,0 M -0.118,0.178 C -0.079,0.167 -0.04,0.155 0,0.142 V 0.153 C -0.039,0.162 -0.079,0.17 -0.118,0.178 M 0,-0.163 V 0 C 0.022,0.02 0.049,0.039 0.08,0.054 0.035,0.005 0.006,-0.078 0,-0.163 m 0,-0.179 v 0.117 C 0.004,-0.283 0.02,-0.339 0.052,-0.38 0.032,-0.368 0.015,-0.355 0,-0.342 m 0.46,0.086 v -0.147 c -0.005,-0.029 -0.006,-0.059 0,-0.087 v -0.046 c -0.156,0.091 -0.11,0.205 0,0.28 m 0,0.436 V 0.141 L 0.315,0.132 C 0.341,0.155 0.393,0.172 0.46,0.18 M 0,0.142 C 0.148,0.094 0.304,0.031 0.46,-0.04 V 0.014 C 0.31,0.07 0.155,0.118 0,0.153 Z m 0.46,-0.545 v 0.147 c 0.03,0.02 0.064,0.037 0.1,0.05 -0.034,-0.036 -0.086,-0.113 -0.1,-0.197 m 0,-0.133 v 0.046 c 0.004,-0.02 0.011,-0.039 0.022,-0.058 z m 0.464,0.002 v -0.161 c -0.105,0.064 -0.091,0.109 0,0.161 m 0,0.491 V -0.072 L 0.787,-0.083 c 0.042,0.017 0.089,0.03 0.137,0.04 m 0,0.16 V 0.113 C 0.797,0.152 0.603,0.149 0.46,0.141 V 0.18 c 0.135,0.017 0.329,0 0.464,-0.063 M 0.46,-0.04 c 0.158,-0.072 0.316,-0.153 0.464,-0.236 v 0.085 C 0.779,-0.116 0.622,-0.046 0.46,0.014 Z m 0.464,0.153 v 0.004 l 0.02,-0.011 z m 0,-0.185 v 0.029 c 0.181,0.038 0.394,0.024 0.542,-0.075 -0.136,0.062 -0.348,0.06 -0.542,0.046 m 0,-0.623 v 0.161 c 0.021,0.012 0.046,0.024 0.074,0.037 -0.075,-0.074 -0.097,-0.124 -0.02,-0.227 -0.021,0.01 -0.039,0.02 -0.054,0.029 m 0.579,0.393 v -0.04 c -0.085,0.009 -0.171,0.011 -0.229,0.008 0.053,0.035 0.142,0.045 0.229,0.032 M 0.924,-0.276 C 1.148,-0.402 1.352,-0.534 1.503,-0.65 v 0.092 c -0.149,0.121 -0.349,0.25 -0.579,0.367 z m 0.579,-0.066 v 0.04 c 0.089,-0.012 0.178,-0.046 0.23,-0.1 -0.049,0.032 -0.138,0.051 -0.23,0.06 m 0,-0.308 c 0.153,-0.117 0.254,-0.218 0.27,-0.282 0.023,0.085 -0.083,0.222 -0.27,0.374 z" />
        </g>
        <g
           transform="translate(388.612,48.2165)"
           id="g6398">
          <path
             id="path6400"
             style="fill:#6db2ad;fill-opacity:1;fill-rule:evenodd;stroke:none"
             d="M 0,0 C -0.212,-1.321 1.066,-1.54 2.495,-1.353 2.508,0.156 0.203,-0.516 0,0" />
        </g>
        <g
           transform="translate(389.1843,47.3663)"
           id="g6402">
          <path
             id="path6404"
             style="fill:#469892;fill-opacity:1;fill-rule:evenodd;stroke:none"
             d="M 0,0 V -0.039 C -0.088,-0.029 -0.177,0.003 -0.233,0.053 -0.181,0.023 -0.091,0.007 0,0 M 0,0.287 C -0.182,0.408 -0.307,0.514 -0.331,0.581 -0.345,0.494 -0.216,0.353 0,0.201 Z M 0,-0.039 V 0 C 0.086,-0.007 0.175,-0.006 0.233,-0.001 0.182,-0.038 0.092,-0.05 0,-0.039 m 0.555,-0.219 v -0.036 c -0.163,-0.027 -0.348,-0.012 -0.49,0.072 0.129,-0.053 0.314,-0.051 0.49,-0.036 m 0,0.62 V 0.206 C 0.537,0.194 0.515,0.182 0.49,0.169 0.556,0.245 0.573,0.296 0.485,0.397 0.513,0.385 0.536,0.373 0.555,0.362 m 0,-0.394 C 0.345,0.075 0.152,0.186 0,0.287 V 0.201 C 0.149,0.096 0.341,-0.014 0.555,-0.115 Z m 0,0.238 v 0.156 c 0.101,-0.059 0.087,-0.103 0,-0.156 m 0,-0.5 v 0.036 c 0.066,0.006 0.132,0.013 0.192,0.02 C 0.69,-0.263 0.624,-0.282 0.555,-0.294 M 1.049,-0.456 V -0.497 C 0.913,-0.509 0.737,-0.491 0.611,-0.431 0.727,-0.47 0.905,-0.466 1.049,-0.456 m 0,0.665 V -0.059 C 1.023,-0.079 0.992,-0.096 0.96,-0.109 1.007,-0.051 1.087,0.113 1,0.235 1.018,0.227 1.035,0.218 1.049,0.209 m 0,-0.468 C 0.881,-0.19 0.714,-0.112 0.555,-0.032 V -0.115 C 0.71,-0.187 0.877,-0.256 1.049,-0.314 Z m 0,0.2 v 0.268 c 0.138,-0.085 0.099,-0.195 0,-0.268 m 0,-0.438 v 0.041 c 0.08,0.006 0.149,0.014 0.192,0.017 C 1.213,-0.469 1.14,-0.49 1.049,-0.497 m 0.477,0.52 V -0.314 C 1.509,-0.329 1.49,-0.342 1.468,-0.354 1.544,-0.257 1.548,-0.033 1.448,0.08 1.478,0.063 1.504,0.044 1.526,0.023 m 0,-0.453 c -0.153,0.045 -0.315,0.104 -0.477,0.171 v -0.055 c 0.156,-0.053 0.317,-0.098 0.477,-0.13 z m 0,0.116 v 0.337 c 0.102,-0.099 0.106,-0.242 0,-0.337 M 1.679,-0.472 C 1.629,-0.46 1.578,-0.446 1.526,-0.43 v -0.014 c 0.051,-0.011 0.102,-0.02 0.153,-0.028" />
        </g>
        <g
           transform="translate(371.558,54.9382)"
           id="g6406">
          <path
             id="path6408"
             style="fill:#469892;fill-opacity:1;fill-rule:evenodd;stroke:none"
             d="M 0,0 C -0.212,-1.322 1.065,-1.54 2.495,-1.353 2.508,0.156 0.203,-0.516 0,0" />
        </g>
        <g
           transform="translate(372.1303,54.0881)"
           id="g6410">
          <path
             id="path6412"
             style="fill:#469892;fill-opacity:1;fill-rule:evenodd;stroke:none"
             d="M 0,0 V -0.039 C -0.088,-0.029 -0.177,0.003 -0.233,0.053 -0.181,0.023 -0.092,0.007 0,0 M 0,0.287 C -0.183,0.408 -0.307,0.514 -0.331,0.581 -0.345,0.493 -0.216,0.352 0,0.201 Z M 0,-0.039 V 0 C 0.086,-0.007 0.175,-0.006 0.233,-0.001 0.182,-0.038 0.092,-0.05 0,-0.039 m 0.555,-0.219 v -0.036 c -0.163,-0.028 -0.348,-0.013 -0.49,0.072 0.129,-0.053 0.314,-0.051 0.49,-0.036 m 0,0.619 V 0.205 C 0.537,0.194 0.515,0.182 0.49,0.169 0.556,0.245 0.573,0.296 0.485,0.397 0.513,0.384 0.536,0.373 0.555,0.361 m 0,-0.393 C 0.345,0.075 0.152,0.186 0,0.287 V 0.201 C 0.149,0.096 0.341,-0.014 0.555,-0.115 Z m 0,0.237 v 0.156 c 0.101,-0.058 0.087,-0.102 0,-0.156 m 0,-0.499 v 0.036 c 0.066,0.005 0.132,0.013 0.192,0.02 C 0.69,-0.263 0.624,-0.282 0.555,-0.294 M 1.049,-0.456 V -0.498 C 0.913,-0.509 0.737,-0.491 0.611,-0.431 0.727,-0.47 0.905,-0.467 1.049,-0.456 m 0,0.665 V -0.06 C 1.023,-0.079 0.992,-0.096 0.96,-0.109 1.007,-0.051 1.087,0.113 1,0.235 1.019,0.227 1.035,0.217 1.049,0.209 m 0,-0.468 C 0.881,-0.19 0.714,-0.112 0.555,-0.032 V -0.115 C 0.71,-0.188 0.877,-0.256 1.049,-0.314 Z m 0,0.199 v 0.269 c 0.138,-0.086 0.099,-0.196 0,-0.269 m 0,-0.438 v 0.042 c 0.08,0.006 0.15,0.013 0.192,0.017 C 1.213,-0.469 1.14,-0.49 1.049,-0.498 M 1.526,0.023 V -0.314 C 1.509,-0.329 1.49,-0.342 1.468,-0.355 1.544,-0.257 1.548,-0.033 1.448,0.08 1.478,0.063 1.504,0.044 1.526,0.023 m 0,-0.454 c -0.153,0.046 -0.315,0.105 -0.477,0.172 v -0.055 c 0.156,-0.053 0.317,-0.098 0.477,-0.131 z m 0,0.117 v 0.337 c 0.102,-0.099 0.106,-0.242 0,-0.337 m 0.153,-0.159 c -0.05,0.013 -0.101,0.027 -0.153,0.042 v -0.014 c 0.051,-0.01 0.102,-0.02 0.153,-0.028" />
        </g>
        <g
           transform="translate(382.8132,52.2635)"
           id="g6414">
          <path
             id="path6416"
             style="fill:#6db2ad;fill-opacity:1;fill-rule:evenodd;stroke:none"
             d="M 0,0 C 0.358,1.313 -0.894,1.568 -2.341,1.422 -2.521,-0.085 -0.146,0.521 0,0" />
        </g>
        <g
           transform="translate(380.8292,53.4705)"
           id="g6418">
          <path
             id="path6420"
             style="fill:#469892;fill-opacity:1;fill-rule:evenodd;stroke:none"
             d="M 0,0 V -0.163 C -0.001,-0.184 -0.001,-0.204 0,-0.225 V -0.342 C -0.105,-0.244 -0.107,-0.098 0,0 M -0.118,0.178 C -0.079,0.167 -0.04,0.155 0,0.142 V 0.153 Z M 0,-0.163 V 0 C 0.022,0.02 0.049,0.038 0.08,0.054 0.035,0.005 0.006,-0.078 0,-0.163 m 0,-0.179 v 0.117 C 0.004,-0.283 0.02,-0.339 0.052,-0.38 0.033,-0.368 0.015,-0.355 0,-0.342 m 0.46,0.086 v -0.147 c -0.005,-0.029 -0.006,-0.058 0,-0.087 v -0.046 c -0.156,0.091 -0.109,0.205 0,0.28 m 0,0.436 V 0.141 L 0.316,0.132 C 0.341,0.155 0.393,0.171 0.46,0.18 M 0,0.142 C 0.148,0.093 0.304,0.031 0.46,-0.04 V 0.014 C 0.31,0.07 0.155,0.118 0,0.153 Z m 0.46,-0.545 v 0.147 c 0.03,0.02 0.064,0.037 0.1,0.05 -0.034,-0.036 -0.085,-0.113 -0.1,-0.197 m 0,-0.133 v 0.046 c 0.004,-0.02 0.011,-0.039 0.022,-0.058 z m 0.464,0.002 v -0.161 c -0.105,0.064 -0.091,0.109 0,0.161 m 0,0.491 V -0.072 L 0.787,-0.083 c 0.042,0.017 0.089,0.03 0.137,0.04 m 0,0.16 V 0.113 C 0.797,0.153 0.603,0.148 0.46,0.141 V 0.18 c 0.135,0.017 0.328,0 0.464,-0.063 M 0.46,-0.04 C 0.618,-0.112 0.776,-0.193 0.924,-0.276 V -0.19 C 0.779,-0.116 0.622,-0.046 0.46,0.014 Z m 0.464,0.153 v 0.004 l 0.02,-0.011 z m 0,-0.185 v 0.029 c 0.181,0.038 0.394,0.024 0.543,-0.075 -0.136,0.062 -0.349,0.06 -0.543,0.046 m 0,-0.623 v 0.161 c 0.021,0.012 0.046,0.024 0.074,0.037 -0.074,-0.074 -0.097,-0.124 -0.02,-0.227 -0.02,0.01 -0.039,0.02 -0.054,0.029 m 0.58,0.393 v -0.04 c -0.085,0.009 -0.172,0.011 -0.23,0.008 0.053,0.035 0.142,0.044 0.23,0.032 m -0.58,0.026 c 0.225,-0.127 0.428,-0.258 0.58,-0.374 v 0.092 c -0.149,0.121 -0.35,0.25 -0.58,0.368 z m 0.58,-0.066 v 0.04 c 0.089,-0.012 0.177,-0.046 0.229,-0.1 -0.048,0.032 -0.138,0.051 -0.229,0.06 m 0,-0.308 c 0.152,-0.117 0.253,-0.218 0.269,-0.282 0.023,0.085 -0.082,0.222 -0.269,0.374 z" />
        </g>
        <g
           transform="translate(367.4321,51.2801)"
           id="g6422">
          <path
             id="path6424"
             style="fill:#6db2ad;fill-opacity:1;fill-rule:evenodd;stroke:none"
             d="M 0,0 C -0.212,-1.321 1.066,-1.54 2.495,-1.353 2.508,0.156 0.203,-0.516 0,0" />
        </g>
        <g
           transform="translate(368.0047,50.43)"
           id="g6426">
          <path
             id="path6428"
             style="fill:#469892;fill-opacity:1;fill-rule:evenodd;stroke:none"
             d="M 0,0 V -0.039 C -0.088,-0.029 -0.177,0.003 -0.233,0.053 -0.182,0.023 -0.092,0.007 0,0 M 0,0.287 C -0.183,0.408 -0.307,0.514 -0.331,0.581 -0.346,0.493 -0.217,0.352 0,0.201 Z M 0,-0.039 V 0 C 0.086,-0.007 0.175,-0.006 0.233,-0.001 0.182,-0.039 0.092,-0.05 0,-0.039 M 0.555,-0.258 V -0.294 C 0.391,-0.321 0.206,-0.306 0.064,-0.222 0.193,-0.275 0.379,-0.273 0.555,-0.258 m 0,0.619 V 0.205 C 0.537,0.194 0.515,0.182 0.49,0.169 0.556,0.245 0.573,0.296 0.485,0.397 0.512,0.384 0.536,0.372 0.555,0.361 m 0,-0.393 C 0.345,0.075 0.152,0.186 0,0.287 V 0.201 C 0.149,0.096 0.34,-0.014 0.555,-0.115 Z m 0,0.237 v 0.156 c 0.1,-0.058 0.086,-0.102 0,-0.156 m 0,-0.499 v 0.036 c 0.066,0.006 0.131,0.013 0.191,0.02 C 0.69,-0.263 0.624,-0.282 0.555,-0.294 M 1.049,-0.456 V -0.498 C 0.913,-0.509 0.737,-0.491 0.61,-0.431 0.727,-0.47 0.905,-0.466 1.049,-0.456 m 0,0.665 V -0.06 C 1.023,-0.079 0.992,-0.096 0.96,-0.109 1.007,-0.051 1.086,0.113 1,0.235 1.018,0.227 1.035,0.217 1.049,0.209 m 0,-0.469 C 0.881,-0.19 0.713,-0.112 0.555,-0.032 V -0.115 C 0.71,-0.188 0.877,-0.256 1.049,-0.314 Z m 0,0.2 v 0.269 c 0.138,-0.086 0.099,-0.195 0,-0.269 m 0,-0.438 v 0.042 c 0.08,0.006 0.149,0.014 0.192,0.017 C 1.212,-0.469 1.14,-0.49 1.049,-0.498 M 1.526,0.023 V -0.314 C 1.509,-0.329 1.49,-0.342 1.468,-0.354 1.544,-0.257 1.548,-0.033 1.448,0.08 1.478,0.063 1.504,0.044 1.526,0.023 m 0,-0.454 C 1.373,-0.385 1.211,-0.327 1.049,-0.26 v -0.054 c 0.156,-0.053 0.317,-0.098 0.477,-0.13 z m 0,0.117 v 0.337 c 0.101,-0.099 0.106,-0.242 0,-0.337 m 0.153,-0.158 c -0.05,0.012 -0.101,0.026 -0.153,0.041 v -0.013 c 0.051,-0.011 0.102,-0.02 0.153,-0.028" />
        </g>
        <g
           transform="translate(375.6118,49.1559)"
           id="g6430">
          <path
             id="path6432"
             style="fill:#469892;fill-opacity:1;fill-rule:evenodd;stroke:none"
             d="M 0,0 C 2.549,-0.277 3.14,0.34 2.958,1.085 0.018,1.285 1.032,0.036 0,0" />
        </g>
        <g
           transform="translate(376.8536,49.6882)"
           id="g6434">
          <path
             id="path6436"
             style="fill:#469892;fill-opacity:1;fill-rule:evenodd;stroke:none"
             d="M 0,0 V -0.041 C -0.061,-0.039 -0.131,-0.043 -0.222,-0.057 -0.132,-0.017 -0.062,0.001 0,0 m 0,-0.295 c -0.289,-0.089 -0.541,-0.146 -0.686,-0.15 0.152,-0.017 0.402,0.019 0.686,0.092 z m 0,0.254 V 0 C 0.078,-0.001 0.144,-0.032 0.223,-0.084 0.144,-0.059 0.079,-0.044 0,-0.041 m 0.492,-0.306 v -0.069 c -0.036,-0.02 -0.081,-0.036 -0.136,-0.048 0.068,0.023 0.111,0.069 0.136,0.117 m 0,0.578 V 0.178 C 0.384,0.189 0.267,0.194 0.16,0.182 0.266,0.229 0.384,0.24 0.492,0.231 m 0,-0.358 C 0.325,-0.19 0.157,-0.247 0,-0.295 v -0.058 c 0.158,0.04 0.326,0.092 0.492,0.151 z m 0,0.305 V 0.231 C 0.635,0.219 0.762,0.17 0.825,0.117 0.764,0.135 0.637,0.163 0.492,0.178 m 0,-0.594 v 0.069 c 0.022,0.041 0.031,0.083 0.029,0.111 0.098,-0.044 0.077,-0.124 -0.029,-0.18 m 0.452,0.074 V -0.344 L 0.93,-0.349 Z m 0,0.781 V 0.398 C 0.79,0.407 0.631,0.405 0.52,0.388 0.631,0.429 0.789,0.445 0.944,0.439 m 0,-0.382 C 0.799,-0.007 0.646,-0.07 0.492,-0.127 v -0.075 c 0.155,0.056 0.308,0.118 0.452,0.186 z m 0,0.341 V 0.439 C 1.111,0.433 1.274,0.4 1.369,0.342 1.275,0.368 1.112,0.389 0.944,0.398 m 0,-0.742 v 0.002 c 0.15,0.082 0.127,0.224 0.105,0.335 0.138,-0.105 0.142,-0.25 -0.105,-0.337 M 1.501,0.019 V -0.048 C 1.476,-0.067 1.445,-0.085 1.409,-0.1 c 0.052,0.03 0.079,0.074 0.092,0.119 m 0,0.327 C 1.353,0.251 1.158,0.152 0.944,0.057 v -0.073 c 0.218,0.102 0.414,0.215 0.557,0.332 z m 0,-0.394 V 0.019 C 1.524,0.096 1.507,0.178 1.505,0.217 1.62,0.179 1.63,0.048 1.501,-0.048 M 1.626,0.433 C 1.589,0.405 1.548,0.376 1.501,0.346 v -0.03 c 0.048,0.039 0.09,0.078 0.125,0.117" />
        </g>
        <g
           transform="translate(392.3407,52.9945)"
           id="g6438">
          <path
             id="path6440"
             style="fill:#6db2ad;fill-opacity:1;fill-rule:evenodd;stroke:none"
             d="M 0,0 C 2.591,-0.145 3.057,0.498 2.729,1.23 -0.236,1.28 1.02,0.089 0,0" />
        </g>
        <g
           transform="translate(393.4854,53.5878)"
           id="g6442">
          <path
             id="path6444"
             style="fill:#469892;fill-opacity:1;fill-rule:evenodd;stroke:none"
             d="m 0,0 v -0.041 c -0.063,0 -0.133,-0.008 -0.224,-0.027 C -0.135,-0.02 -0.066,0.001 0,0 m 0,-0.31 c -0.252,-0.094 -0.474,-0.157 -0.609,-0.168 0.144,-0.008 0.363,0.033 0.609,0.109 z m 0,0.269 V 0 C 0.072,-0.001 0.14,-0.028 0.224,-0.072 0.143,-0.052 0.077,-0.04 0,-0.041 M 0.446,-0.436 V -0.439 L 0.431,-0.443 Z m 0,0.69 V 0.202 C 0.335,0.208 0.215,0.207 0.109,0.189 0.21,0.243 0.331,0.26 0.446,0.254 m 0,0.167 V 0.416 L 0.427,0.412 Z m 0,-0.547 C 0.294,-0.195 0.142,-0.257 0,-0.31 v -0.059 c 0.143,0.045 0.295,0.1 0.446,0.164 z m 0,0.328 V 0.254 C 0.585,0.247 0.713,0.206 0.783,0.159 0.72,0.173 0.59,0.194 0.446,0.202 m 0,-0.641 v 0.003 c 0.104,0.053 0.12,0.17 0.104,0.228 0.139,-0.051 0.088,-0.174 -0.104,-0.231 m 0.408,0.924 v -0.04 c -0.149,0 -0.3,-0.008 -0.408,-0.029 v 0.005 c 0.105,0.042 0.257,0.064 0.408,0.064 m 0,-0.412 C 0.723,0.003 0.585,-0.064 0.446,-0.126 v -0.079 c 0.139,0.059 0.278,0.125 0.408,0.195 z M 1.068,-0.198 V -0.254 C 1.044,-0.27 1.015,-0.285 0.98,-0.3 c 0.049,0.029 0.076,0.064 0.088,0.102 m 0,0.219 V -0.065 C 1.059,-0.026 1.044,0.012 1.031,0.047 Z m 0,0.449 V 0.437 C 1.001,0.442 0.928,0.445 0.854,0.445 v 0.04 c 0.073,0 0.147,-0.005 0.214,-0.015 m 0,-0.278 C 1,0.152 0.928,0.112 0.854,0.073 V -0.01 C 0.929,0.031 1,0.073 1.068,0.117 Z m 0,0.245 V 0.47 C 1.15,0.458 1.224,0.438 1.28,0.41 1.227,0.422 1.152,0.432 1.068,0.437 m 0,-0.691 v 0.056 c 0.015,0.042 0.011,0.088 0,0.133 v 0.086 c 0.107,-0.082 0.129,-0.189 0,-0.275 M 1.463,0.042 V 0.007 C 1.447,-0.006 1.428,-0.017 1.407,-0.028 c 0.027,0.02 0.045,0.044 0.056,0.07 m 0,0.243 V 0.214 L 1.44,0.292 Z m 0,0.178 C 1.362,0.376 1.225,0.284 1.068,0.192 V 0.117 C 1.231,0.22 1.369,0.331 1.463,0.441 Z m 0,-0.456 v 0.035 c 0.023,0.056 0.013,0.12 0,0.172 v 0.071 c 0.111,-0.045 0.131,-0.18 0,-0.278 M 1.518,0.514 C 1.501,0.497 1.483,0.48 1.463,0.463 V 0.441 c 0.02,0.024 0.039,0.049 0.055,0.073" />
        </g>
        <g
           transform="translate(363.8687,53.7707)"
           id="g6446">
          <path
             id="path6448"
             style="fill:#6db2ad;fill-opacity:1;fill-rule:evenodd;stroke:none"
             d="M 0,0 C 2.591,-0.146 3.057,0.498 2.729,1.23 -0.236,1.279 1.02,0.088 0,0" />
        </g>
        <g
           transform="translate(365.0133,54.3637)"
           id="g6450">
          <path
             id="path6452"
             style="fill:#469892;fill-opacity:1;fill-rule:evenodd;stroke:none"
             d="m 0,0 v -0.041 c -0.063,0 -0.133,-0.008 -0.224,-0.027 C -0.136,-0.02 -0.066,0 0,0 m 0,-0.31 c -0.252,-0.094 -0.474,-0.158 -0.609,-0.168 0.144,-0.008 0.363,0.033 0.609,0.109 z m 0,0.269 V 0 C 0.072,-0.001 0.14,-0.028 0.224,-0.072 0.143,-0.053 0.077,-0.041 0,-0.041 M 0.446,-0.436 V -0.439 L 0.431,-0.443 Z m 0,0.69 V 0.202 C 0.335,0.208 0.215,0.207 0.109,0.189 0.21,0.243 0.331,0.26 0.446,0.254 m 0,0.167 V 0.416 L 0.427,0.412 Z m 0,-0.547 C 0.294,-0.195 0.142,-0.257 0,-0.31 v -0.059 c 0.143,0.044 0.295,0.1 0.446,0.164 z m 0,0.328 V 0.254 C 0.585,0.247 0.713,0.206 0.783,0.158 0.72,0.173 0.59,0.194 0.446,0.202 m 0,-0.641 v 0.003 c 0.104,0.053 0.119,0.17 0.104,0.228 0.139,-0.051 0.088,-0.174 -0.104,-0.231 M 0.853,0.485 V 0.445 C 0.705,0.445 0.554,0.436 0.446,0.416 v 0.005 c 0.105,0.042 0.257,0.064 0.407,0.064 m 0,-0.413 C 0.723,0.003 0.584,-0.064 0.446,-0.126 v -0.079 c 0.139,0.059 0.278,0.124 0.407,0.195 z m 0.215,-0.27 V -0.254 C 1.044,-0.27 1.015,-0.286 0.98,-0.3 c 0.049,0.029 0.076,0.064 0.088,0.102 m 0,0.219 V -0.065 C 1.059,-0.026 1.045,0.012 1.031,0.046 Z m 0,0.449 V 0.437 C 1.001,0.442 0.927,0.444 0.853,0.445 v 0.04 c 0.074,0 0.148,-0.005 0.215,-0.015 m 0,-0.278 C 1,0.152 0.928,0.112 0.853,0.072 V -0.01 C 0.929,0.031 1,0.073 1.068,0.117 Z m 0,0.245 V 0.47 C 1.15,0.458 1.224,0.438 1.28,0.41 1.227,0.422 1.152,0.431 1.068,0.437 m 0,-0.691 v 0.056 c 0.015,0.042 0.011,0.088 0,0.133 v 0.086 c 0.107,-0.083 0.129,-0.189 0,-0.275 M 1.463,0.042 V 0.007 C 1.446,-0.006 1.428,-0.017 1.407,-0.028 c 0.027,0.02 0.045,0.044 0.056,0.07 m 0,0.243 V 0.214 L 1.44,0.292 Z m 0,0.178 C 1.362,0.376 1.225,0.284 1.068,0.192 V 0.117 C 1.231,0.22 1.369,0.33 1.463,0.44 Z m 0,-0.456 v 0.035 c 0.023,0.055 0.013,0.12 0,0.172 v 0.071 c 0.111,-0.045 0.131,-0.18 0,-0.278 M 1.518,0.514 C 1.501,0.497 1.483,0.48 1.463,0.463 V 0.44 c 0.02,0.025 0.039,0.049 0.055,0.074" />
        </g>
        <g
           transform="translate(382.0025,60.0639)"
           id="g6454">
          <path
             id="path6456"
             style="fill:#6db2ad;fill-opacity:1;fill-rule:evenodd;stroke:none"
             d="M 0,0 C 2.591,-0.146 3.057,0.498 2.729,1.23 -0.236,1.279 1.02,0.089 0,0" />
        </g>
        <g
           transform="translate(383.1471,60.6569)"
           id="g6458">
          <path
             id="path6460"
             style="fill:#469892;fill-opacity:1;fill-rule:evenodd;stroke:none"
             d="m 0,0 v -0.041 c -0.063,0 -0.133,-0.008 -0.224,-0.027 C -0.135,-0.02 -0.066,0 0,0 m 0,-0.31 c -0.252,-0.094 -0.474,-0.157 -0.609,-0.168 0.144,-0.008 0.363,0.033 0.609,0.109 z m 0,0.269 V 0 C 0.072,-0.001 0.14,-0.028 0.224,-0.072 0.143,-0.053 0.077,-0.041 0,-0.041 M 0.447,-0.436 V -0.439 L 0.431,-0.443 Z m 0,0.69 V 0.202 C 0.335,0.208 0.215,0.207 0.109,0.189 0.21,0.243 0.332,0.26 0.447,0.254 m 0,0.167 V 0.416 L 0.427,0.412 Z m 0,-0.547 C 0.294,-0.195 0.142,-0.257 0,-0.31 v -0.059 c 0.143,0.044 0.295,0.1 0.447,0.164 z m 0,0.328 V 0.254 C 0.585,0.247 0.714,0.207 0.784,0.159 0.72,0.173 0.591,0.194 0.447,0.202 m 0,-0.641 v 0.003 c 0.103,0.053 0.118,0.17 0.104,0.228 0.138,-0.051 0.087,-0.174 -0.104,-0.231 M 0.854,0.485 V 0.445 C 0.705,0.446 0.555,0.437 0.447,0.416 v 0.005 c 0.105,0.042 0.256,0.064 0.407,0.064 m 0,-0.412 C 0.723,0.004 0.585,-0.064 0.447,-0.126 v -0.079 c 0.139,0.059 0.277,0.125 0.407,0.195 z M 1.069,-0.198 V -0.254 C 1.045,-0.27 1.015,-0.285 0.98,-0.3 c 0.049,0.029 0.076,0.064 0.089,0.102 m 0,0.219 V -0.065 C 1.059,-0.026 1.045,0.012 1.031,0.047 1.045,0.038 1.057,0.03 1.069,0.021 m 0,0.449 V 0.437 C 1.001,0.442 0.928,0.444 0.854,0.445 v 0.04 c 0.073,0 0.147,-0.005 0.215,-0.015 m 0,-0.278 C 1,0.152 0.928,0.112 0.854,0.073 V -0.01 c 0.075,0.041 0.147,0.083 0.215,0.127 z m 0,0.245 V 0.47 C 1.151,0.458 1.225,0.438 1.281,0.41 1.227,0.422 1.153,0.431 1.069,0.437 m 0,-0.691 v 0.056 c 0.014,0.042 0.01,0.088 0,0.133 v 0.086 c 0.106,-0.083 0.128,-0.189 0,-0.275 M 1.463,0.041 V 0.007 C 1.447,-0.005 1.428,-0.017 1.407,-0.028 c 0.027,0.02 0.045,0.044 0.056,0.069 m 0,0.244 V 0.216 C 1.454,0.247 1.445,0.275 1.44,0.292 Z m 0,0.178 C 1.362,0.377 1.225,0.284 1.069,0.192 V 0.117 c 0.162,0.103 0.3,0.214 0.394,0.324 z m 0,-0.456 v 0.034 c 0.023,0.056 0.013,0.122 0,0.175 v 0.069 c 0.112,-0.044 0.131,-0.18 0,-0.278 M 1.518,0.514 C 1.501,0.497 1.483,0.48 1.463,0.463 V 0.441 c 0.02,0.024 0.039,0.049 0.055,0.073" />
        </g>
        <g
           transform="translate(381.6638,45.4082)"
           id="g6462">
          <path
             id="path6464"
             style="fill:#6db2ad;fill-opacity:1;fill-rule:evenodd;stroke:none"
             d="M 0,0 C 2.591,-0.146 3.057,0.498 2.729,1.23 -0.236,1.279 1.02,0.089 0,0" />
        </g>
        <g
           transform="translate(382.8084,46.0012)"
           id="g6466">
          <path
             id="path6468"
             style="fill:#469892;fill-opacity:1;fill-rule:evenodd;stroke:none"
             d="m 0,0 v -0.041 c -0.063,0 -0.133,-0.008 -0.224,-0.027 C -0.135,-0.02 -0.066,0.001 0,0 m 0,-0.31 c -0.252,-0.094 -0.474,-0.157 -0.609,-0.168 0.144,-0.008 0.363,0.034 0.609,0.11 z m 0,0.269 V 0 C 0.072,-0.001 0.14,-0.027 0.224,-0.072 0.143,-0.053 0.077,-0.041 0,-0.041 M 0.446,-0.436 V -0.439 L 0.431,-0.443 Z m 0,0.69 V 0.202 C 0.335,0.208 0.215,0.207 0.109,0.189 0.21,0.243 0.331,0.26 0.446,0.254 m 0,0.167 V 0.416 L 0.427,0.412 Z m 0,-0.547 C 0.294,-0.195 0.142,-0.257 0,-0.31 v -0.058 c 0.143,0.044 0.295,0.099 0.446,0.163 z m 0,0.328 V 0.254 C 0.585,0.247 0.714,0.207 0.783,0.159 0.72,0.173 0.59,0.194 0.446,0.202 m 0,-0.641 v 0.003 c 0.104,0.053 0.12,0.17 0.105,0.228 0.138,-0.051 0.087,-0.174 -0.105,-0.231 M 0.854,0.485 V 0.445 C 0.705,0.446 0.554,0.437 0.446,0.416 v 0.005 c 0.105,0.042 0.257,0.064 0.408,0.064 m 0,-0.412 C 0.723,0.004 0.585,-0.064 0.446,-0.126 v -0.079 c 0.139,0.059 0.277,0.125 0.408,0.195 z M 1.068,-0.198 V -0.254 C 1.044,-0.27 1.015,-0.285 0.98,-0.3 c 0.049,0.029 0.076,0.064 0.088,0.102 m 0,0.219 V -0.065 C 1.059,-0.026 1.045,0.012 1.031,0.047 1.044,0.038 1.057,0.03 1.068,0.021 m 0,0.449 V 0.437 C 1.001,0.442 0.928,0.444 0.854,0.445 v 0.04 c 0.073,0 0.147,-0.005 0.214,-0.015 m 0,-0.278 C 1,0.152 0.928,0.112 0.854,0.073 V -0.01 c 0.074,0.041 0.147,0.083 0.214,0.127 z m 0,0.245 V 0.47 C 1.15,0.458 1.224,0.438 1.28,0.41 1.227,0.422 1.152,0.431 1.068,0.437 m 0,-0.691 v 0.056 c 0.015,0.042 0.011,0.088 0,0.133 v 0.086 c 0.107,-0.083 0.129,-0.189 0,-0.275 M 1.463,0.042 V 0.007 C 1.447,-0.005 1.428,-0.017 1.407,-0.028 c 0.027,0.02 0.045,0.044 0.056,0.07 m 0,0.243 V 0.215 L 1.44,0.292 Z m 0,0.178 C 1.362,0.377 1.225,0.284 1.068,0.192 V 0.117 C 1.231,0.22 1.369,0.331 1.463,0.441 Z m 0,-0.456 v 0.035 c 0.023,0.056 0.013,0.12 0,0.173 v 0.07 c 0.111,-0.045 0.131,-0.18 0,-0.278 M 1.518,0.514 C 1.501,0.497 1.483,0.48 1.463,0.463 V 0.441 c 0.02,0.024 0.039,0.049 0.055,0.073" />
        </g>
        <g
           transform="translate(365.1423,61.2788)"
           id="g6470">
          <path
             id="path6472"
             style="fill:#f4ad58;fill-opacity:1;fill-rule:evenodd;stroke:none"
             d="M 0,0 C -0.044,0.097 -0.114,0.114 0.022,0.256 0.159,0.398 0.003,0.372 0.146,0.506 0.288,0.64 0.346,0.64 0.493,0.715 0.641,0.791 0.54,0.861 0.738,0.894 0.937,0.927 0.87,0.939 0.976,0.952 1.083,0.965 1.046,1.014 1.185,1.024 1.323,1.033 1.436,1.038 1.609,1.053 1.781,1.068 1.877,1.149 2.033,1.147 2.189,1.145 2.273,1.137 2.502,1.129 2.731,1.122 2.877,1.146 3.198,1.08 3.518,1.014 3.33,0.942 3.575,0.886 3.82,0.831 3.974,0.806 4.084,0.724 4.194,0.641 4.182,0.593 4.258,0.556 4.335,0.518 4.376,0.424 4.415,0.384 4.454,0.345 4.376,0.268 4.428,0.185 4.48,0.102 4.581,0.045 4.559,-0.083 4.538,-0.21 4.362,-0.221 4.308,-0.303 4.253,-0.386 4.279,-0.446 4.185,-0.502 4.092,-0.559 3.983,-0.518 3.902,-0.577 3.82,-0.637 3.845,-0.67 3.759,-0.712 3.674,-0.753 3.534,-0.786 3.422,-0.818 3.311,-0.85 3.39,-0.906 3.098,-0.955 2.805,-1.004 2.754,-0.975 2.576,-0.996 2.397,-1.017 2.323,-1.034 2.141,-1.051 1.96,-1.067 2.081,-1.061 1.879,-0.998 1.677,-0.936 1.576,-0.943 1.45,-0.955 1.323,-0.967 1.337,-0.882 1.25,-0.869 1.163,-0.856 1.088,-0.86 0.933,-0.821 0.778,-0.783 0.858,-0.76 0.735,-0.712 0.612,-0.664 0.373,-0.617 0.287,-0.567 0.201,-0.517 0.248,-0.45 0.207,-0.369 0.167,-0.289 -0.03,-0.285 -0.039,-0.181 -0.049,-0.077 0.047,-0.104 0,0" />
        </g>
        <g
           transform="translate(366.3646,60.8363)"
           id="g6474">
          <path
             id="path6476"
             style="fill:#e28a4a;fill-opacity:1;fill-rule:evenodd;stroke:none"
             d="m 0,0 c -0.117,0.037 -0.166,0.029 -0.24,0.127 -0.074,0.098 -0.123,0.052 -0.186,0.147 -0.063,0.095 -0.036,0.108 -0.039,0.176 -0.003,0.069 -0.12,0.081 -0.058,0.14 0.063,0.059 0.019,0.05 0.057,0.08 0.038,0.029 -0.027,0.045 0.03,0.08 0.057,0.035 0.106,0.062 0.174,0.107 0.068,0.045 0.035,0.105 0.111,0.138 0.076,0.033 0.125,0.048 0.242,0.094 C 0.208,1.136 0.254,1.18 0.472,1.218 0.69,1.257 0.671,1.181 0.842,1.208 1.014,1.236 1.112,1.258 1.245,1.242 1.379,1.227 1.42,1.201 1.494,1.2 1.567,1.199 1.679,1.163 1.736,1.153 1.793,1.142 1.832,1.088 1.938,1.06 2.045,1.032 2.148,1.027 2.263,0.961 2.377,0.895 2.304,0.851 2.359,0.8 2.413,0.748 2.484,0.725 2.495,0.678 2.507,0.63 2.414,0.626 2.433,0.579 2.452,0.533 2.496,0.523 2.496,0.484 2.496,0.445 2.461,0.399 2.439,0.359 2.418,0.319 2.511,0.31 2.418,0.223 2.326,0.135 2.274,0.137 2.209,0.088 2.144,0.039 2.125,0.014 2.054,-0.033 1.984,-0.081 2.035,-0.051 1.877,-0.066 1.719,-0.08 1.678,-0.105 1.63,-0.139 1.581,-0.173 1.504,-0.129 1.45,-0.142 1.396,-0.155 1.363,-0.173 1.251,-0.189 1.139,-0.204 1.156,-0.176 1.05,-0.18 0.943,-0.184 0.783,-0.214 0.693,-0.208 0.603,-0.203 0.559,-0.161 0.461,-0.131 0.363,-0.102 0.265,-0.143 0.159,-0.096 0.052,-0.048 0.124,-0.039 0,0" />
        </g>
        <g
           transform="translate(367.9758,61.137)"
           id="g6478">
          <path
             id="path6480"
             style="fill:#c85235;fill-opacity:1;fill-rule:evenodd;stroke:none"
             d="M 0,0 C -0.035,-0.031 -0.024,-0.043 -0.129,-0.067 -0.234,-0.091 -0.18,-0.1 -0.283,-0.122 -0.385,-0.143 -0.401,-0.136 -0.478,-0.141 -0.554,-0.145 -0.56,-0.175 -0.63,-0.163 c -0.069,0.012 -0.057,0.002 -0.092,0.01 -0.035,0.008 -0.049,-0.009 -0.091,0.003 -0.042,0.012 -0.075,0.023 -0.129,0.037 -0.054,0.015 -0.118,0.004 -0.16,0.021 -0.041,0.017 -0.06,0.028 -0.118,0.055 -0.059,0.027 -0.11,0.036 -0.166,0.088 -0.055,0.053 0.031,0.052 -0.008,0.093 -0.04,0.042 -0.07,0.065 -0.06,0.099 0.009,0.034 0.036,0.046 0.033,0.064 -0.002,0.019 0.032,0.049 0.04,0.063 0.008,0.015 0.066,0.028 0.092,0.056 0.026,0.028 0.026,0.054 0.092,0.087 0.068,0.032 0.121,0.016 0.175,0.033 0.055,0.016 0.077,0.035 0.129,0.04 0.053,0.006 0.062,-0.017 0.113,-0.01 0.051,0.007 0.06,0.019 0.103,0.021 0.043,0.002 0.097,-0.004 0.142,-0.007 0.046,-0.004 0.051,0.02 0.154,0.002 C -0.278,0.573 -0.278,0.561 -0.22,0.547 -0.161,0.533 -0.133,0.53 -0.076,0.515 -0.019,0.5 -0.054,0.511 -0.03,0.473 -0.005,0.434 0.025,0.425 0.066,0.415 0.106,0.404 0.061,0.383 0.079,0.37 0.096,0.357 0.118,0.35 0.142,0.323 0.165,0.296 0.133,0.298 0.143,0.272 0.153,0.246 0.195,0.207 0.194,0.184 0.194,0.162 0.148,0.149 0.121,0.122 0.093,0.096 0.145,0.074 0.098,0.045 0.05,0.016 0.037,0.033 0,0" />
        </g>
        <g
           transform="translate(355.3443,45.1678)"
           id="g6482">
          <path
             id="path6484"
             style="fill:#f4ad58;fill-opacity:1;fill-rule:evenodd;stroke:none"
             d="M 0,0 C -0.044,0.097 -0.114,0.114 0.022,0.256 0.159,0.398 0.004,0.372 0.146,0.506 0.288,0.64 0.346,0.641 0.494,0.716 0.641,0.791 0.54,0.861 0.739,0.894 0.937,0.927 0.87,0.939 0.976,0.952 1.083,0.966 1.046,1.015 1.185,1.024 1.323,1.034 1.436,1.038 1.609,1.053 1.782,1.069 1.877,1.149 2.033,1.147 2.189,1.146 2.273,1.137 2.502,1.129 2.731,1.122 2.877,1.146 3.198,1.081 3.518,1.015 3.33,0.942 3.575,0.887 3.82,0.831 3.974,0.806 4.084,0.724 4.194,0.641 4.182,0.593 4.258,0.556 4.335,0.518 4.376,0.424 4.415,0.385 4.454,0.346 4.376,0.268 4.428,0.185 4.481,0.102 4.581,0.045 4.56,-0.082 4.538,-0.21 4.363,-0.22 4.308,-0.303 4.253,-0.385 4.279,-0.445 4.185,-0.502 4.092,-0.559 3.983,-0.518 3.902,-0.577 3.82,-0.637 3.845,-0.67 3.759,-0.711 3.674,-0.753 3.534,-0.785 3.422,-0.818 3.311,-0.85 3.391,-0.906 3.098,-0.955 2.805,-1.004 2.754,-0.975 2.576,-0.996 2.398,-1.017 2.323,-1.034 2.141,-1.051 1.96,-1.067 2.081,-1.061 1.879,-0.998 1.677,-0.935 1.576,-0.943 1.45,-0.955 1.323,-0.967 1.337,-0.882 1.25,-0.869 1.163,-0.856 1.088,-0.86 0.933,-0.821 0.778,-0.783 0.858,-0.76 0.735,-0.712 0.612,-0.664 0.373,-0.617 0.288,-0.567 0.202,-0.517 0.248,-0.449 0.207,-0.369 0.167,-0.288 -0.03,-0.285 -0.039,-0.181 -0.049,-0.077 0.047,-0.104 0,0" />
        </g>
        <g
           transform="translate(356.5666,44.7253)"
           id="g6486">
          <path
             id="path6488"
             style="fill:#e28a4a;fill-opacity:1;fill-rule:evenodd;stroke:none"
             d="m 0,0 c -0.116,0.037 -0.166,0.03 -0.24,0.128 -0.074,0.097 -0.123,0.051 -0.186,0.146 -0.063,0.095 -0.036,0.108 -0.039,0.177 -0.003,0.068 -0.12,0.08 -0.058,0.139 0.063,0.059 0.019,0.05 0.057,0.08 0.038,0.03 -0.027,0.045 0.03,0.08 0.057,0.035 0.106,0.062 0.174,0.107 0.068,0.045 0.035,0.105 0.111,0.138 0.076,0.033 0.125,0.048 0.242,0.094 C 0.208,1.136 0.254,1.18 0.472,1.219 0.69,1.257 0.671,1.182 0.842,1.208 1.014,1.236 1.112,1.258 1.246,1.242 1.379,1.227 1.42,1.202 1.494,1.2 1.567,1.199 1.679,1.163 1.736,1.153 1.793,1.142 1.832,1.088 1.938,1.06 2.045,1.032 2.148,1.026 2.263,0.961 2.378,0.895 2.304,0.852 2.359,0.8 2.414,0.748 2.485,0.725 2.495,0.678 2.507,0.63 2.414,0.626 2.433,0.58 2.452,0.533 2.496,0.523 2.496,0.484 2.496,0.446 2.461,0.399 2.44,0.359 2.418,0.319 2.511,0.31 2.419,0.223 2.326,0.135 2.274,0.137 2.209,0.088 2.144,0.039 2.125,0.015 2.054,-0.033 1.984,-0.081 2.035,-0.051 1.877,-0.065 1.72,-0.079 1.679,-0.106 1.63,-0.139 1.581,-0.173 1.504,-0.129 1.45,-0.142 1.396,-0.155 1.363,-0.173 1.251,-0.188 1.14,-0.204 1.156,-0.176 1.05,-0.179 0.943,-0.183 0.783,-0.213 0.693,-0.208 0.603,-0.203 0.559,-0.161 0.461,-0.131 0.363,-0.102 0.265,-0.143 0.159,-0.095 0.052,-0.048 0.124,-0.039 0,0" />
        </g>
        <g
           transform="translate(358.1779,45.0261)"
           id="g6490">
          <path
             id="path6492"
             style="fill:#c85235;fill-opacity:1;fill-rule:evenodd;stroke:none"
             d="M 0,0 C -0.035,-0.031 -0.024,-0.043 -0.129,-0.067 -0.234,-0.09 -0.18,-0.101 -0.283,-0.121 -0.386,-0.142 -0.401,-0.136 -0.477,-0.14 -0.554,-0.146 -0.56,-0.175 -0.63,-0.163 c -0.069,0.012 -0.057,0.002 -0.092,0.01 -0.035,0.008 -0.049,-0.009 -0.091,0.003 -0.042,0.012 -0.075,0.023 -0.129,0.038 -0.054,0.014 -0.118,0.002 -0.16,0.02 -0.041,0.017 -0.06,0.028 -0.118,0.055 -0.059,0.027 -0.11,0.036 -0.166,0.088 -0.055,0.053 0.031,0.052 -0.008,0.093 -0.04,0.042 -0.07,0.065 -0.06,0.099 0.009,0.034 0.036,0.046 0.033,0.064 -0.002,0.019 0.032,0.049 0.04,0.064 0.008,0.015 0.066,0.027 0.092,0.055 0.026,0.028 0.026,0.054 0.093,0.087 0.067,0.032 0.12,0.016 0.174,0.033 0.055,0.016 0.077,0.035 0.129,0.04 0.053,0.005 0.062,-0.017 0.113,-0.01 0.051,0.007 0.06,0.019 0.103,0.021 0.043,0.002 0.097,-0.004 0.142,-0.007 0.046,-0.004 0.051,0.02 0.154,0.002 C -0.278,0.574 -0.278,0.561 -0.22,0.547 -0.161,0.533 -0.133,0.53 -0.076,0.515 -0.019,0.5 -0.055,0.511 -0.03,0.473 -0.005,0.434 0.026,0.425 0.066,0.415 0.106,0.404 0.061,0.383 0.079,0.37 0.096,0.357 0.118,0.35 0.142,0.323 0.165,0.296 0.133,0.298 0.143,0.272 0.153,0.246 0.195,0.207 0.194,0.184 0.194,0.162 0.148,0.148 0.121,0.122 0.094,0.096 0.145,0.074 0.098,0.045 0.05,0.016 0.037,0.033 0,0" />
        </g>
        <g
           transform="translate(396.2386,48.7817)"
           id="g6494">
          <path
             id="path6496"
             style="fill:#f4ad58;fill-opacity:1;fill-rule:evenodd;stroke:none"
             d="M 0,0 C -0.044,0.097 -0.114,0.114 0.022,0.256 0.159,0.398 0.003,0.372 0.146,0.506 0.288,0.64 0.346,0.64 0.494,0.716 0.641,0.791 0.54,0.861 0.738,0.894 0.937,0.927 0.87,0.939 0.976,0.952 1.083,0.965 1.046,1.014 1.185,1.024 1.323,1.033 1.436,1.038 1.608,1.053 1.781,1.068 1.877,1.148 2.033,1.147 2.189,1.146 2.273,1.137 2.502,1.129 2.73,1.122 2.877,1.146 3.198,1.08 3.518,1.014 3.33,0.942 3.575,0.886 3.82,0.831 3.974,0.806 4.084,0.724 4.194,0.641 4.181,0.593 4.258,0.556 4.335,0.518 4.376,0.424 4.415,0.384 4.454,0.345 4.376,0.268 4.428,0.185 4.48,0.102 4.581,0.045 4.56,-0.082 4.538,-0.21 4.362,-0.221 4.308,-0.303 4.253,-0.386 4.278,-0.446 4.185,-0.502 4.092,-0.559 3.983,-0.518 3.902,-0.577 3.82,-0.637 3.844,-0.67 3.759,-0.711 3.674,-0.753 3.534,-0.786 3.422,-0.818 3.31,-0.851 3.391,-0.906 3.098,-0.955 2.804,-1.004 2.754,-0.975 2.576,-0.996 2.397,-1.017 2.323,-1.034 2.141,-1.051 1.96,-1.067 2.081,-1.061 1.879,-0.998 1.677,-0.936 1.576,-0.943 1.449,-0.955 1.323,-0.967 1.337,-0.882 1.25,-0.869 1.163,-0.856 1.087,-0.86 0.933,-0.821 0.778,-0.783 0.858,-0.76 0.735,-0.712 c -0.123,0.048 -0.362,0.095 -0.448,0.145 -0.085,0.05 -0.039,0.118 -0.08,0.198 -0.04,0.08 -0.237,0.084 -0.246,0.188 C -0.049,-0.077 0.047,-0.104 0,0" />
        </g>
        <g
           transform="translate(397.4607,48.3392)"
           id="g6498">
          <path
             id="path6500"
             style="fill:#e28a4a;fill-opacity:1;fill-rule:evenodd;stroke:none"
             d="m 0,0 c -0.117,0.037 -0.166,0.029 -0.24,0.127 -0.074,0.098 -0.123,0.052 -0.186,0.147 -0.063,0.095 -0.036,0.108 -0.039,0.177 -0.003,0.068 -0.12,0.08 -0.058,0.139 0.063,0.059 0.019,0.05 0.057,0.08 0.038,0.029 -0.027,0.045 0.03,0.08 0.057,0.035 0.106,0.061 0.174,0.107 0.068,0.045 0.035,0.104 0.111,0.138 0.076,0.033 0.125,0.048 0.242,0.094 C 0.208,1.135 0.254,1.18 0.472,1.218 0.69,1.257 0.671,1.181 0.842,1.208 1.014,1.236 1.112,1.258 1.245,1.242 1.379,1.227 1.42,1.201 1.493,1.2 1.567,1.199 1.679,1.163 1.737,1.152 1.794,1.142 1.832,1.088 1.938,1.06 2.045,1.032 2.148,1.027 2.263,0.961 2.377,0.895 2.304,0.852 2.359,0.8 2.414,0.748 2.484,0.725 2.496,0.678 2.507,0.63 2.414,0.626 2.433,0.58 2.452,0.533 2.496,0.523 2.496,0.484 2.496,0.445 2.461,0.399 2.44,0.359 2.418,0.319 2.511,0.31 2.418,0.223 2.326,0.135 2.275,0.137 2.209,0.088 2.144,0.039 2.125,0.014 2.054,-0.033 1.984,-0.081 2.035,-0.051 1.877,-0.066 1.719,-0.08 1.679,-0.106 1.63,-0.139 1.581,-0.173 1.505,-0.129 1.45,-0.142 1.396,-0.155 1.363,-0.173 1.251,-0.188 1.14,-0.204 1.156,-0.176 1.05,-0.18 0.943,-0.184 0.783,-0.214 0.693,-0.208 0.603,-0.203 0.559,-0.161 0.461,-0.131 0.363,-0.102 0.265,-0.143 0.158,-0.096 0.052,-0.048 0.124,-0.04 0,0" />
        </g>
        <g
           transform="translate(399.0719,48.6399)"
           id="g6502">
          <path
             id="path6504"
             style="fill:#c85235;fill-opacity:1;fill-rule:evenodd;stroke:none"
             d="M 0,0 C -0.035,-0.031 -0.024,-0.043 -0.129,-0.067 -0.234,-0.091 -0.18,-0.1 -0.282,-0.121 c -0.103,-0.021 -0.119,-0.015 -0.195,-0.02 -0.076,-0.004 -0.083,-0.034 -0.152,-0.022 -0.07,0.012 -0.058,0.002 -0.093,0.01 -0.035,0.008 -0.049,-0.009 -0.091,0.003 -0.042,0.012 -0.075,0.023 -0.129,0.037 -0.054,0.015 -0.118,0.004 -0.16,0.021 -0.042,0.017 -0.06,0.029 -0.118,0.055 -0.058,0.027 -0.11,0.036 -0.165,0.088 -0.056,0.053 0.03,0.052 -0.009,0.093 -0.04,0.042 -0.07,0.065 -0.06,0.099 0.009,0.034 0.036,0.046 0.033,0.064 -0.002,0.019 0.032,0.049 0.04,0.063 0.008,0.016 0.067,0.028 0.092,0.056 0.026,0.028 0.026,0.054 0.093,0.087 0.067,0.032 0.12,0.016 0.174,0.032 0.055,0.017 0.077,0.036 0.129,0.041 0.053,0.006 0.062,-0.017 0.113,-0.01 0.051,0.007 0.06,0.019 0.103,0.021 0.043,0.002 0.097,-0.004 0.143,-0.007 0.046,-0.004 0.05,0.02 0.153,0.002 C -0.278,0.574 -0.278,0.561 -0.219,0.547 -0.161,0.533 -0.133,0.53 -0.076,0.515 -0.018,0.5 -0.054,0.511 -0.03,0.473 -0.005,0.434 0.026,0.425 0.066,0.415 0.106,0.404 0.061,0.383 0.079,0.37 0.096,0.357 0.118,0.35 0.142,0.323 0.165,0.296 0.133,0.298 0.143,0.272 0.153,0.246 0.195,0.207 0.194,0.185 0.194,0.162 0.149,0.149 0.121,0.122 0.093,0.096 0.145,0.074 0.098,0.045 0.05,0.016 0.037,0.033 0,0" />
        </g>
        <g
           transform="translate(382.941,54.2024)"
           id="g6506">
          <path
             id="path6508"
             style="fill:#f4ad58;fill-opacity:1;fill-rule:evenodd;stroke:none"
             d="M 0,0 C -0.044,0.097 -0.114,0.114 0.022,0.256 0.159,0.398 0.004,0.372 0.146,0.506 0.288,0.64 0.346,0.64 0.494,0.715 0.641,0.791 0.54,0.861 0.738,0.894 0.937,0.927 0.87,0.939 0.976,0.952 1.083,0.965 1.046,1.014 1.185,1.024 1.323,1.033 1.436,1.038 1.609,1.053 1.782,1.068 1.877,1.148 2.033,1.147 2.189,1.146 2.273,1.137 2.502,1.129 2.731,1.121 2.877,1.146 3.198,1.08 3.518,1.014 3.33,0.942 3.575,0.886 3.82,0.831 3.974,0.806 4.084,0.724 4.194,0.641 4.182,0.593 4.258,0.556 4.335,0.518 4.376,0.424 4.415,0.384 4.454,0.345 4.376,0.268 4.428,0.185 4.481,0.102 4.581,0.045 4.56,-0.082 4.538,-0.21 4.363,-0.221 4.308,-0.303 4.253,-0.386 4.278,-0.446 4.185,-0.503 4.092,-0.56 3.983,-0.518 3.902,-0.578 3.82,-0.637 3.845,-0.67 3.759,-0.712 3.674,-0.753 3.534,-0.786 3.422,-0.818 3.311,-0.85 3.391,-0.906 3.098,-0.955 2.805,-1.004 2.754,-0.976 2.576,-0.996 2.398,-1.017 2.323,-1.034 2.141,-1.051 1.96,-1.067 2.081,-1.061 1.879,-0.998 1.677,-0.935 1.576,-0.943 1.45,-0.955 1.323,-0.967 1.337,-0.882 1.25,-0.869 1.163,-0.856 1.088,-0.86 0.933,-0.821 c -0.155,0.038 -0.075,0.06 -0.198,0.109 -0.123,0.048 -0.362,0.095 -0.448,0.145 -0.085,0.05 -0.039,0.117 -0.08,0.198 -0.04,0.08 -0.237,0.084 -0.246,0.188 C -0.049,-0.077 0.047,-0.104 0,0" />
        </g>
        <g
           transform="translate(384.1633,53.7596)"
           id="g6510">
          <path
             id="path6512"
             style="fill:#e28a4a;fill-opacity:1;fill-rule:evenodd;stroke:none"
             d="m 0,0 c -0.117,0.037 -0.166,0.03 -0.24,0.128 -0.074,0.097 -0.123,0.051 -0.186,0.146 -0.063,0.095 -0.036,0.108 -0.039,0.177 -0.003,0.068 -0.12,0.08 -0.058,0.139 0.063,0.059 0.019,0.05 0.057,0.08 0.038,0.03 -0.027,0.045 0.03,0.08 0.057,0.035 0.106,0.062 0.174,0.107 0.068,0.045 0.035,0.105 0.111,0.138 0.076,0.034 0.125,0.048 0.242,0.095 C 0.208,1.136 0.254,1.18 0.472,1.219 0.69,1.257 0.671,1.182 0.842,1.209 1.014,1.236 1.112,1.258 1.246,1.242 1.379,1.227 1.42,1.201 1.494,1.2 1.567,1.199 1.679,1.163 1.736,1.153 1.793,1.142 1.832,1.089 1.938,1.06 2.045,1.032 2.148,1.027 2.263,0.961 2.378,0.896 2.304,0.851 2.359,0.8 2.413,0.748 2.485,0.726 2.495,0.678 2.507,0.63 2.414,0.626 2.433,0.58 2.453,0.534 2.496,0.523 2.496,0.484 2.496,0.446 2.461,0.399 2.44,0.359 2.418,0.32 2.511,0.311 2.418,0.223 2.326,0.135 2.274,0.137 2.209,0.088 2.144,0.039 2.125,0.015 2.054,-0.033 1.984,-0.081 2.035,-0.051 1.877,-0.065 1.719,-0.08 1.679,-0.105 1.63,-0.139 1.581,-0.173 1.504,-0.129 1.45,-0.142 1.395,-0.155 1.363,-0.173 1.251,-0.188 1.14,-0.204 1.156,-0.176 1.05,-0.179 0.943,-0.183 0.783,-0.213 0.693,-0.208 0.603,-0.203 0.559,-0.161 0.461,-0.131 0.363,-0.102 0.265,-0.143 0.158,-0.095 0.052,-0.048 0.124,-0.039 0,0" />
        </g>
        <g
           transform="translate(385.7746,54.0606)"
           id="g6514">
          <path
             id="path6516"
             style="fill:#c85235;fill-opacity:1;fill-rule:evenodd;stroke:none"
             d="M 0,0 C -0.035,-0.031 -0.024,-0.043 -0.129,-0.067 -0.234,-0.091 -0.18,-0.101 -0.283,-0.122 -0.386,-0.143 -0.401,-0.136 -0.478,-0.141 -0.554,-0.145 -0.56,-0.175 -0.63,-0.163 c -0.069,0.012 -0.057,0.002 -0.092,0.01 -0.035,0.008 -0.049,-0.009 -0.091,0.003 -0.042,0.012 -0.075,0.023 -0.129,0.037 -0.054,0.015 -0.118,0.004 -0.16,0.021 -0.041,0.017 -0.06,0.028 -0.118,0.055 -0.059,0.027 -0.11,0.036 -0.165,0.088 -0.056,0.053 0.03,0.052 -0.009,0.093 -0.04,0.041 -0.07,0.065 -0.06,0.099 0.009,0.034 0.036,0.046 0.033,0.064 -0.002,0.019 0.032,0.048 0.04,0.063 0.008,0.016 0.066,0.028 0.092,0.056 0.026,0.028 0.026,0.054 0.093,0.086 0.067,0.033 0.12,0.017 0.174,0.033 0.055,0.017 0.077,0.036 0.129,0.041 0.053,0.006 0.062,-0.017 0.113,-0.01 0.051,0.007 0.06,0.019 0.103,0.021 0.043,0.002 0.097,-0.004 0.142,-0.008 0.046,-0.002 0.051,0.021 0.154,0.003 C -0.278,0.574 -0.278,0.56 -0.22,0.547 -0.161,0.533 -0.133,0.53 -0.076,0.515 -0.018,0.5 -0.055,0.511 -0.03,0.473 -0.005,0.434 0.026,0.425 0.066,0.415 0.106,0.404 0.061,0.383 0.079,0.37 0.096,0.357 0.118,0.35 0.142,0.323 0.165,0.296 0.133,0.298 0.143,0.272 0.153,0.245 0.195,0.207 0.194,0.184 0.194,0.162 0.148,0.149 0.121,0.122 0.093,0.096 0.145,0.074 0.098,0.045 0.05,0.016 0.037,0.033 0,0" />
        </g>
        <g
           transform="translate(375.2906,39.2842)"
           id="g6518">
          <path
             id="path6520"
             style="fill:#f4ad58;fill-opacity:1;fill-rule:evenodd;stroke:none"
             d="M 0,0 C -0.044,0.097 -0.114,0.114 0.022,0.256 0.159,0.398 0.003,0.372 0.146,0.506 0.288,0.64 0.346,0.64 0.493,0.715 0.641,0.79 0.54,0.861 0.738,0.894 0.937,0.927 0.87,0.939 0.976,0.952 1.083,0.965 1.046,1.014 1.184,1.024 1.323,1.033 1.436,1.038 1.608,1.053 1.781,1.068 1.877,1.148 2.033,1.147 2.189,1.146 2.273,1.137 2.502,1.129 2.731,1.121 2.877,1.146 3.198,1.08 3.518,1.015 3.33,0.942 3.575,0.886 3.82,0.831 3.974,0.806 4.084,0.724 4.194,0.641 4.181,0.593 4.258,0.556 4.335,0.518 4.376,0.424 4.415,0.384 4.454,0.345 4.376,0.268 4.428,0.185 4.48,0.102 4.581,0.045 4.56,-0.082 4.538,-0.21 4.362,-0.221 4.307,-0.303 4.253,-0.386 4.278,-0.446 4.185,-0.503 4.091,-0.56 3.983,-0.518 3.902,-0.578 3.82,-0.637 3.844,-0.669 3.759,-0.712 3.674,-0.753 3.534,-0.786 3.422,-0.818 3.31,-0.851 3.391,-0.906 3.098,-0.955 2.805,-1.004 2.754,-0.976 2.576,-0.996 2.397,-1.017 2.323,-1.034 2.141,-1.05 1.96,-1.067 2.081,-1.061 1.879,-0.998 1.677,-0.935 1.576,-0.943 1.45,-0.955 1.323,-0.967 1.337,-0.882 1.25,-0.869 1.163,-0.857 1.087,-0.86 0.933,-0.821 0.778,-0.783 0.858,-0.76 0.735,-0.712 0.612,-0.664 0.373,-0.617 0.287,-0.567 0.202,-0.517 0.248,-0.45 0.207,-0.369 0.167,-0.289 -0.03,-0.285 -0.039,-0.181 -0.049,-0.077 0.047,-0.104 0,0" />
        </g>
        <g
           transform="translate(376.5129,38.8411)"
           id="g6522">
          <path
             id="path6524"
             style="fill:#e28a4a;fill-opacity:1;fill-rule:evenodd;stroke:none"
             d="m 0,0 c -0.117,0.037 -0.167,0.03 -0.24,0.128 -0.074,0.098 -0.123,0.051 -0.186,0.146 -0.063,0.096 -0.036,0.109 -0.039,0.177 -0.003,0.068 -0.12,0.08 -0.058,0.139 0.063,0.06 0.019,0.05 0.057,0.08 0.038,0.03 -0.027,0.045 0.03,0.08 0.057,0.035 0.106,0.062 0.174,0.107 0.068,0.046 0.035,0.105 0.111,0.138 0.076,0.034 0.125,0.048 0.242,0.094 0.117,0.047 0.163,0.091 0.381,0.13 0.217,0.039 0.199,-0.037 0.37,-0.01 0.172,0.027 0.27,0.049 0.403,0.034 C 1.379,1.227 1.42,1.202 1.493,1.201 1.567,1.199 1.679,1.163 1.736,1.153 1.793,1.142 1.832,1.089 1.938,1.06 2.044,1.032 2.148,1.027 2.263,0.961 2.377,0.896 2.304,0.852 2.359,0.801 2.413,0.749 2.484,0.726 2.495,0.678 2.506,0.63 2.414,0.626 2.433,0.58 2.452,0.533 2.496,0.523 2.496,0.485 2.496,0.446 2.461,0.399 2.44,0.36 2.418,0.319 2.51,0.31 2.418,0.223 2.326,0.135 2.274,0.138 2.209,0.089 2.144,0.04 2.125,0.015 2.054,-0.033 1.984,-0.08 2.035,-0.051 1.877,-0.065 1.719,-0.079 1.678,-0.105 1.63,-0.139 1.581,-0.172 1.504,-0.129 1.45,-0.141 1.395,-0.154 1.363,-0.173 1.251,-0.188 1.139,-0.204 1.156,-0.175 1.049,-0.179 0.943,-0.183 0.783,-0.213 0.693,-0.208 0.603,-0.203 0.559,-0.16 0.461,-0.131 0.363,-0.101 0.265,-0.142 0.159,-0.095 0.052,-0.047 0.124,-0.039 0,0" />
        </g>
        <g
           transform="translate(378.1241,39.1425)"
           id="g6526">
          <path
             id="path6528"
             style="fill:#c85235;fill-opacity:1;fill-rule:evenodd;stroke:none"
             d="m 0,0 c -0.035,-0.031 -0.024,-0.043 -0.129,-0.067 -0.105,-0.024 -0.051,-0.034 -0.154,-0.055 -0.103,-0.021 -0.118,-0.015 -0.195,-0.019 -0.076,-0.004 -0.082,-0.035 -0.151,-0.022 -0.07,0.012 -0.058,0.002 -0.093,0.01 -0.035,0.008 -0.049,-0.01 -0.091,0.003 -0.042,0.012 -0.075,0.023 -0.129,0.037 -0.054,0.015 -0.118,0.003 -0.16,0.02 -0.042,0.018 -0.06,0.029 -0.119,0.056 -0.058,0.027 -0.109,0.036 -0.164,0.088 -0.056,0.052 0.03,0.052 -0.01,0.093 -0.04,0.041 -0.069,0.065 -0.06,0.099 0.01,0.034 0.037,0.045 0.034,0.064 -0.002,0.019 0.032,0.049 0.04,0.063 0.008,0.015 0.066,0.028 0.092,0.056 0.026,0.028 0.026,0.054 0.092,0.086 0.067,0.032 0.12,0.017 0.175,0.033 0.055,0.016 0.076,0.036 0.129,0.041 0.053,0.005 0.062,-0.018 0.113,-0.01 0.05,0.007 0.06,0.019 0.103,0.021 0.043,0.002 0.097,-0.004 0.142,-0.007 0.046,-0.003 0.051,0.02 0.154,0.002 C -0.278,0.573 -0.278,0.56 -0.22,0.547 -0.161,0.533 -0.133,0.53 -0.076,0.515 -0.019,0.5 -0.055,0.511 -0.03,0.473 -0.005,0.434 0.026,0.425 0.066,0.414 0.106,0.404 0.061,0.383 0.079,0.37 0.096,0.357 0.118,0.35 0.142,0.322 0.165,0.296 0.132,0.298 0.143,0.272 0.153,0.246 0.195,0.207 0.194,0.184 0.194,0.161 0.149,0.148 0.121,0.122 0.093,0.096 0.145,0.074 0.098,0.045 0.05,0.015 0.037,0.033 0,0" />
        </g>
        <g
           transform="translate(389.2257,60.1325)"
           id="g6530">
          <path
             id="path6532"
             style="fill:#f4ad58;fill-opacity:1;fill-rule:evenodd;stroke:none"
             d="M 0,0 C -0.044,0.097 -0.114,0.114 0.022,0.256 0.159,0.398 0.003,0.372 0.146,0.506 0.288,0.64 0.346,0.64 0.493,0.716 0.641,0.791 0.54,0.861 0.739,0.894 0.937,0.927 0.87,0.939 0.976,0.952 1.083,0.965 1.046,1.014 1.184,1.024 1.323,1.033 1.436,1.038 1.608,1.053 1.781,1.068 1.877,1.148 2.033,1.147 2.189,1.145 2.273,1.137 2.502,1.129 2.731,1.121 2.877,1.146 3.198,1.08 3.518,1.015 3.33,0.942 3.575,0.886 3.82,0.831 3.974,0.806 4.084,0.724 4.194,0.641 4.181,0.593 4.258,0.556 4.335,0.518 4.376,0.424 4.415,0.385 4.454,0.345 4.376,0.268 4.428,0.185 4.48,0.102 4.581,0.045 4.56,-0.082 4.538,-0.21 4.362,-0.221 4.308,-0.303 4.253,-0.386 4.278,-0.446 4.185,-0.503 4.092,-0.56 3.983,-0.518 3.902,-0.577 3.82,-0.637 3.844,-0.67 3.759,-0.711 3.674,-0.753 3.533,-0.786 3.422,-0.818 3.31,-0.85 3.391,-0.906 3.098,-0.955 2.804,-1.004 2.754,-0.976 2.576,-0.996 2.397,-1.017 2.323,-1.034 2.141,-1.05 1.96,-1.067 2.081,-1.06 1.879,-0.998 1.677,-0.936 1.576,-0.943 1.45,-0.955 1.323,-0.967 1.337,-0.883 1.25,-0.869 1.163,-0.856 1.087,-0.86 0.933,-0.821 0.778,-0.783 0.858,-0.76 0.735,-0.712 0.612,-0.664 0.373,-0.617 0.287,-0.566 0.202,-0.517 0.248,-0.449 0.208,-0.369 0.167,-0.289 -0.03,-0.285 -0.04,-0.181 -0.049,-0.077 0.047,-0.104 0,0" />
        </g>
        <g
           transform="translate(390.4478,59.6897)"
           id="g6534">
          <path
             id="path6536"
             style="fill:#e28a4a;fill-opacity:1;fill-rule:evenodd;stroke:none"
             d="m 0,0 c -0.117,0.037 -0.166,0.03 -0.24,0.128 -0.074,0.097 -0.123,0.051 -0.186,0.146 -0.063,0.096 -0.036,0.109 -0.039,0.177 -0.003,0.069 -0.12,0.08 -0.058,0.139 0.063,0.06 0.019,0.05 0.057,0.08 0.038,0.03 -0.027,0.045 0.03,0.08 0.057,0.035 0.106,0.062 0.174,0.107 0.068,0.045 0.035,0.105 0.111,0.138 0.076,0.034 0.125,0.048 0.242,0.095 C 0.208,1.136 0.254,1.18 0.472,1.219 0.69,1.258 0.671,1.182 0.842,1.209 1.014,1.236 1.112,1.258 1.246,1.242 1.379,1.227 1.42,1.202 1.493,1.2 1.567,1.199 1.679,1.163 1.736,1.153 1.793,1.143 1.832,1.089 1.938,1.06 2.045,1.032 2.148,1.027 2.263,0.961 2.377,0.896 2.304,0.852 2.359,0.8 2.413,0.749 2.484,0.725 2.495,0.678 2.507,0.63 2.414,0.626 2.433,0.58 2.453,0.534 2.496,0.523 2.496,0.484 2.496,0.446 2.461,0.399 2.439,0.359 2.418,0.319 2.511,0.311 2.419,0.223 2.326,0.135 2.274,0.138 2.209,0.088 2.144,0.039 2.125,0.015 2.054,-0.033 1.984,-0.08 2.035,-0.051 1.877,-0.065 1.719,-0.08 1.679,-0.105 1.63,-0.139 1.581,-0.172 1.504,-0.129 1.45,-0.141 1.395,-0.154 1.363,-0.173 1.251,-0.188 1.139,-0.204 1.156,-0.175 1.05,-0.179 0.943,-0.183 0.783,-0.213 0.693,-0.208 0.603,-0.203 0.559,-0.161 0.461,-0.131 0.363,-0.101 0.265,-0.143 0.158,-0.095 0.052,-0.047 0.124,-0.039 0,0" />
        </g>
        <g
           transform="translate(392.059,59.9907)"
           id="g6538">
          <path
             id="path6540"
             style="fill:#c85235;fill-opacity:1;fill-rule:evenodd;stroke:none"
             d="M 0,0 C -0.035,-0.031 -0.024,-0.043 -0.129,-0.067 -0.234,-0.09 -0.18,-0.1 -0.283,-0.121 -0.385,-0.142 -0.401,-0.136 -0.477,-0.141 -0.553,-0.145 -0.56,-0.175 -0.63,-0.163 c -0.069,0.013 -0.057,0.002 -0.092,0.01 -0.035,0.008 -0.049,-0.009 -0.091,0.003 -0.042,0.012 -0.075,0.023 -0.129,0.038 -0.054,0.014 -0.118,0.003 -0.16,0.02 -0.041,0.017 -0.06,0.028 -0.118,0.055 -0.059,0.027 -0.11,0.036 -0.165,0.088 -0.056,0.052 0.03,0.052 -0.009,0.093 -0.04,0.042 -0.07,0.065 -0.06,0.099 0.009,0.034 0.036,0.046 0.033,0.065 -0.002,0.018 0.032,0.048 0.04,0.063 0.008,0.014 0.066,0.027 0.092,0.055 0.026,0.028 0.026,0.054 0.093,0.087 0.067,0.032 0.12,0.016 0.174,0.032 0.055,0.017 0.077,0.036 0.129,0.042 0.053,0.005 0.062,-0.018 0.113,-0.011 0.051,0.007 0.06,0.019 0.103,0.021 0.043,0.002 0.097,-0.004 0.143,-0.007 0.046,-0.003 0.05,0.02 0.153,0.002 C -0.278,0.574 -0.278,0.561 -0.219,0.547 -0.161,0.533 -0.133,0.53 -0.076,0.515 -0.018,0.5 -0.055,0.511 -0.03,0.473 -0.005,0.434 0.026,0.425 0.066,0.415 0.106,0.404 0.061,0.383 0.079,0.37 0.096,0.357 0.118,0.35 0.142,0.323 0.165,0.296 0.133,0.299 0.143,0.272 0.153,0.246 0.195,0.207 0.194,0.185 0.194,0.162 0.149,0.149 0.121,0.122 0.094,0.096 0.145,0.074 0.098,0.045 0.05,0.016 0.037,0.033 0,0" />
        </g>
        <g
           transform="translate(371.4653,50.0788)"
           id="g6542">
          <path
             id="path6544"
             style="fill:#f4ad58;fill-opacity:1;fill-rule:evenodd;stroke:none"
             d="M 0,0 C -0.044,0.098 -0.114,0.114 0.022,0.256 0.158,0.398 0.003,0.373 0.146,0.506 0.288,0.64 0.346,0.64 0.494,0.715 0.641,0.791 0.54,0.861 0.739,0.894 0.937,0.927 0.87,0.939 0.976,0.952 1.083,0.965 1.046,1.014 1.185,1.024 1.323,1.033 1.436,1.038 1.609,1.053 1.781,1.068 1.877,1.149 2.033,1.147 2.189,1.146 2.273,1.137 2.502,1.129 2.731,1.121 2.877,1.146 3.198,1.08 3.518,1.015 3.33,0.942 3.575,0.887 3.82,0.831 3.974,0.807 4.084,0.724 4.194,0.642 4.181,0.594 4.258,0.556 4.335,0.518 4.376,0.424 4.415,0.385 4.454,0.346 4.376,0.268 4.428,0.185 4.48,0.102 4.581,0.045 4.56,-0.082 4.538,-0.209 4.362,-0.22 4.308,-0.303 4.253,-0.385 4.278,-0.446 4.185,-0.502 4.092,-0.559 3.983,-0.518 3.902,-0.577 3.82,-0.637 3.844,-0.669 3.759,-0.711 3.674,-0.753 3.534,-0.785 3.422,-0.818 3.31,-0.85 3.391,-0.906 3.098,-0.955 2.805,-1.004 2.754,-0.975 2.576,-0.996 2.397,-1.017 2.323,-1.034 2.141,-1.05 1.96,-1.067 2.081,-1.06 1.879,-0.998 1.677,-0.935 1.577,-0.943 1.45,-0.955 1.323,-0.967 1.337,-0.882 1.25,-0.869 1.162,-0.856 1.087,-0.859 0.933,-0.821 0.778,-0.783 0.858,-0.76 0.735,-0.712 0.612,-0.664 0.373,-0.616 0.287,-0.566 0.201,-0.516 0.248,-0.45 0.208,-0.369 0.167,-0.289 -0.03,-0.285 -0.039,-0.181 -0.049,-0.077 0.047,-0.104 0,0" />
        </g>
        <g
           transform="translate(372.6876,49.6363)"
           id="g6546">
          <path
             id="path6548"
             style="fill:#e28a4a;fill-opacity:1;fill-rule:evenodd;stroke:none"
             d="m 0,0 c -0.117,0.037 -0.166,0.029 -0.24,0.128 -0.074,0.097 -0.123,0.051 -0.186,0.146 -0.063,0.095 -0.036,0.108 -0.039,0.177 -0.003,0.068 -0.12,0.08 -0.058,0.139 0.063,0.059 0.019,0.05 0.057,0.08 0.038,0.03 -0.027,0.045 0.03,0.08 0.057,0.035 0.106,0.062 0.174,0.107 0.068,0.045 0.035,0.105 0.111,0.138 0.076,0.033 0.125,0.048 0.242,0.094 C 0.208,1.136 0.254,1.18 0.472,1.218 0.69,1.257 0.671,1.181 0.842,1.209 1.014,1.236 1.112,1.258 1.246,1.242 1.379,1.227 1.42,1.201 1.493,1.2 1.567,1.199 1.679,1.163 1.736,1.153 1.793,1.142 1.832,1.088 1.938,1.06 2.044,1.032 2.148,1.027 2.263,0.961 2.377,0.895 2.304,0.852 2.359,0.8 2.413,0.748 2.484,0.725 2.495,0.678 2.506,0.63 2.414,0.626 2.433,0.58 2.452,0.533 2.496,0.523 2.496,0.484 2.496,0.446 2.461,0.399 2.44,0.359 2.418,0.319 2.51,0.31 2.418,0.222 2.326,0.135 2.274,0.137 2.209,0.089 2.143,0.039 2.125,0.015 2.054,-0.033 1.984,-0.081 2.035,-0.051 1.877,-0.066 1.719,-0.08 1.678,-0.106 1.63,-0.139 1.581,-0.173 1.504,-0.129 1.45,-0.142 1.396,-0.155 1.363,-0.173 1.251,-0.189 1.139,-0.204 1.156,-0.176 1.049,-0.179 0.943,-0.184 0.783,-0.213 0.693,-0.208 0.603,-0.203 0.559,-0.161 0.461,-0.131 0.362,-0.102 0.265,-0.143 0.158,-0.096 0.052,-0.048 0.124,-0.039 0,0" />
        </g>
        <g
           transform="translate(374.2988,49.9371)"
           id="g6550">
          <path
             id="path6552"
             style="fill:#c85235;fill-opacity:1;fill-rule:evenodd;stroke:none"
             d="M 0,0 C -0.035,-0.031 -0.024,-0.043 -0.129,-0.067 -0.234,-0.09 -0.18,-0.1 -0.283,-0.121 -0.386,-0.142 -0.401,-0.136 -0.477,-0.141 -0.554,-0.145 -0.56,-0.175 -0.63,-0.163 c -0.069,0.013 -0.057,0.002 -0.092,0.01 -0.035,0.008 -0.049,-0.009 -0.091,0.003 -0.042,0.012 -0.075,0.023 -0.129,0.038 -0.054,0.014 -0.118,0.003 -0.16,0.02 -0.041,0.017 -0.06,0.028 -0.118,0.055 -0.059,0.027 -0.11,0.036 -0.165,0.088 -0.056,0.053 0.03,0.052 -0.01,0.093 -0.04,0.042 -0.069,0.065 -0.059,0.099 0.009,0.034 0.036,0.046 0.033,0.064 -0.003,0.019 0.031,0.049 0.04,0.063 0.008,0.016 0.066,0.028 0.092,0.056 0.026,0.028 0.026,0.054 0.093,0.086 0.067,0.033 0.12,0.017 0.174,0.034 0.055,0.016 0.077,0.035 0.129,0.041 0.053,0.005 0.062,-0.018 0.113,-0.011 0.051,0.007 0.06,0.019 0.103,0.021 C -0.634,0.6 -0.58,0.593 -0.534,0.59 -0.489,0.587 -0.484,0.61 -0.381,0.592 -0.278,0.574 -0.278,0.561 -0.22,0.547 -0.161,0.533 -0.133,0.53 -0.076,0.515 -0.019,0.5 -0.055,0.511 -0.03,0.473 -0.005,0.434 0.026,0.425 0.066,0.415 0.106,0.404 0.061,0.383 0.079,0.37 0.096,0.357 0.118,0.35 0.142,0.323 0.165,0.296 0.132,0.299 0.143,0.272 0.153,0.246 0.195,0.207 0.194,0.184 0.194,0.162 0.148,0.148 0.121,0.122 0.093,0.096 0.145,0.074 0.098,0.045 0.05,0.016 0.037,0.033 0,0" />
        </g>
      </g>
      <g
         id="g6554"
         transform="translate(474.751,61.156)">
        <path
           d="m 0,0 -1.315,-19.01 c 0.269,-3.525 3.456,-6.144 6.977,-5.827 3.522,0.316 5.074,1.888 4.758,5.409 L 9.702,2.03 Z"
           style="fill:#fcd9bd;fill-opacity:1;fill-rule:evenodd;stroke:none"
           id="path6556" />
      </g>
      <g
         id="g6558"
         transform="translate(444.3123,90.5085)">
        <path
           d="m 0,0 c 1.209,0 2.189,-1.796 2.189,-4.011 0,-2.216 -0.98,-4.012 -2.189,-4.012 -1.209,0 -2.189,1.796 -2.189,4.012 C -2.189,-1.796 -1.209,0 0,0"
           style="fill:#425156;fill-opacity:1;fill-rule:evenodd;stroke:none"
           id="path6560" />
      </g>
      <g
         id="g6562"
         transform="translate(425.4548,90.5085)">
        <path
           d="m 0,0 c 1.209,0 2.189,-1.796 2.189,-4.011 0,-2.216 -0.98,-4.012 -2.189,-4.012 -1.209,0 -2.189,1.796 -2.189,4.012 C -2.189,-1.796 -1.209,0 0,0"
           style="fill:#425156;fill-opacity:1;fill-rule:evenodd;stroke:none"
           id="path6564" />
      </g>
    </g>
  </g>
</svg>
