<?xml version="1.0" encoding="UTF-8" standalone="no"?>
<svg
   xmlns:dc="http://purl.org/dc/elements/1.1/"
   xmlns:cc="http://creativecommons.org/ns#"
   xmlns:rdf="http://www.w3.org/1999/02/22-rdf-syntax-ns#"
   xmlns:svg="http://www.w3.org/2000/svg"
   xmlns="http://www.w3.org/2000/svg"
   id="svg9999"
   version="1.1"
   viewBox="0 0 33.072917 39.687499"
   height="150"
   width="125">
  <defs
     id="defs9993" />
  <metadata
     id="metadata9996">
    <rdf:RDF>
      <cc:Work
         rdf:about="">
        <dc:format>image/svg+xml</dc:format>
        <dc:type
           rdf:resource="http://purl.org/dc/dcmitype/StillImage" />
        <dc:title></dc:title>
      </cc:Work>
    </rdf:RDF>
  </metadata>
  <g
     style="display:inline"
     transform="translate(-63.585828,-56.849933)"
     id="layer1">
    <g
       id="g18815">
      <path
         d="m 77.684384,64.714353 c -12.784557,0 -8.651058,21.942576 0.0274,21.942576 8.677926,0 12.756899,-21.942576 -0.0274,-21.942576"
         style="fill:#e7962e;fill-opacity:1;fill-rule:evenodd;stroke:none;stroke-width:0.26277262"
         id="path4840" />
      <path
         d="M 81.903783,82.254101 81.302671,96.406365 H 74.120149 L 73.519301,82.254101 Z"
         style="fill:#ffffff;fill-opacity:1;fill-rule:evenodd;stroke:#458098;stroke-width:0.26277262;stroke-opacity:1"
         id="path4844" />
      <path
         d="m 73.443727,82.26131 c 0.42199,0.127921 2.243501,3.551631 2.591998,4.208797 0.267366,-0.152037 0.911941,1.359156 0.911941,1.359156 l -1.761189,1.97176 -1.113189,-1.325079 c -0.05716,-0.129231 0.0648,-0.212065 0.0295,-0.349422 -0.08508,-0.330025 -0.291863,-0.715884 -0.383795,-0.936075 -0.366936,-0.876309 -0.275268,-3.815599 -0.275268,-4.929137"
         style="fill:#cde1f9;fill-opacity:1;fill-rule:evenodd;stroke:none;stroke-width:0.26277262"
         id="path4848" />
      <path
         d="m 77.711568,75.777073 v 0 c 1.114507,0 2.026184,0.906978 2.026184,2.01606 v 4.378135 c 0,1.10882 -0.911677,2.01606 -2.026184,2.01606 v 0 c -1.114507,0 -2.026184,-0.90724 -2.026184,-2.01606 v -4.378135 c 0,-1.109082 0.911677,-2.01606 2.026184,-2.01606"
         style="fill:#cde1f9;fill-opacity:1;fill-rule:evenodd;stroke:none;stroke-width:0.26277262"
         id="path4852" />
      <path
         d="m 77.711568,75.419288 v 0 c 1.114507,0 2.026184,0.90724 2.026184,2.01606 v 4.378135 c 0,1.10882 -0.911677,2.016322 -2.026184,2.016322 v 0 c -1.114507,0 -2.026184,-0.907502 -2.026184,-2.016322 v -4.378135 c 0,-1.10882 0.911677,-2.01606 2.026184,-2.01606"
         style="fill:#fcd9bd;fill-opacity:1;fill-rule:evenodd;stroke:none;stroke-width:0.26277262"
         id="path4856" />
      <path
         d="m 82.71855,82.748745 3.229988,4.320728 c 0.51761,0.692291 -0.944077,1.871363 -1.489609,1.302011 l -3.394622,-3.542457 c -1.420857,-1.482882 0.445961,-3.61297 1.654243,-2.080282"
         style="fill:#ffffff;fill-opacity:1;fill-rule:evenodd;stroke:#458098;stroke-width:0.26277262;stroke-opacity:1"
         id="path4860" />
      <path
         d="m 79.737647,80.766081 v 0 c 0,1.683414 -4.052105,1.683414 -4.052105,0 0,-1.683152 4.052105,-1.683152 4.052105,0"
         style="fill:#dfb99a;fill-opacity:1;fill-rule:evenodd;stroke:none;stroke-width:0.26277262"
         id="path4864" />
      <path
         d="m 77.711568,65.329971 c -8.86495,0 -8.186131,8.270014 -6.494747,11.179421 2.308301,3.971043 5.41264,4.849711 6.494747,4.849711 1.081843,0 4.186183,-0.878668 6.494747,-4.849711 1.691384,-2.909669 2.370203,-11.179421 -6.494747,-11.179421"
         style="fill:#fcd9bd;fill-opacity:1;fill-rule:evenodd;stroke:none;stroke-width:0.26277262"
         id="path4868" />
      <path
         d="m 69.854178,72.38778 c 0.576614,-0.142338 1.277033,0.624924 1.564418,1.713821 0.287649,1.088898 0.05321,2.087098 -0.523404,2.229698 -0.576614,0.142338 -1.277033,-0.624923 -1.564419,-1.713821 -0.287648,-1.088898 -0.05321,-2.08736 0.523405,-2.229698"
         style="fill:#fcd9bd;fill-opacity:1;fill-rule:evenodd;stroke:none;stroke-width:0.26277262"
         id="path4872" />
      <path
         d="m 85.572619,72.38778 c -0.576614,-0.142338 -1.277033,0.624924 -1.564418,1.713821 -0.287649,1.088898 -0.05321,2.087098 0.523404,2.229698 0.576614,0.142338 1.277033,-0.624923 1.564419,-1.713821 0.287385,-1.088898 0.05321,-2.08736 -0.523405,-2.229698"
         style="fill:#fcd9bd;fill-opacity:1;fill-rule:evenodd;stroke:none;stroke-width:0.26277262"
         id="path4876" />
      <path
         d="m 80.080059,72.941142 c 0.303717,0 0.550009,0.43645 0.550009,0.97487 0,0.538158 -0.246292,0.974608 -0.550009,0.974608 -0.303717,0 -0.549746,-0.43645 -0.549746,-0.974608 0,-0.53842 0.246029,-0.97487 0.549746,-0.97487"
         style="fill:#425156;fill-opacity:1;fill-rule:evenodd;stroke:none;stroke-width:0.26277262"
         id="path4880" />
      <path
         d="m 75.343077,72.941142 c 0.303717,0 0.549746,0.43645 0.549746,0.97487 0,0.538158 -0.246029,0.974608 -0.549746,0.974608 -0.303717,0 -0.549746,-0.43645 -0.549746,-0.974608 0,-0.53842 0.246029,-0.97487 0.549746,-0.97487"
         style="fill:#425156;fill-opacity:1;fill-rule:evenodd;stroke:none;stroke-width:0.26277262"
         id="path4884" />
      <path
         d="m 80.571749,77.446175 c -1.065775,1.056131 -4.589997,1.0425 -5.720572,0 1.568633,0.65035 3.988885,0.640914 5.720572,0"
         style="fill:#be9370;fill-opacity:1;fill-rule:evenodd;stroke:none;stroke-width:0.26277262"
         id="path4888" />
      <path
         d="m 78.823836,75.992913 c -0.426995,1.052724 -1.79754,1.034112 -2.224272,0 0.624819,0.574856 1.565209,0.601856 2.224272,0"
         style="fill:#dfb99a;fill-opacity:1;fill-rule:evenodd;stroke:none;stroke-width:0.26277262"
         id="path4892" />
      <path
         d="m 72.379849,70.714432 c -1.34236,1.170683 -1.258067,2.861961 -1.166663,4.034741 0.09141,1.17278 -0.427521,0.345229 -0.744936,-0.574332 -0.317414,-0.919822 -0.543424,-1.846198 -0.472302,-2.88398 0.07112,-1.037782 3.024262,-2.699177 2.383901,-0.576429"
         style="fill:#e7962e;fill-opacity:1;fill-rule:evenodd;stroke:none;stroke-width:0.26277262"
         id="path4896" />
      <path
         d="m 85.288501,72.761764 c -1.175619,-0.540517 -2.323052,-0.917201 -3.68069,-1.149975 -0.33401,-1.931391 -0.892448,-2.954493 -1.248321,-3.422138 0.308721,1.124286 0.548692,2.252504 0.734926,3.341402 -2.398125,-0.343918 -4.950085,-0.253482 -7.307644,0.171172 0.190185,-1.141586 0.439112,-2.329308 0.764165,-3.512574 -0.367199,0.482848 -0.950662,1.557067 -1.27993,3.611398 -1.165609,0.236968 -2.046204,0.449033 -3.057716,0.837251 -0.443853,-3.46041 1.757502,-7.838282 7.4138,-7.838282 5.664992,0 8.127654,4.413785 7.66141,7.961746"
         style="fill:#e7962e;fill-opacity:1;fill-rule:evenodd;stroke:none;stroke-width:0.26277262"
         id="path4900" />
      <path
         d="m 83.051348,70.714432 c 1.34236,1.170683 1.258067,2.861961 1.166663,4.034741 -0.09141,1.17278 0.427521,0.345229 0.745199,-0.574332 0.317415,-0.919822 0.543424,-1.846198 0.472302,-2.88398 -0.07112,-1.037782 -3.024261,-2.699177 -2.384164,-0.576429"
         style="fill:#e7962e;fill-opacity:1;fill-rule:evenodd;stroke:none;stroke-width:0.26277262"
         id="path4904" />
      <path
         d="m 79.040441,78.438765 c -0.495219,0.65035 -2.132603,0.640389 -2.657852,0 0.766009,0.301714 1.891843,0.303025 2.657852,0"
         style="fill:#dfb99a;fill-opacity:1;fill-rule:evenodd;stroke:none;stroke-width:0.26277262"
         id="path4908" />
      <path
         d="m 89.250122,85.079049 -3.99389,2.321706 c -0.965414,0.965696 0.09825,2.624207 1.367384,1.54894 l 3.664622,-2.58777 z"
         style="fill:#fcd9bd;fill-opacity:1;fill-rule:evenodd;stroke:none;stroke-width:0.26277262"
         id="path4912" />
      <path
         d="m 79.832002,71.729304 c 0.539473,-0.126348 1.159024,0.166192 1.424545,0.631215 0.133025,0.233035 0.04215,0.261084 -0.0482,0.118484 -0.350869,-0.553886 -0.877434,-0.607099 -1.342097,-0.510634 -0.246556,0.05085 -0.309776,-0.17458 -0.03424,-0.239065"
         style="fill:#e7962e;fill-opacity:1;fill-rule:evenodd;stroke:none;stroke-width:0.26277262"
         id="path4916" />
      <path
         d="m 75.595164,71.729304 c -0.539473,-0.126348 -1.15876,0.166192 -1.424545,0.631215 -0.133025,0.233035 -0.04215,0.261084 0.0482,0.118484 0.350869,-0.553886 0.877434,-0.607099 1.342097,-0.510634 0.246556,0.05085 0.310039,-0.17458 0.03424,-0.239065"
         style="fill:#e7962e;fill-opacity:1;fill-rule:evenodd;stroke:none;stroke-width:0.26277262"
         id="path4920" />
      <path
         d="m 77.458664,83.818455 c -0.914312,-0.107474 -1.755921,-0.783514 -1.755921,-2.02838 v -0.753631 c 0.179122,1.013142 0.939336,1.586163 1.755921,1.69154 z m 2.277481,-2.782011 v 0.753631 c 0,1.244866 -0.841609,1.920906 -1.75592,2.02838 v -1.086539 c 0.809472,-0.09253 1.564945,-0.649039 1.75592,-1.695472"
         style="fill:#ffffff;fill-opacity:1;fill-rule:evenodd;stroke:none;stroke-width:0.26277262"
         id="path4924" />
      <path
         d="m 83.869566,87.756338 1.32155,-1.699928 0.949609,0.908813 -1.215394,1.736626 z"
         style="fill:#cde1f9;fill-opacity:1;fill-rule:evenodd;stroke:none;stroke-width:0.26277262"
         id="path4928" />
      <path
         d="m 83.847386,88.029323 1.583911,-2.031002 0.847404,0.899377 -1.194057,2.04437 z"
         style="fill:#ffffff;fill-opacity:1;fill-rule:evenodd;stroke:#458098;stroke-width:0.26277262;stroke-opacity:1"
         id="path4932" />
      <path
         d="m 74.212239,82.945816 2.236389,4.90371 c 0.358243,0.785611 -1.321287,1.629677 -1.733267,0.958094 l -2.56276,-4.177604 c -1.072887,-1.748947 1.205121,-3.437079 2.059638,-1.6842"
         style="fill:#ffffff;fill-opacity:1;fill-rule:evenodd;stroke:#458098;stroke-width:0.26277262;stroke-opacity:1"
         id="path4936" />
      <path
         d="m 74.27048,88.082379 1.653716,-1.382748 0.734136,1.088635 -1.55757,1.44068 z"
         style="fill:#cde1f9;fill-opacity:1;fill-rule:evenodd;stroke:none;stroke-width:0.26277262"
         id="path4940" />
      <path
         d="m 74.190639,88.34438 1.980613,-1.650647 0.63641,1.057441 -1.602087,1.746064 z"
         style="fill:#ffffff;fill-opacity:1;fill-rule:evenodd;stroke:#458098;stroke-width:0.26277262;stroke-opacity:1"
         id="path4944" />
      <path
         d="m 79.077925,96.406365 1.154546,-12.211698 h 0.242868 l -0.96278,12.211698 z"
         style="fill:#cde1f9;fill-opacity:1;fill-rule:evenodd;stroke:#458098;stroke-width:0.26277262;stroke-opacity:1"
         id="path4948" />
      <path
         id="path4950"
         style="fill:#cde1f9;fill-opacity:1;fill-rule:evenodd;stroke:none;stroke-width:0.26277262"
         d="m 77.711515,83.971147 h 2.763745 v 0.216259 h -2.763745 z" />
      <path
         d="m 79.33212,85.501318 c 0.158576,-0.0018 0.288439,0.124513 0.290283,0.282054 0.0018,0.157804 -0.125122,0.287297 -0.283698,0.28887 -0.158312,0.0018 -0.288438,-0.124513 -0.290019,-0.282054 -0.0018,-0.157804 0.125122,-0.287035 0.283434,-0.28887"
         style="fill:#b2b2b2;fill-opacity:1;fill-rule:evenodd;stroke:none;stroke-width:0.26277262"
         id="path4954" />
      <path
         d="m 79.063964,89.320692 c 0.158576,-0.0018 0.288439,0.124513 0.290283,0.282317 0.0018,0.157541 -0.125122,0.287034 -0.283698,0.288607 -0.158312,0.0021 -0.288438,-0.12425 -0.290282,-0.282054 -0.0018,-0.157804 0.125121,-0.287035 0.283697,-0.28887"
         style="fill:#b2b2b2;fill-opacity:1;fill-rule:evenodd;stroke:none;stroke-width:0.26277262"
         id="path4958" />
      <path
         d="m 78.89127,92.386146 c 0.158576,-0.0018 0.288439,0.124513 0.290283,0.282317 0.0018,0.157541 -0.125122,0.286772 -0.283698,0.288869 -0.158312,0.0016 -0.288175,-0.124775 -0.290282,-0.282316 -0.0016,-0.157542 0.125385,-0.287035 0.283697,-0.28887"
         style="fill:#b2b2b2;fill-opacity:1;fill-rule:evenodd;stroke:none;stroke-width:0.26277262"
         id="path4962" />
      <path
         d="m 78.692418,95.451968 c 0.158576,-0.0021 0.288439,0.124513 0.290283,0.282317 0.0018,0.157541 -0.125122,0.286772 -0.283698,0.288607 -0.158312,0.0018 -0.288175,-0.124513 -0.290282,-0.282054 -0.0018,-0.157542 0.125385,-0.287035 0.283697,-0.28887"
         style="fill:#b2b2b2;fill-opacity:1;fill-rule:evenodd;stroke:none;stroke-width:0.26277262"
         id="path4966" />
      <path
         d="m 70.105238,70.110689 c 2.715013,-1.741345 10.930646,-1.844888 15.048341,-0.390315 V 63.178337 H 70.105238 Z"
         style="fill:#ffffff;fill-opacity:1;fill-rule:evenodd;stroke:#458098;stroke-width:0.26277262;stroke-opacity:1"
         id="path4970" />
      <path
         d="m 70.421599,58.986473 c 2.898613,0 5.24827,1.913828 5.24827,4.275117 0,2.361026 -2.349657,4.275116 -5.24827,4.275116 -2.898349,0 -5.24827,-1.91409 -5.24827,-4.275116 0,-2.361289 2.349921,-4.275117 5.24827,-4.275117"
         style="fill:#458098;fill-opacity:1;fill-rule:evenodd;stroke:none;stroke-width:0.26277262"
         id="path4974" />
      <path
         d="m 84.761118,58.746832 c 2.674447,0 4.842611,1.88447 4.842611,4.208797 0,2.324328 -2.168164,4.208797 -4.842611,4.208797 -2.674447,0 -4.842611,-1.884469 -4.842611,-4.208797 0,-2.324327 2.168164,-4.208797 4.842611,-4.208797"
         style="fill:#458098;fill-opacity:1;fill-rule:evenodd;stroke:none;stroke-width:0.26277262;stroke-opacity:1"
         id="path4978" />
      <path
         d="m 70.267923,58.986473 c 2.336486,0 4.230963,1.749471 4.230963,3.907607 0,2.158398 -1.894477,3.907869 -4.230963,3.907869 -2.336486,0 -4.2307,-1.749471 -4.2307,-3.907869 0,-2.158136 1.894214,-3.907607 4.2307,-3.907607"
         style="fill:#ffffff;fill-opacity:1;fill-rule:evenodd;stroke:none;stroke-width:0.26277262;stroke-opacity:1"
         id="path4982" />
      <path
         d="m 84.13435,58.819652 c 2.328057,0 4.215422,1.665589 4.215422,3.71992 0,2.054332 -1.887365,3.719659 -4.215422,3.719659 -2.32832,0 -4.215685,-1.665327 -4.215685,-3.719659 0,-2.054331 1.887365,-3.71992 4.215685,-3.71992"
         style="fill:#ffffff;fill-opacity:1;fill-rule:evenodd;stroke:none;stroke-width:0.26277262;stroke-opacity:1"
         id="path4986" />
      <path
         d="m 77.505868,56.874551 c 3.028739,0 5.484026,2.167572 5.484026,4.841323 0,2.674274 -2.455287,4.841584 -5.484026,4.841584 -3.028739,0 -5.483762,-2.16731 -5.483762,-4.841584 0,-2.673751 2.455023,-4.841323 5.483762,-4.841323"
         style="fill:#458098;fill-opacity:1;fill-rule:evenodd;stroke:none;stroke-width:0.26277262;stroke-opacity:1"
         id="path4990" />
      <path
         d="m 76.877677,56.850252 c 2.742145,0 4.964836,1.922217 4.964836,4.293204 0,2.370987 -2.222691,4.293204 -4.964836,4.293204 -2.742145,0 -4.964836,-1.922217 -4.964836,-4.293204 0,-2.370987 2.222691,-4.293204 4.964836,-4.293204"
         style="fill:#ffffff;fill-opacity:1;fill-rule:evenodd;stroke:none;stroke-width:0.26277262;stroke-opacity:1"
         id="path4994" />
      <path
         d="m 83.193381,87.468543 c 0.82396,-0.676564 1.176409,-1.499397 0.75837,-1.767821 -0.406185,-0.260821 -1.050233,0.421509 -1.606565,0.766213 z"
         style="fill:#f5cca9;fill-opacity:1;fill-rule:evenodd;stroke:none;stroke-width:0.26277262"
         id="path4998" />
      <path
         d="m 89.059568,82.846389 c 3.612202,0 6.540844,0.922706 6.540844,2.061147 0,1.138178 -2.928642,2.061146 -6.540844,2.061146 -3.612466,0 -6.540844,-0.922968 -6.540844,-2.061146 0,-1.138441 2.928378,-2.061147 6.540844,-2.061147"
         style="fill:#cde1f9;fill-opacity:1;fill-rule:evenodd;stroke:none;stroke-width:0.26277262"
         id="path5002" />
      <path
         d="m 89.059568,83.110252 c 2.918369,0 5.284094,0.745504 5.284094,1.665065 0,0.919822 -2.365725,1.665065 -5.284094,1.665065 -2.918369,0 -5.284357,-0.745243 -5.284357,-1.665065 0,-0.919561 2.365988,-1.665065 5.284357,-1.665065"
         style="fill:#a9c2df;fill-opacity:1;fill-rule:evenodd;stroke:none;stroke-width:0.26277262"
         id="path5006" />
      <path
         d="m 89.059568,83.375006 c 2.47873,0 4.488319,0.63305 4.488319,1.414466 0,0.781155 -2.009589,1.414204 -4.488319,1.414204 -2.47873,0 -4.488319,-0.633049 -4.488319,-1.414204 0,-0.781416 2.009589,-1.414466 4.488319,-1.414466"
         style="fill:#cb8102;fill-opacity:1;fill-rule:evenodd;stroke:none;stroke-width:0.26277262"
         id="path5010" />
      <path
         d="m 80.549648,85.93444 -4.415617,1.527707 c -1.164818,0.71536 -0.518399,2.574927 0.967258,1.823131 l 4.157998,-1.862975 z"
         style="fill:#fcd9bd;fill-opacity:1;fill-rule:evenodd;stroke:none;stroke-width:0.26277262"
         id="path5014" />
      <path
         d="m 82.057432,86.212352 c 0,0 1.275189,-0.604477 0.960409,-1.402932 -0.31478,-0.798193 -0.993072,0.455848 -1.685326,0.642486 -0.692253,0.186376 -1.22593,0.54209 -1.355004,1.110655 -0.216526,0.954162 1.231463,1.249061 2.355453,1.219702 1.373969,-0.03565 2.435003,-0.700418 2.162632,-1.222061 -0.326107,-0.624662 -2.100467,0.25322 -2.438164,-0.34785"
         style="fill:#fcd9bd;fill-opacity:1;fill-rule:evenodd;stroke:none;stroke-width:0.26277262"
         id="path5018" />
      <path
         id="path5020"
         style="fill:#f8a719;fill-opacity:1;fill-rule:evenodd;stroke:none;stroke-width:0.26277262"
         d="m 84.571091,84.641157 h 8.976638 v -1.301225 h -8.976638 z" />
      <path
         d="m 89.059568,83.226691 c 2.47873,0 4.488319,0.63305 4.488319,1.414466 0,0.781155 -2.009589,1.414204 -4.488319,1.414204 -2.47873,0 -4.488319,-0.633049 -4.488319,-1.414204 0,-0.781416 2.009589,-1.414466 4.488319,-1.414466"
         style="fill:#f8a719;fill-opacity:1;fill-rule:evenodd;stroke:none;stroke-width:0.26277262"
         id="path5024" />
      <path
         d="m 89.059568,81.925387 c 2.47873,0 4.488319,0.63305 4.488319,1.414204 0,0.781417 -2.009589,1.414466 -4.488319,1.414466 -2.47873,0 -4.488319,-0.633049 -4.488319,-1.414466 0,-0.781154 2.009589,-1.414204 4.488319,-1.414204"
         style="fill:#c85235;fill-opacity:1;fill-rule:evenodd;stroke:none;stroke-width:0.26277262"
         id="path5028" />
      <path
         d="m 89.059568,81.655365 c 2.47873,0 4.488319,0.63305 4.488319,1.414204 0,0.781155 -2.009589,1.414466 -4.488319,1.414466 -2.47873,0 -4.488319,-0.633311 -4.488319,-1.414466 0,-0.781154 2.009589,-1.414204 4.488319,-1.414204"
         style="fill:#c85235;fill-opacity:1;fill-rule:evenodd;stroke:none;stroke-width:0.26277262"
         id="path5032" />
    </g>
  </g>
</svg>
