<?xml version="1.0" encoding="UTF-8" standalone="no"?>
<svg
   xmlns:dc="http://purl.org/dc/elements/1.1/"
   xmlns:cc="http://creativecommons.org/ns#"
   xmlns:rdf="http://www.w3.org/1999/02/22-rdf-syntax-ns#"
   xmlns:svg="http://www.w3.org/2000/svg"
   xmlns="http://www.w3.org/2000/svg"
   xmlns:sodipodi="http://sodipodi.sourceforge.net/DTD/sodipodi-0.dtd"
   xmlns:inkscape="http://www.inkscape.org/namespaces/inkscape"
   version="1.1"
   id="svg2"
   xml:space="preserve"
   width="800"
   height="180.93005"
   viewBox="0 0 799.99995 180.93006"
   sodipodi:docname="kitchen4.svg"
   inkscape:version="0.92.3 (2405546, 2018-03-11)"><sodipodi:namedview
     pagecolor="#ffffff"
     bordercolor="#666666"
     borderopacity="1"
     objecttolerance="10"
     gridtolerance="10"
     guidetolerance="10"
     inkscape:pageopacity="0"
     inkscape:pageshadow="2"
     inkscape:window-width="1317"
     inkscape:window-height="713"
     id="namedview104"
     showgrid="false"
     inkscape:zoom="0.82749023"
     inkscape:cx="400"
     inkscape:cy="113.28784"
     inkscape:window-x="49"
     inkscape:window-y="27"
     inkscape:window-maximized="1"
     inkscape:current-layer="svg2" /><metadata
     id="metadata8"><rdf:RDF><cc:Work
         rdf:about=""><dc:format>image/svg+xml</dc:format><dc:type
           rdf:resource="http://purl.org/dc/dcmitype/StillImage" /><dc:title /></cc:Work></rdf:RDF></metadata><defs
     id="defs6"><clipPath
       clipPathUnits="userSpaceOnUse"
       id="clipPath28"><path
         d="M 0,799.92 H 799.92 V 0 H 0 Z"
         id="path26"
         inkscape:connector-curvature="0" /></clipPath><clipPath
       clipPathUnits="userSpaceOnUse"
       id="clipPath582"><path
         d="M 0,799.92 H 799.92 V 0 H 0 Z"
         id="path580"
         inkscape:connector-curvature="0" /></clipPath></defs><g
     transform="matrix(1.5,0,0,-0.89303611,-69.369,204.87985)"
     id="g22"><g
       clip-path="url(#clipPath28)"
       id="g24"><g
         id="g6474"><path
           d="M 60.374929,79.682654 H 186.64342 V 221.01642 H 60.374929 Z"
           style="fill:#00837b;fill-opacity:1;fill-rule:evenodd;stroke:none;stroke-width:0.75390476"
           id="path42"
           inkscape:connector-curvature="0" /><path
           d="m 46.246,218.8203 h 533.33333 v 10.59915 H 46.246 Z"
           style="fill:#3b2f1f;fill-opacity:1;fill-rule:evenodd;stroke:none;stroke-width:0.75390476"
           id="path44"
           inkscape:connector-curvature="0" /><path
           d="M 66.184519,190.62049 H 180.83308 v 23.169 H 66.184519 Z"
           style="fill:#f1a51c;fill-opacity:1;fill-rule:evenodd;stroke:none;stroke-width:0.75390476"
           id="path46"
           inkscape:connector-curvature="0" /><path
           d="M 66.184519,98.52198 H 180.83308 v 77.28428 H 66.184519 Z"
           style="fill:#b8d8d5;fill-opacity:1;fill-rule:evenodd;stroke:none;stroke-width:0.75390476"
           id="path48"
           inkscape:connector-curvature="0" /><g
           id="g50"
           transform="matrix(0.75390476,0,0,0.75390476,66.184821,98.521754)"><path
             d="M 0,0 152.073,102.512 H 0 Z"
             style="fill:#ddf0ee;fill-opacity:1;fill-rule:evenodd;stroke:none"
             id="path52"
             inkscape:connector-curvature="0" /></g><path
           d="m 186.64417,79.683408 h 63.13425 V 218.8203 h -63.13425 z"
           style="fill:#f1a51c;fill-opacity:1;fill-rule:evenodd;stroke:none;stroke-width:0.75390476"
           id="path54"
           inkscape:connector-curvature="0" /><path
           d="M 439.18116,79.683408 H 502.3154 V 218.8203 h -63.13424 z"
           style="fill:#00837b;fill-opacity:1;fill-rule:evenodd;stroke:none;stroke-width:0.75390476"
           id="path56"
           inkscape:connector-curvature="0" /><path
           d="m 312.91267,172.44159 h 126.26849 v 46.37946 H 312.91267 Z"
           style="fill:#e83e5b;fill-opacity:1;fill-rule:evenodd;stroke:none;stroke-width:0.75390476"
           id="path58"
           inkscape:connector-curvature="0" /><path
           d="m 249.77767,79.683408 h 63.13424 V 218.8203 h -63.13424 z"
           style="fill:#f1a51c;fill-opacity:1;fill-rule:evenodd;stroke:none;stroke-width:0.75390476"
           id="path60"
           inkscape:connector-curvature="0" /><path
           d="m 502.3154,79.683408 h 63.135 V 218.8203 h -63.135 z"
           style="fill:#00837b;fill-opacity:1;fill-rule:evenodd;stroke:none;stroke-width:0.75390476"
           id="path62"
           inkscape:connector-curvature="0" /><g
           id="g64"
           transform="matrix(0.75390476,0,0,0.75390476,236.67216,199.48242)"><path
             d="m 0,0 c 3.842,0 6.976,3.134 6.976,6.976 0,3.842 -3.134,6.975 -6.976,6.975 -3.842,0 -6.976,-3.133 -6.976,-6.975 C -6.976,3.134 -3.842,0 0,0"
             style="fill:#ffffff;fill-opacity:1;fill-rule:evenodd;stroke:none"
             id="path66"
             inkscape:connector-curvature="0" /></g><g
           id="g68"
           transform="matrix(0.75390476,0,0,0.75390476,262.56186,199.48242)"><path
             d="m 0,0 c 3.842,0 6.976,3.134 6.976,6.976 0,3.842 -3.134,6.975 -6.976,6.975 -3.842,0 -6.975,-3.133 -6.975,-6.975 C -6.975,3.134 -3.842,0 0,0"
             style="fill:#ffffff;fill-opacity:1;fill-rule:evenodd;stroke:none"
             id="path70"
             inkscape:connector-curvature="0" /></g><g
           id="g72"
           transform="matrix(0.75390476,0,0,0.75390476,80.185737,159.51664)"><path
             d="m 0,0 h 114.931 c 2.902,0 5.276,2.374 5.276,5.275 v 10e-4 c 0,2.902 -2.374,5.275 -5.276,5.275 L 0,10.551 c -2.901,0 -5.275,-2.373 -5.275,-5.275 V 5.275 C -5.275,2.374 -2.901,0 0,0"
             style="fill:#3b2f1f;fill-opacity:1;fill-rule:evenodd;stroke:none"
             id="path74"
             inkscape:connector-curvature="0" /></g><g
           id="g76"
           transform="matrix(0.75390476,0,0,0.75390476,78.390086,196.11563)"><path
             d="m 0,0 c 4.499,0 8.167,3.669 8.167,8.167 0,4.498 -3.668,8.167 -8.167,8.167 -4.498,0 -8.167,-3.669 -8.167,-8.167 C -8.167,3.669 -4.498,0 0,0"
             style="fill:#00837b;fill-opacity:1;fill-rule:evenodd;stroke:none"
             id="path78"
             inkscape:connector-curvature="0" /></g><g
           id="g80"
           transform="matrix(0.75390476,0,0,0.75390476,97.242832,196.11563)"><path
             d="m 0,0 c 4.498,0 8.167,3.669 8.167,8.167 0,4.498 -3.669,8.167 -8.167,8.167 -4.499,0 -8.167,-3.669 -8.167,-8.167 C -8.167,3.669 -4.499,0 0,0"
             style="fill:#00837b;fill-opacity:1;fill-rule:evenodd;stroke:none"
             id="path82"
             inkscape:connector-curvature="0" /></g><g
           id="g84"
           transform="matrix(0.75390476,0,0,0.75390476,116.09528,196.11563)"><path
             d="m 0,0 c 4.498,0 8.167,3.669 8.167,8.167 0,4.498 -3.669,8.167 -8.167,8.167 -4.499,0 -8.167,-3.669 -8.167,-8.167 C -8.167,3.669 -4.499,0 0,0"
             style="fill:#00837b;fill-opacity:1;fill-rule:evenodd;stroke:none"
             id="path86"
             inkscape:connector-curvature="0" /></g><g
           id="g88"
           transform="matrix(0.75390476,0,0,0.75390476,134.94802,196.11563)"><path
             d="m 0,0 c 4.498,0 8.167,3.669 8.167,8.167 0,4.498 -3.669,8.167 -8.167,8.167 -4.499,0 -8.167,-3.669 -8.167,-8.167 C -8.167,3.669 -4.499,0 0,0"
             style="fill:#00837b;fill-opacity:1;fill-rule:evenodd;stroke:none"
             id="path90"
             inkscape:connector-curvature="0" /></g><g
           id="g92"
           transform="matrix(0.75390476,0,0,0.75390476,166.31204,196.11563)"><path
             d="m 0,0 c 4.499,0 8.167,3.669 8.167,8.167 0,4.498 -3.668,8.167 -8.167,8.167 -4.498,0 -8.167,-3.669 -8.167,-8.167 C -8.167,3.669 -4.498,0 0,0"
             style="fill:#00837b;fill-opacity:1;fill-rule:evenodd;stroke:none"
             id="path94"
             inkscape:connector-curvature="0" /></g><g
           id="g96"
           transform="matrix(0.75390476,0,0,0.75390476,376.04699,199.48242)"><path
             d="m 0,0 c 3.842,0 6.976,3.134 6.976,6.976 0,3.842 -3.134,6.975 -6.976,6.975 -3.842,0 -6.976,-3.133 -6.976,-6.975 C -6.976,3.134 -3.842,0 0,0"
             style="fill:#ffffff;fill-opacity:1;fill-rule:evenodd;stroke:none"
             id="path98"
             inkscape:connector-curvature="0" /></g><path
           d="m 312.91267,126.06212 h 126.26849 v 46.37947 H 312.91267 Z"
           style="fill:#e83e5b;fill-opacity:1;fill-rule:evenodd;stroke:none;stroke-width:0.75390476"
           id="path100"
           inkscape:connector-curvature="0" /><g
           id="g102"
           transform="matrix(0.75390476,0,0,0.75390476,376.04699,153.10401)"><path
             d="m 0,0 c 3.842,0 6.976,3.133 6.976,6.976 0,3.841 -3.134,6.975 -6.976,6.975 -3.842,0 -6.976,-3.134 -6.976,-6.975 C -6.976,3.133 -3.842,0 0,0"
             style="fill:#ffffff;fill-opacity:1;fill-rule:evenodd;stroke:none"
             id="path104"
             inkscape:connector-curvature="0" /></g><path
           d="M 312.91267,79.682654 H 439.18116 V 126.06212 H 312.91267 Z"
           style="fill:#e83e5b;fill-opacity:1;fill-rule:evenodd;stroke:none;stroke-width:0.75390476"
           id="path106"
           inkscape:connector-curvature="0" /><g
           id="g108"
           transform="matrix(0.75390476,0,0,0.75390476,376.04699,106.72492)"><path
             d="m 0,0 c 3.842,0 6.976,3.134 6.976,6.976 0,3.841 -3.134,6.975 -6.976,6.975 -3.842,0 -6.976,-3.134 -6.976,-6.975 C -6.976,3.134 -3.842,0 0,0"
             style="fill:#ffffff;fill-opacity:1;fill-rule:evenodd;stroke:none"
             id="path110"
             inkscape:connector-curvature="0" /></g><g
           id="g112"
           transform="matrix(0.75390476,0,0,0.75390476,489.48025,199.48242)"><path
             d="m 0,0 c 3.842,0 6.976,3.134 6.976,6.976 0,3.842 -3.134,6.975 -6.976,6.975 -3.842,0 -6.976,-3.133 -6.976,-6.975 C -6.976,3.134 -3.842,0 0,0"
             style="fill:#ffffff;fill-opacity:1;fill-rule:evenodd;stroke:none"
             id="path114"
             inkscape:connector-curvature="0" /></g><g
           id="g116"
           transform="matrix(0.75390476,0,0,0.75390476,515.36994,199.48242)"><path
             d="m 0,0 c 3.842,0 6.976,3.134 6.976,6.976 0,3.842 -3.134,6.975 -6.976,6.975 -3.842,0 -6.976,-3.133 -6.976,-6.975 C -6.976,3.134 -3.842,0 0,0"
             style="fill:#ffffff;fill-opacity:1;fill-rule:evenodd;stroke:none"
             id="path118"
             inkscape:connector-curvature="0" /></g><g
           id="g122"
           transform="matrix(0.75390476,0,0,0.75390476,61.340002,359.01907)" /><g
           id="g128"
           transform="matrix(0.75390476,0,0,0.75390476,225.03896,24.862168)" /><g
           id="g132"
           transform="matrix(0.75390476,0,0,0.75390476,233.58477,28.302612)" /><g
           id="g136"
           transform="matrix(0.75390476,0,0,0.75390476,244.54293,27.366112)" /><g
           id="g140"
           transform="matrix(0.75390476,0,0,0.75390476,247.50698,31.647311)" /><g
           id="g144"
           transform="matrix(0.75390476,0,0,0.75390476,252.28591,25.038883)" /><g
           id="g148"
           transform="matrix(0.75390476,0,0,0.75390476,259.17705,31.676035)" /><g
           id="g152"
           transform="matrix(0.75390476,0,0,0.75390476,269.0183,28.302612)" /><g
           id="g156"
           transform="matrix(0.75390476,0,0,0.75390476,277.06238,24.862168)" /><g
           id="g160"
           transform="matrix(0.75390476,0,0,0.75390476,287.02772,34.547356)" /><g
           id="g164"
           transform="matrix(0.75390476,0,0,0.75390476,295.35566,24.565506)" /><g
           id="g168"
           transform="matrix(0.75390476,0,0,0.75390476,323.6742,32.588259)" /><g
           id="g172"
           transform="matrix(0.75390476,0,0,0.75390476,330.07425,27.631939)" /><g
           id="g176"
           transform="matrix(0.75390476,0,0,0.75390476,337.00814,28.304799)" /><g
           id="g180"
           transform="matrix(0.75390476,0,0,0.75390476,345.14134,28.304799)" /><g
           id="g184"
           transform="matrix(0.75390476,0,0,0.75390476,351.47587,31.661333)" /><g
           id="g188"
           transform="matrix(0.75390476,0,0,0.75390476,360.20911,31.651759)" /><g
           id="g192"
           transform="matrix(0.75390476,0,0,0.75390476,366.51205,25.702998)" /><g
           id="g196"
           transform="matrix(0.75390476,0,0,0.75390476,370.76008,24.810676)" /><g
           id="g200"
           transform="matrix(0.75390476,0,0,0.75390476,380.48432,27.230635)" /><g
           id="g204"
           transform="matrix(0.75390476,0,0,0.75390476,385.02833,24.809168)" /><g
           id="g208"
           transform="matrix(0.75390476,0,0,0.75390476,396.37889,28.640588)" /><g
           id="g212"
           transform="matrix(0.75390476,0,0,0.75390476,305.37875,29.257508)"><path
             d="M 0,0 C -0.002,0.005 -0.002,0.01 -0.002,0.018 -0.002,0.01 -0.002,0.005 0,0"
             style="fill:#3b2f1f;fill-opacity:1;fill-rule:nonzero;stroke:none"
             id="path214"
             inkscape:connector-curvature="0" /></g><g
           id="g216"
           transform="matrix(0.75390476,0,0,0.75390476,305.47743,28.632446)"><path
             d="M 0,0 H 0.003 C -0.047,0.236 -0.085,0.471 -0.116,0.702 -0.085,0.469 -0.047,0.233 0,0"
             style="fill:#3b2f1f;fill-opacity:1;fill-rule:nonzero;stroke:none"
             id="path218"
             inkscape:connector-curvature="0" /></g><g
           id="g220"
           transform="matrix(0.75390476,0,0,0.75390476,306.12458,26.8184)"><path
             d="M 0,0 C -0.006,0.01 -0.011,0.021 -0.017,0.033 -0.011,0.021 -0.006,0.01 0,0"
             style="fill:#3b2f1f;fill-opacity:1;fill-rule:nonzero;stroke:none"
             id="path222"
             inkscape:connector-curvature="0" /></g><g
           id="g224"
           transform="matrix(0.75390476,0,0,0.75390476,306.06269,26.9391)"><path
             d="M 0,0 C -0.022,0.044 -0.044,0.09 -0.065,0.134 -0.044,0.087 -0.022,0.044 0,0"
             style="fill:#3b2f1f;fill-opacity:1;fill-rule:nonzero;stroke:none"
             id="path226"
             inkscape:connector-curvature="0" /></g><g
           id="g228"
           transform="matrix(0.75390476,0,0,0.75390476,305.65927,27.933802)"><path
             d="M 0,0 C 0.127,-0.4 0.28,-0.788 0.457,-1.158 0.277,-0.78 0.127,-0.392 0.003,0 Z"
             style="fill:#3b2f1f;fill-opacity:1;fill-rule:nonzero;stroke:none"
             id="path230"
             inkscape:connector-curvature="0" /></g><g
           id="g232"
           transform="matrix(0.75390476,0,0,0.75390476,312.94576,36.748683)" /><g
           id="g236"
           transform="matrix(0.75390476,0,0,0.75390476,306.10981,33.839817)" /><g
           id="g240"
           transform="matrix(0.75390476,0,0,0.75390476,319.88108,36.082382)" /><g
           id="g244"
           transform="matrix(0.75390476,0,0,0.75390476,317.87856,29.144875)" /><g
           id="g248"
           transform="matrix(0.75390476,0,0,0.75390476,306.4511,33.588088)" /><path
           d="M 73.212419,62.004341 H 552.61367 V 79.683408 H 73.212419 Z"
           style="fill:#3b2f1f;fill-opacity:1;fill-rule:evenodd;stroke:none;stroke-width:0.75390476"
           id="path252"
           inkscape:connector-curvature="0" /><path
           d="m 185.67842,69.084261 h 1.93075 V 229.41945 h -1.93075 z"
           style="fill:#3b2f1f;fill-opacity:1;fill-rule:evenodd;stroke:none;stroke-width:0.75390476"
           id="path256"
           inkscape:connector-curvature="0" /><path
           d="m 59.409931,79.683408 h 1.929996 V 229.41869 h -1.929996 z"
           style="fill:#3b2f1f;fill-opacity:1;fill-rule:evenodd;stroke:none;stroke-width:0.75390476"
           id="path258"
           inkscape:connector-curvature="0" /><path
           d="m 248.81342,69.084261 h 1.93 V 229.41945 h -1.93 z"
           style="fill:#3b2f1f;fill-opacity:1;fill-rule:evenodd;stroke:none;stroke-width:0.75390476"
           id="path260"
           inkscape:connector-curvature="0" /><path
           d="m 311.94767,69.084261 h 1.93075 V 229.41945 h -1.93075 z"
           style="fill:#3b2f1f;fill-opacity:1;fill-rule:evenodd;stroke:none;stroke-width:0.75390476"
           id="path262"
           inkscape:connector-curvature="0" /><path
           d="m 438.21616,69.084261 h 1.93075 V 229.41945 h -1.93075 z"
           style="fill:#3b2f1f;fill-opacity:1;fill-rule:evenodd;stroke:none;stroke-width:0.75390476"
           id="path264"
           inkscape:connector-curvature="0" /><path
           d="m 311.94767,173.40659 h 128.19924 v -1.93075 H 311.94767 Z"
           style="fill:#3b2f1f;fill-opacity:1;fill-rule:evenodd;stroke:none;stroke-width:0.75390476"
           id="path266"
           inkscape:connector-curvature="0" /><path
           d="m 311.94767,127.02712 h 128.19924 v -1.93075 H 311.94767 Z"
           style="fill:#3b2f1f;fill-opacity:1;fill-rule:evenodd;stroke:none;stroke-width:0.75390476"
           id="path268"
           inkscape:connector-curvature="0" /><path
           d="m 564.48541,79.683408 h 1.92999 V 218.8203 h -1.92999 z"
           style="fill:#3b2f1f;fill-opacity:1;fill-rule:evenodd;stroke:none;stroke-width:0.75390476"
           id="path270"
           inkscape:connector-curvature="0" /><path
           d="m 501.35116,79.683408 h 1.93 V 229.41869 h -1.93 z"
           style="fill:#3b2f1f;fill-opacity:1;fill-rule:evenodd;stroke:none;stroke-width:0.75390476"
           id="path272"
           inkscape:connector-curvature="0" /><path
           d="m 77.661965,202.27284 h 1.82445 v 7.21638 h -1.82445 z"
           style="fill:#f1a51c;fill-opacity:1;fill-rule:evenodd;stroke:none;stroke-width:0.75390476"
           id="path276"
           inkscape:connector-curvature="0" /><path
           d="m 96.330155,202.27284 h 1.824449 v 7.21638 h -1.824449 z"
           style="fill:#f1a51c;fill-opacity:1;fill-rule:evenodd;stroke:none;stroke-width:0.75390476"
           id="path278"
           inkscape:connector-curvature="0" /><path
           d="m 115.18305,202.27284 h 1.82445 v 7.21638 h -1.82445 z"
           style="fill:#f1a51c;fill-opacity:1;fill-rule:evenodd;stroke:none;stroke-width:0.75390476"
           id="path280"
           inkscape:connector-curvature="0" /><path
           d="m 134.03519,202.27284 h 1.82445 v 7.21638 h -1.82445 z"
           style="fill:#f1a51c;fill-opacity:1;fill-rule:evenodd;stroke:none;stroke-width:0.75390476"
           id="path282"
           inkscape:connector-curvature="0" /><path
           d="m 165.39989,202.27284 h 1.82445 v 7.21638 h -1.82445 z"
           style="fill:#f1a51c;fill-opacity:1;fill-rule:evenodd;stroke:none;stroke-width:0.75390476"
           id="path284"
           inkscape:connector-curvature="0" /><g
           id="g288"
           transform="matrix(0.75390476,0,0,0.75390476,325.65909,424.30398)" /></g></g></g></svg>