<?xml version="1.0" encoding="UTF-8" standalone="no"?>
<svg
   xmlns:dc="http://purl.org/dc/elements/1.1/"
   xmlns:cc="http://creativecommons.org/ns#"
   xmlns:rdf="http://www.w3.org/1999/02/22-rdf-syntax-ns#"
   xmlns:svg="http://www.w3.org/2000/svg"
   xmlns="http://www.w3.org/2000/svg"
   id="svg8"
   version="1.1"
   viewBox="0 0 67.594963 16.111772"
   height="16.111773mm"
   width="67.594963mm">
  <defs
     id="defs2" />
  <metadata
     id="metadata5">
    <rdf:RDF>
      <cc:Work
         rdf:about="">
        <dc:format>image/svg+xml</dc:format>
        <dc:type
           rdf:resource="http://purl.org/dc/dcmitype/StillImage" />
        <dc:title></dc:title>
      </cc:Work>
    </rdf:RDF>
  </metadata>
  <g
     transform="translate(-61.271717,-22.583643)"
     id="layer1">
    <g
       id="flowRoot815"
       style="font-style:normal;font-weight:normal;font-size:40px;line-height:1.25;font-family:sans-serif;letter-spacing:0px;word-spacing:0px;fill:#458098;fill-opacity:1;stroke:none"
       transform="matrix(0.26458333,0,0,0.26458333,35.831548,-5.3347493)"
       aria-label="NO">
      <path
         id="path4329"
         style="font-style:normal;font-variant:normal;font-weight:normal;font-stretch:normal;font-size:37.33333206px;font-family:'911 Porscha Laser';-inkscape-font-specification:'911 Porscha Laser';fill:#458098;fill-opacity:1"
         d="m 125.34649,123.625 h 4.032 v -11.05067 h -3.99467 v 6.68267 l -12.28266,-6.68267 h -8.02667 z m -25.2,0 V 112.57433 H 96.151823 V 123.625 Z m -3.994667,-18.10667 v 3.95734 h 11.274667 l -7.24267,-3.95734 z m 33.226667,0 h -3.99467 v 3.95734 h 3.99467 z" />
      <path
         id="path4331"
         style="font-style:normal;font-variant:normal;font-weight:normal;font-stretch:normal;font-size:37.33333206px;font-family:'911 Porscha Laser';-inkscape-font-specification:'911 Porscha Laser';fill:#458098;fill-opacity:1"
         d="m 160.93391,119.66767 h -22.512 q -0.56,0 -0.93334,-0.448 -0.37333,-0.48534 -0.37333,-1.232 v -5.41334 h -3.99467 v 7.09334 q 0,0.97066 0.29867,1.71733 0.336,0.70933 0.85867,1.232 0.52266,0.48533 1.19466,0.74667 0.672,0.26133 1.41867,0.26133 h 25.68533 q 0.70934,0 1.38134,-0.26133 0.70933,-0.26134 1.232,-0.74667 0.52266,-0.52267 0.82133,-1.232 0.336,-0.74667 0.336,-1.71733 v -7.09334 h -3.99467 v 5.41334 q 0,0.74666 -0.448,1.232 -0.41066,0.448 -0.97066,0.448 z m 1.64266,-14.14934 h -25.68533 q -0.74667,0 -1.41867,0.26134 -0.672,0.26133 -1.19466,0.784 -0.52267,0.48533 -0.85867,1.232 -0.29867,0.74666 -0.29867,1.68 h 33.22667 q 0,-0.896 -0.336,-1.64267 -0.29867,-0.74667 -0.82133,-1.232 -0.52267,-0.52267 -1.232,-0.784 -0.672,-0.29867 -1.38134,-0.29867 z" />
    </g>
    <g
       id="flowRoot823"
       style="font-style:normal;font-weight:normal;font-size:40px;line-height:1.25;font-family:sans-serif;letter-spacing:0px;word-spacing:0px;fill:#458098;fill-opacity:1;stroke:none"
       transform="matrix(0.26458333,0,0,0.26458333,0,5.8208336)"
       aria-label="PROBLEM">
      <path
         id="path4314"
         style="font-style:normal;font-variant:normal;font-weight:normal;font-stretch:normal;font-size:37.33333206px;font-family:'911 Porscha Laser';-inkscape-font-specification:'911 Porscha Laser';fill:#458098;fill-opacity:1"
         d="m 235.86133,106.48242 v -7.093331 h 25.46134 q 0.70933,0 1.38133,-0.261334 0.70933,-0.261333 1.232,-0.746666 0.52267,-0.522667 0.82133,-1.232 0.336,-0.746667 0.336,-1.717333 h -33.22666 v 11.050664 z m -3.99466,-14.149331 h 33.22666 q 0,-0.896 -0.336,-1.642667 -0.29866,-0.746666 -0.82133,-1.232 -0.52267,-0.522666 -1.232,-0.784 -0.672,-0.298666 -1.38133,-0.298666 h -29.456 z" />
      <path
         id="path4316"
         style="font-style:normal;font-variant:normal;font-weight:normal;font-stretch:normal;font-size:37.33333206px;font-family:'911 Porscha Laser';-inkscape-font-specification:'911 Porscha Laser';fill:#458098;fill-opacity:1"
         d="m 272.83008,106.48242 v -7.093331 h 22.02667 l 3.17333,7.093331 h 4.06934 l -2.83734,-7.205331 q 1.19467,-0.298667 1.97867,-1.269334 0.82133,-0.970666 0.82133,-2.575999 h -33.22666 v 11.050664 z m -3.99466,-14.149331 h 33.22666 q 0,-0.896 -0.336,-1.642667 -0.29866,-0.746666 -0.82133,-1.232 -0.52267,-0.522666 -1.232,-0.784 -0.672,-0.298666 -1.38133,-0.298666 h -29.456 z" />
      <path
         id="path4318"
         style="font-style:normal;font-variant:normal;font-weight:normal;font-stretch:normal;font-size:37.33333206px;font-family:'911 Porscha Laser';-inkscape-font-specification:'911 Porscha Laser';fill:#458098;fill-opacity:1"
         d="m 333.6175,102.52509 h -22.512 q -0.56,0 -0.93333,-0.448 -0.37334,-0.48533 -0.37334,-1.232 v -5.413334 h -3.99466 v 7.093334 q 0,0.97067 0.29866,1.71733 0.336,0.70934 0.85867,1.232 0.52267,0.48534 1.19467,0.74667 0.672,0.26133 1.41866,0.26133 h 25.68534 q 0.70933,0 1.38133,-0.26133 0.70933,-0.26133 1.232,-0.74667 0.52267,-0.52266 0.82133,-1.232 0.336,-0.74666 0.336,-1.71733 v -7.093334 h -3.99466 v 5.413334 q 0,0.74667 -0.448,1.232 -0.41067,0.448 -0.97067,0.448 z m 1.64267,-14.149334 h -25.68534 q -0.74666,0 -1.41866,0.261333 -0.672,0.261333 -1.19467,0.784 -0.52267,0.485333 -0.85867,1.232 -0.29866,0.746667 -0.29866,1.68 h 33.22666 q 0,-0.896 -0.336,-1.642667 -0.29866,-0.746666 -0.82133,-1.232 -0.52267,-0.522666 -1.232,-0.784 -0.672,-0.298666 -1.38133,-0.298666 z" />
      <path
         id="path4320"
         style="font-style:normal;font-variant:normal;font-weight:normal;font-stretch:normal;font-size:37.33333206px;font-family:'911 Porscha Laser';-inkscape-font-specification:'911 Porscha Laser';fill:#458098;fill-opacity:1"
         d="m 372.22892,106.48242 q 0.70933,0 1.38133,-0.26133 0.70933,-0.29867 1.232,-0.784 0.52267,-0.52267 0.82133,-1.26933 0.336,-0.74667 0.336,-1.64267 v -2.762668 q 0,-0.933333 -0.448,-1.493333 -0.448,-0.56 -0.896,-0.821333 0.37334,-0.298667 0.74667,-0.784 0.37333,-0.522667 0.52267,-1.232 h -33.152 v 11.050664 z m 0,-18.106664 h -29.456 v 3.957333 h 33.22666 q 0,-0.896 -0.336,-1.642667 -0.29866,-0.746666 -0.82133,-1.232 -0.52267,-0.522666 -1.232,-0.784 -0.672,-0.298666 -1.38133,-0.298666 z m -25.46134,11.013333 h 23.78134 q 0.56,0 1.008,0.373333 0.448,0.373338 0.448,1.119998 v 0.448 q 0,0.784 -0.37334,1.008 -0.336,0.18667 -1.008,0.18667 h -23.856 z" />
      <path
         id="path4322"
         style="font-style:normal;font-variant:normal;font-weight:normal;font-stretch:normal;font-size:37.33333206px;font-family:'911 Porscha Laser';-inkscape-font-specification:'911 Porscha Laser';fill:#458098;fill-opacity:1"
         d="m 385.155,102.52509 q -0.56,0 -1.008,-0.448 -0.41067,-0.48533 -0.41067,-1.232 v -5.413334 h -3.99466 v 7.093334 q 0,0.97067 0.29866,1.71733 0.336,0.70934 0.85867,1.232 0.52267,0.48534 1.19467,0.74667 0.672,0.26133 1.41866,0.26133 h 29.456 v -3.95733 z m -5.41333,-10.192001 h 3.99466 v -3.957333 h -3.99466 z" />
      <path
         id="path4324"
         style="font-style:normal;font-variant:normal;font-weight:normal;font-stretch:normal;font-size:37.33333206px;font-family:'911 Porscha Laser';-inkscape-font-specification:'911 Porscha Laser';fill:#458098;fill-opacity:1"
         d="m 420.70508,102.52509 v -3.136001 h 29.232 v -3.957333 h -33.22666 v 11.050664 h 33.22666 v -3.95733 z m 29.232,-14.149334 h -33.22666 v 3.957333 h 33.22666 z" />
      <path
         id="path4326"
         style="font-style:normal;font-variant:normal;font-weight:normal;font-stretch:normal;font-size:37.33333206px;font-family:'911 Porscha Laser';-inkscape-font-specification:'911 Porscha Laser';fill:#458098;fill-opacity:1"
         d="m 465.5885,95.431756 h -5.264 l 9.93067,9.184004 9.93066,-9.184004 h -5.264 l -4.66666,4.367999 z m -8.10133,11.050664 V 95.431756 h -3.99467 v 11.050664 z m 29.568,0 V 95.431756 h -3.99467 v 11.050664 z m 0,-18.106664 h -4.55467 l -4.256,3.957333 h 8.81067 z m -33.56267,0 v 3.957333 h 8.77333 l -4.21866,-3.957333 z" />
    </g>
    <flowRoot
       transform="scale(0.26458333)"
       style="font-style:normal;font-variant:normal;font-weight:normal;font-stretch:normal;font-size:26.66666794px;line-height:1.25;font-family:'911 Porscha Laser Italic';-inkscape-font-specification:'911 Porscha Laser Italic, ';letter-spacing:0px;word-spacing:0px;fill:#000000;fill-opacity:1;stroke:none"
       id="flowRoot831"
       xml:space="preserve"><flowRegion
         style="font-style:normal;font-variant:normal;font-weight:normal;font-stretch:normal;font-size:26.66666794px;font-family:'911 Porscha Laser Italic';-inkscape-font-specification:'911 Porscha Laser Italic, '"
         id="flowRegion833"><rect
           style="font-style:normal;font-variant:normal;font-weight:normal;font-stretch:normal;font-size:26.66666794px;font-family:'911 Porscha Laser Italic';-inkscape-font-specification:'911 Porscha Laser Italic, '"
           y="178.23396"
           x="171.42857"
           height="105.71429"
           width="205.71428"
           id="rect835" /></flowRegion><flowPara
         id="flowPara837" /></flowRoot>    <flowRoot
       transform="scale(0.26458333)"
       style="font-style:normal;font-weight:normal;font-size:26.66666603px;line-height:1.25;font-family:sans-serif;letter-spacing:0px;word-spacing:0px;fill:#000000;fill-opacity:1;stroke:none"
       id="flowRoot839"
       xml:space="preserve"><flowRegion
         style="font-size:26.66666603px"
         id="flowRegion841"><rect
           style="font-size:26.66666603px"
           y="176.8054"
           x="205.71428"
           height="75.714287"
           width="284.28571"
           id="rect843" /></flowRegion><flowPara
         id="flowPara845"></flowPara></flowRoot>    <g
       id="flowRoot847"
       style="font-style:normal;font-weight:normal;font-size:40px;line-height:1.25;font-family:sans-serif;letter-spacing:0px;word-spacing:0px;fill:#458098;fill-opacity:1;stroke:none"
       transform="matrix(0.33730737,0,0,0.33730737,50.453988,-28.061138)"
       aria-label="TEAM">
      <path
         id="path4305"
         style="font-style:normal;font-variant:normal;font-weight:normal;font-stretch:normal;font-size:14.64210224px;font-family:'911 Porscha Laser';-inkscape-font-specification:'911 Porscha Laser';fill:#458098;fill-opacity:1"
         d="m 176.44695,192.3608 h 13.03147 v -1.55206 h -13.03147 z m 7.29177,5.54936 v -4.33407 h -1.56671 v 4.33407 z" />
      <path
         id="path4307"
         style="font-style:normal;font-variant:normal;font-weight:normal;font-stretch:normal;font-size:14.64210224px;font-family:'911 Porscha Laser';-inkscape-font-specification:'911 Porscha Laser';fill:#458098;fill-opacity:1"
         d="m 192.51277,196.35809 v -1.22993 h 11.46476 v -1.55207 h -13.03147 v 4.33407 h 13.03147 v -1.55207 z m 11.46476,-5.54935 h -13.03147 v 1.55206 h 13.03147 z" />
      <path
         id="path4309"
         style="font-style:normal;font-variant:normal;font-weight:normal;font-stretch:normal;font-size:14.64210224px;font-family:'911 Porscha Laser';-inkscape-font-specification:'911 Porscha Laser';fill:#458098;fill-opacity:1"
         d="m 207.02652,197.91016 1.40564,-1.71313 h 6.35468 l 1.40564,1.71313 h 1.93276 l -3.51411,-4.33407 h -1.97668 l 0.93709,1.1128 h -3.92408 l 0.92245,-1.1128 h -1.97668 l -3.49947,4.33407 z m 6.60359,-5.54936 -1.24458,-1.55206 h -1.55206 l -1.25922,1.55206 z" />
      <path
         id="path4311"
         style="font-style:normal;font-variant:normal;font-weight:normal;font-stretch:normal;font-size:14.64210224px;font-family:'911 Porscha Laser';-inkscape-font-specification:'911 Porscha Laser';fill:#458098;fill-opacity:1"
         d="m 223.90017,193.57609 h -2.06453 l 3.8948,3.60196 3.8948,-3.60196 h -2.06454 l -1.83026,1.71313 z m -3.17733,4.33407 v -4.33407 h -1.56671 v 4.33407 z m 11.59654,0 v -4.33407 h -1.5667 v 4.33407 z m 0,-7.10142 h -1.78633 l -1.6692,1.55206 h 3.45553 z m -13.16325,0 v 1.55206 h 3.4409 l -1.65456,-1.55206 z" />
    </g>
    <text
       id="text945"
       y="22.890902"
       x="76.572716"
       style="font-style:normal;font-weight:normal;font-size:10.58333302px;line-height:1.25;font-family:sans-serif;letter-spacing:0px;word-spacing:0px;fill:#000000;fill-opacity:1;stroke:none;stroke-width:0.26458332"
       xml:space="preserve"><tspan
         style="stroke-width:0.26458332"
         y="32.254669"
         x="76.572716"
         id="tspan943" /></text>
  </g>
</svg>
